<svg height="3.01042in" style="color-interpolation-filters:sRGB;fill:none;fill-rule:evenodd;font-size:12;stroke-linecap:square;stroke-miterlimit:3" viewBox="0 0 455.25 216.75" width="6.32292in" xmlns="http://www.w3.org/2000/svg"><rect fill="#fff" height="100%" width="100%"/><path d="m0 216.75h36" stroke="#000" stroke-linecap="round" stroke-linejoin="round" stroke-width=".75" transform="matrix(0 -1 1 0 -166.875 180.375)"/><path d="m0 216.75h36" stroke="#000" stroke-linecap="round" stroke-linejoin="round" stroke-width=".75" transform="matrix(0 -1 1 0 -103.875 180.375)"/><path d="m0 216.75h36" stroke="#000" stroke-linecap="round" stroke-linejoin="round" stroke-width=".75" transform="matrix(.8660254 -.5 .5 .8660254 -58.5 -43.336)"/><path d="m0 216.75h36" stroke="#000" stroke-linecap="round" stroke-linejoin="round" stroke-width=".75" transform="matrix(.8660254 .5 -.5 .8660254 190.073 -61.336)"/><path d="m0 216.75h36" stroke="#000" stroke-linecap="round" stroke-linejoin="round" stroke-width=".75" transform="matrix(-.8660254 .5 -.5 -.8660254 221.25 368.086)"/><path d="m0 216.75h36" stroke="#000" stroke-linecap="round" stroke-linejoin="round" stroke-width=".75" transform="matrix(-.8660254 -.5 .5 -.8660254 -27.323 386.086)"/><path d="m0 216.75h36" stroke="#000" stroke-linecap="round" stroke-linejoin="round" stroke-width=".75" transform="matrix(0 -1 1 0 -198.375 126.375)"/><path d="m0 216.75h36" stroke="#000" stroke-linecap="round" stroke-linejoin="round" stroke-width=".75" transform="matrix(0 -1 1 0 -135.375 126.375)"/><path d="m0 216.75h36" stroke="#000" stroke-linecap="round" stroke-linejoin="round" stroke-width=".75" transform="matrix(.8660254 -.5 .5 .8660254 -90 -97.336)"/><path d="m0 216.75h36" stroke="#000" stroke-linecap="round" stroke-linejoin="round" stroke-width=".75" transform="matrix(.8660254 .5 -.5 .8660254 158.573 -115.336)"/><path d="m0 216.75h36" stroke="#000" stroke-linecap="round" stroke-linejoin="round" stroke-width=".75" transform="matrix(-.8660254 .5 -.5 -.8660254 189.75 314.086)"/><path d="m0 216.75h36" stroke="#000" stroke-linecap="round" stroke-linejoin="round" stroke-width=".75" transform="matrix(-.8660254 -.5 .5 -.8660254 -58.823 332.086)"/><path d="m0 216.75h36" stroke="#000" stroke-linecap="round" stroke-linejoin="round" stroke-width=".75" transform="matrix(0 -1 1 0 -135.375 126.375)"/><path d="m0 216.75h36" stroke="#000" stroke-linecap="round" stroke-linejoin="round" stroke-width=".75" transform="matrix(0 -1 1 0 -72.375 126.375)"/><path d="m0 216.75h36" stroke="#000" stroke-linecap="round" stroke-linejoin="round" stroke-width=".75" transform="matrix(.8660254 -.5 .5 .8660254 -27 -97.336)"/><path d="m0 216.75h36" stroke="#000" stroke-linecap="round" stroke-linejoin="round" stroke-width=".75" transform="matrix(.8660254 .5 -.5 .8660254 221.573 -115.336)"/><path d="m0 216.75h36" stroke="#000" stroke-linecap="round" stroke-linejoin="round" stroke-width=".75" transform="matrix(-.8660254 .5 -.5 -.8660254 252.75 314.086)"/><path d="m0 216.75h36" stroke="#000" stroke-linecap="round" stroke-linejoin="round" stroke-width=".75" transform="matrix(-.8660254 -.5 .5 -.8660254 4.177 332.086)"/><path d="m0 216.75h36" stroke="#000" stroke-linecap="round" stroke-linejoin="round" stroke-width=".75" transform="matrix(0 -1 1 0 -166.875 72.375)"/><path d="m0 216.75h36" stroke="#000" stroke-linecap="round" stroke-linejoin="round" stroke-width=".75" transform="matrix(0 -1 1 0 -103.875 72.375)"/><path d="m0 216.75h36" stroke="#000" stroke-linecap="round" stroke-linejoin="round" stroke-width=".75" transform="matrix(.8660254 -.5 .5 .8660254 -58.5 -151.336)"/><path d="m0 216.75h36" stroke="#000" stroke-linecap="round" stroke-linejoin="round" stroke-width=".75" transform="matrix(.8660254 .5 -.5 .8660254 190.073 -169.336)"/><path d="m0 216.75h36" stroke="#000" stroke-linecap="round" stroke-linejoin="round" stroke-width=".75" transform="matrix(-.8660254 .5 -.5 -.8660254 221.25 260.086)"/><path d="m0 216.75h36" stroke="#000" stroke-linecap="round" stroke-linejoin="round" stroke-width=".75" transform="matrix(-.8660254 -.5 .5 -.8660254 -27.323 278.086)"/><path d="m0 216.75h36" stroke="#000" stroke-linecap="round" stroke-linejoin="round" stroke-width=".75" transform="matrix(0 -1 1 0 -103.875 180.375)"/><path d="m0 216.75h36" stroke="#000" stroke-linecap="round" stroke-linejoin="round" stroke-width=".75" transform="matrix(0 -1 1 0 -40.875 180.375)"/><path d="m0 216.75h36" stroke="#000" stroke-linecap="round" stroke-linejoin="round" stroke-width=".75" transform="matrix(.8660254 -.5 .5 .8660254 4.5 -43.336)"/><path d="m0 216.75h36" stroke="#000" stroke-linecap="round" stroke-linejoin="round" stroke-width=".75" transform="matrix(.8660254 .5 -.5 .8660254 253.073 -61.336)"/><path d="m0 216.75h36" stroke="#000" stroke-linecap="round" stroke-linejoin="round" stroke-width=".75" transform="matrix(-.8660254 .5 -.5 -.8660254 284.25 368.086)"/><path d="m0 216.75h36" stroke="#000" stroke-linecap="round" stroke-linejoin="round" stroke-width=".75" transform="matrix(-.8660254 -.5 .5 -.8660254 35.677 386.086)"/><path d="m0 216.75h36" stroke="#000" stroke-linecap="round" stroke-linejoin="round" stroke-width=".75" transform="matrix(0 -1 1 0 -72.375 126.375)"/><path d="m0 216.75h36" stroke="#000" stroke-linecap="round" stroke-linejoin="round" stroke-width=".75" transform="matrix(0 -1 1 0 -9.375 126.375)"/><path d="m0 216.75h36" stroke="#000" stroke-linecap="round" stroke-linejoin="round" stroke-width=".75" transform="matrix(.8660254 -.5 .5 .8660254 36 -97.336)"/><path d="m0 216.75h36" stroke="#000" stroke-linecap="round" stroke-linejoin="round" stroke-width=".75" transform="matrix(.8660254 .5 -.5 .8660254 284.573 -115.336)"/><path d="m0 216.75h36" stroke="#000" stroke-linecap="round" stroke-linejoin="round" stroke-width=".75" transform="matrix(-.8660254 .5 -.5 -.8660254 315.75 314.086)"/><path d="m0 216.75h36" stroke="#000" stroke-linecap="round" stroke-linejoin="round" stroke-width=".75" transform="matrix(-.8660254 -.5 .5 -.8660254 67.177 332.086)"/><path d="m0 216.75h36" stroke="#000" stroke-linecap="round" stroke-linejoin="round" stroke-width=".75" transform="matrix(0 -1 1 0 -103.875 72.375)"/><path d="m0 216.75h36" stroke="#000" stroke-linecap="round" stroke-linejoin="round" stroke-width=".75" transform="matrix(0 -1 1 0 -40.875 72.375)"/><path d="m0 216.75h36" stroke="#000" stroke-linecap="round" stroke-linejoin="round" stroke-width=".75" transform="matrix(.8660254 -.5 .5 .8660254 4.5 -151.336)"/><path d="m0 216.75h36" stroke="#000" stroke-linecap="round" stroke-linejoin="round" stroke-width=".75" transform="matrix(.8660254 .5 -.5 .8660254 253.073 -169.336)"/><path d="m0 216.75h36" stroke="#000" stroke-linecap="round" stroke-linejoin="round" stroke-width=".75" transform="matrix(-.8660254 .5 -.5 -.8660254 284.25 260.086)"/><path d="m0 216.75h36" stroke="#000" stroke-linecap="round" stroke-linejoin="round" stroke-width=".75" transform="matrix(-.8660254 -.5 .5 -.8660254 35.677 278.086)"/><path d="m0 210v-13.5l11.69-6.75 11.94 6.75v13.5l-11.94 6.75z" style="fill:#00b050;fill-opacity:.5;stroke:#00b050;stroke-linecap:round;stroke-linejoin:round;stroke-width:2.5" transform="translate(69.5625 -40.875)"/><g transform="translate(69.5625 -40.875)"><path d="m0 189.75h23.625v27h-23.625z" fill="none"/><text fill="#000" font-family="Calibri" font-size="1.00001em" x="8.77" y="206.85">1</text></g><path d="m0 210v-13.5l11.69-6.75 11.94 6.75v13.5l-11.94 6.75z" style="fill:#00b050;fill-opacity:.5;stroke:#00b050;stroke-linecap:round;stroke-linejoin:round;stroke-width:2.5" transform="translate(162.375 -94.875)"/><g transform="translate(162.375 -94.875)"><path d="m0 189.75h23.625v27h-23.625z" fill="none"/><text fill="#000" font-family="Calibri" font-size="1.00001em" x="8.77" y="206.85">1</text></g><path d="m0 210v-13.5l11.69-6.75 11.94 6.75v13.5l-11.94 6.75z" style="fill:#00b050;fill-opacity:.5;stroke:#00b050;stroke-linecap:round;stroke-linejoin:round;stroke-width:2.5" transform="translate(135.375 -144.375)"/><g transform="translate(135.375 -144.375)"><path d="m0 189.75h23.625v27h-23.625z" fill="none"/><text fill="#000" font-family="Calibri" font-size="1.00001em" x="8.77" y="206.85">1</text></g><path d="m0 210v-13.5l11.69-6.75 11.94 6.75v13.5l-11.94 6.75z" style="fill:#00b050;fill-opacity:.5;stroke:#00b050;stroke-linecap:round;stroke-linejoin:round;stroke-width:2.5" transform="translate(38.0625 -108.375)"/><g transform="translate(38.0625 -108.375)"><path d="m0 189.75h23.625v27h-23.625z" fill="none"/><text fill="#000" font-family="Calibri" font-size="1.00001em" x="8.77" y="206.85">1</text></g><path d="m0 210v-13.5l11.69-6.75 11.94 6.75v13.5l-11.94 6.75z" style="fill:#00b050;fill-opacity:.5;stroke:#00b050;stroke-linecap:round;stroke-linejoin:round;stroke-width:2.5" transform="translate(101.063 -85.875)"/><g transform="translate(101.062 -85.875)"><path d="m0 189.75h23.625v27h-23.625z" fill="none"/><text fill="#000" font-family="Calibri" font-size="1.00001em" x="8.77" y="206.85">1</text></g><g stroke-linecap="round" stroke-linejoin="round"><path d="m0 216.75h80.17" stroke="#00b050" stroke-width="2.5" transform="matrix(.8630149 -.50517847 .50517847 .8630149 -16.3101 -31.4334)"/><path d="m0 216.75h32.97" stroke="#00b050" stroke-width="2.5" transform="matrix(-.45596436 -.88999804 .88999804 -.45596436 -25.4166 197.504)"/><path d="m0 216.75h82.01" stroke="#00b050" stroke-width="2.5" transform="matrix(-.89850311 .43896715 -.43896715 -.89850311 230.52 253.626)"/><path d="m0 216.75h40.39" stroke="#00b050" stroke-width="2.5" transform="matrix(.97485851 .22282477 -.22282477 .97485851 109.985 -109.676)"/><path d="m0 216.75h36" stroke="#000" stroke-width=".75" transform="matrix(0 -1 1 0 62.625 180.375)"/><path d="m0 216.75h36" stroke="#000" stroke-width=".75" transform="matrix(0 -1 1 0 125.625 180.375)"/><path d="m0 216.75h36" stroke="#000" stroke-width=".75" transform="matrix(.8660254 -.5 .5 .8660254 171 -43.336)"/><path d="m0 216.75h36" stroke="#000" stroke-width=".75" transform="matrix(.8660254 .5 -.5 .8660254 419.573 -61.336)"/><path d="m0 216.75h36" stroke="#000" stroke-width=".75" transform="matrix(-.8660254 .5 -.5 -.8660254 450.75 368.086)"/><path d="m0 216.75h36" stroke="#000" stroke-width=".75" transform="matrix(-.8660254 -.5 .5 -.8660254 202.177 386.086)"/><path d="m0 216.75h36" stroke="#000" stroke-width=".75" transform="matrix(0 -1 1 0 31.125 126.375)"/><path d="m0 216.75h36" stroke="#000" stroke-width=".75" transform="matrix(0 -1 1 0 94.125 126.375)"/><path d="m0 216.75h36" stroke="#000" stroke-width=".75" transform="matrix(.8660254 -.5 .5 .8660254 139.5 -97.336)"/><path d="m0 216.75h36" stroke="#000" stroke-width=".75" transform="matrix(.8660254 .5 -.5 .8660254 388.073 -115.336)"/><path d="m0 216.75h36" stroke="#000" stroke-width=".75" transform="matrix(-.8660254 .5 -.5 -.8660254 419.25 314.086)"/><path d="m0 216.75h36" stroke="#000" stroke-width=".75" transform="matrix(-.8660254 -.5 .5 -.8660254 170.677 332.086)"/><path d="m0 216.75h36" stroke="#000" stroke-width=".75" transform="matrix(0 -1 1 0 94.125 126.375)"/><path d="m0 216.75h36" stroke="#000" stroke-width=".75" transform="matrix(0 -1 1 0 157.125 126.375)"/><path d="m0 216.75h36" stroke="#000" stroke-width=".75" transform="matrix(.8660254 -.5 .5 .8660254 202.5 -97.336)"/><path d="m0 216.75h36" stroke="#000" stroke-width=".75" transform="matrix(.8660254 .5 -.5 .8660254 451.073 -115.336)"/><path d="m0 216.75h36" stroke="#000" stroke-width=".75" transform="matrix(-.8660254 .5 -.5 -.8660254 482.25 314.086)"/><path d="m0 216.75h36" stroke="#000" stroke-width=".75" transform="matrix(-.8660254 -.5 .5 -.8660254 233.677 332.086)"/><path d="m0 216.75h36" stroke="#000" stroke-width=".75" transform="matrix(0 -1 1 0 62.625 72.375)"/><path d="m0 216.75h36" stroke="#000" stroke-width=".75" transform="matrix(0 -1 1 0 125.625 72.375)"/><path d="m0 216.75h36" stroke="#000" stroke-width=".75" transform="matrix(.8660254 -.5 .5 .8660254 171 -151.336)"/><path d="m0 216.75h36" stroke="#000" stroke-width=".75" transform="matrix(.8660254 .5 -.5 .8660254 419.573 -169.336)"/><path d="m0 216.75h36" stroke="#000" stroke-width=".75" transform="matrix(-.8660254 .5 -.5 -.8660254 450.75 260.086)"/><path d="m0 216.75h36" stroke="#000" stroke-width=".75" transform="matrix(-.8660254 -.5 .5 -.8660254 202.177 278.086)"/><path d="m0 216.75h36" stroke="#000" stroke-width=".75" transform="matrix(0 -1 1 0 125.625 180.375)"/><path d="m0 216.75h36" stroke="#000" stroke-width=".75" transform="matrix(0 -1 1 0 188.625 180.375)"/><path d="m0 216.75h36" stroke="#000" stroke-width=".75" transform="matrix(.8660254 -.5 .5 .8660254 234 -43.336)"/><path d="m0 216.75h36" stroke="#000" stroke-width=".75" transform="matrix(.8660254 .5 -.5 .8660254 482.573 -61.336)"/><path d="m0 216.75h36" stroke="#000" stroke-width=".75" transform="matrix(-.8660254 .5 -.5 -.8660254 513.75 368.086)"/><path d="m0 216.75h36" stroke="#000" stroke-width=".75" transform="matrix(-.8660254 -.5 .5 -.8660254 265.177 386.086)"/><path d="m0 216.75h36" stroke="#000" stroke-width=".75" transform="matrix(0 -1 1 0 157.125 126.375)"/><path d="m0 216.75h36" stroke="#000" stroke-width=".75" transform="matrix(0 -1 1 0 220.125 126.375)"/><path d="m0 216.75h36" stroke="#000" stroke-width=".75" transform="matrix(.8660254 -.5 .5 .8660254 265.5 -97.336)"/><path d="m0 216.75h36" stroke="#000" stroke-width=".75" transform="matrix(.8660254 .5 -.5 .8660254 514.073 -115.336)"/><path d="m0 216.75h36" stroke="#000" stroke-width=".75" transform="matrix(-.8660254 .5 -.5 -.8660254 545.25 314.086)"/><path d="m0 216.75h36" stroke="#000" stroke-width=".75" transform="matrix(-.8660254 -.5 .5 -.8660254 296.677 332.086)"/><path d="m0 216.75h36" stroke="#000" stroke-width=".75" transform="matrix(0 -1 1 0 125.625 72.375)"/><path d="m0 216.75h36" stroke="#000" stroke-width=".75" transform="matrix(0 -1 1 0 188.625 72.375)"/><path d="m0 216.75h36" stroke="#000" stroke-width=".75" transform="matrix(.8660254 -.5 .5 .8660254 234 -151.336)"/><path d="m0 216.75h36" stroke="#000" stroke-width=".75" transform="matrix(.8660254 .5 -.5 .8660254 482.573 -169.336)"/><path d="m0 216.75h36" stroke="#000" stroke-width=".75" transform="matrix(-.8660254 .5 -.5 -.8660254 513.75 260.086)"/><path d="m0 216.75h36" stroke="#000" stroke-width=".75" transform="matrix(-.8660254 -.5 .5 -.8660254 265.177 278.086)"/><path d="m0 210v-13.5l11.69-6.75 11.94 6.75v13.5l-11.94 6.75z" fill="#00b050" fill-opacity=".5" stroke="#00b050" stroke-width="2.5" transform="translate(299.062 -40.875)"/></g><g transform="translate(299.062 -40.875)"><path d="m0 189.75h23.625v27h-23.625z" fill="none"/><text fill="#000" font-family="Calibri" font-size="1.00001em" x="5.73" y="206.85">20</text></g><path d="m0 210v-13.5l11.69-6.75 11.94 6.75v13.5l-11.94 6.75z" style="fill:#00b050;fill-opacity:.5;stroke:#00b050;stroke-linecap:round;stroke-linejoin:round;stroke-width:2.5" transform="translate(391.875 -94.875)"/><g transform="translate(391.875 -94.875)"><path d="m0 189.75h23.625v27h-23.625z" fill="none"/><text fill="#000" font-family="Calibri" font-size="1.00001em" x="5.73" y="206.85">20</text></g><path d="m0 210v-13.5l11.69-6.75 11.94 6.75v13.5l-11.94 6.75z" style="fill:#00b050;fill-opacity:.5;stroke:#00b050;stroke-linecap:round;stroke-linejoin:round;stroke-width:2.5" transform="translate(364.875 -144.375)"/><g transform="translate(364.875 -144.375)"><path d="m0 189.75h23.625v27h-23.625z" fill="none"/><text fill="#000" font-family="Calibri" font-size="1.00001em" x="5.73" y="206.85">20</text></g><path d="m0 210v-13.5l11.69-6.75 11.94 6.75v13.5l-11.94 6.75z" style="fill:#00b050;fill-opacity:.5;stroke:#00b050;stroke-linecap:round;stroke-linejoin:round;stroke-width:2.5" transform="translate(267.563 -108.375)"/><g transform="translate(267.563 -108.375)"><path d="m0 189.75h23.625v27h-23.625z" fill="none"/><text fill="#000" font-family="Calibri" font-size="1.00001em" x="5.73" y="206.85">20</text></g><path d="m0 210v-13.5l11.69-6.75 11.94 6.75v13.5l-11.94 6.75z" style="fill:#00b050;fill-opacity:.5;stroke:#00b050;stroke-linecap:round;stroke-linejoin:round;stroke-width:2.5" transform="translate(330.563 -85.875)"/><g transform="translate(330.563 -85.875)"><path d="m0 189.75h23.625v27h-23.625z" fill="none"/><text fill="#000" font-family="Calibri" font-size="1.00001em" x="5.73" y="206.85">20</text></g><path d="m0 216.75h80.17" stroke="#00b050" stroke-linecap="round" stroke-linejoin="round" stroke-width="2.5" transform="matrix(.8630149 -.50517847 .50517847 .8630149 213.19 -31.4334)"/><path d="m0 216.75h32.97" stroke="#00b050" stroke-linecap="round" stroke-linejoin="round" stroke-width="2.5" transform="matrix(-.45596436 -.88999804 .88999804 -.45596436 204.083 197.504)"/><path d="m0 216.75h82.01" stroke="#00b050" stroke-linecap="round" stroke-linejoin="round" stroke-width="2.5" transform="matrix(-.89850311 .43896715 -.43896715 -.89850311 460.02 253.626)"/><path d="m0 216.75h40.39" stroke="#00b050" stroke-linecap="round" stroke-linejoin="round" stroke-width="2.5" transform="matrix(.97485851 .22282477 -.22282477 .97485851 339.485 -109.676)"/></svg>