<?xml version="1.0" encoding="UTF-8" standalone="no"?>
<!DOCTYPE svg PUBLIC "-//W3C//DTD SVG 1.1//EN" "http://www.w3.org/Graphics/SVG/1.1/DTD/svg11.dtd">
<!-- Generated by Microsoft Visio, SVG Export example_7_hex.svg Page-1 -->
<svg xmlns="http://www.w3.org/2000/svg" xmlns:xlink="http://www.w3.org/1999/xlink" xmlns:ev="http://www.w3.org/2001/xml-events"
		xmlns:v="http://schemas.microsoft.com/visio/2003/SVGExtensions/" width="3.13542in" height="3.01042in"
		viewBox="0 0 225.75 216.75" xml:space="preserve" color-interpolation-filters="sRGB" class="st7">
	<v:documentProperties v:langID="1033" v:viewMarkup="false">
		<v:userDefs>
			<v:ud v:nameU="msvNoAutoConnect" v:val="VT0(1):26"/>
		</v:userDefs>
	</v:documentProperties>

	<style type="text/css">
	<![CDATA[
		.st1 {fill:#d8d8d8;stroke:#000000;stroke-linecap:round;stroke-linejoin:round;stroke-width:0.75}
		.st2 {stroke:#ff0000;stroke-linecap:round;stroke-linejoin:round;stroke-width:1}
		.st3 {fill:none;stroke:none;stroke-linecap:round;stroke-linejoin:round;stroke-width:0.75}
		.st4 {fill:#ff0000;font-family:Calibri;font-size:1.5em}
		.st5 {fill:#000000;font-size:1em}
		.st6 {fill:#000000;font-family:Calibri;font-size:1.5em}
		.st7 {fill:none;fill-rule:evenodd;font-size:12px;overflow:visible;stroke-linecap:square;stroke-miterlimit:3}
	]]>
	</style>
	<rect width="100%" height="100%" fill="white" />
	<g v:mID="0" v:index="1" v:groupContext="foregroundPage">
		<title>Page-1</title>
		<v:pageProperties v:drawingScale="1" v:pageScale="1" v:drawingUnits="19" v:shadowOffsetX="9" v:shadowOffsetY="-9"/>
		<v:layer v:name="Connector" v:index="0"/>
		<g id="shape188-1" v:mID="188" v:groupContext="shape" transform="translate(18,-72)">
			<title>Sheet.188</title>
			<path d="M0 198.75 L0 162.75 L31.18 144.75 L63 162.75 L63 198.75 L31.18 216.75 L0 198.75 Z" class="st1"/>
		</g>
		<g id="shape189-3" v:mID="189" v:groupContext="shape" transform="translate(81,-72)">
			<title>Sheet.189</title>
			<path d="M0 198.75 L0 162.75 L31.18 144.75 L63 162.75 L63 198.75 L31.18 216.75 L0 198.75 Z" class="st1"/>
		</g>
		<g id="shape190-5" v:mID="190" v:groupContext="shape" transform="translate(144,-72)">
			<title>Sheet.190</title>
			<path d="M0 198.75 L0 162.75 L31.18 144.75 L63 162.75 L63 198.75 L31.18 216.75 L0 198.75 Z" class="st1"/>
		</g>
		<g id="shape191-7" v:mID="191" v:groupContext="shape" transform="translate(49.5,-126)">
			<title>Sheet.191</title>
			<path d="M0 198.75 L0 162.75 L31.18 144.75 L63 162.75 L63 198.75 L31.18 216.75 L0 198.75 Z" class="st1"/>
		</g>
		<g id="shape192-9" v:mID="192" v:groupContext="shape" transform="translate(112.5,-126)">
			<title>Sheet.192</title>
			<path d="M0 198.75 L0 162.75 L31.18 144.75 L63 162.75 L63 198.75 L31.18 216.75 L0 198.75 Z" class="st1"/>
		</g>
		<g id="shape193-11" v:mID="193" v:groupContext="shape" transform="translate(49.5,-18)">
			<title>Sheet.193</title>
			<path d="M0 198.75 L0 162.75 L31.18 144.75 L63 162.75 L63 198.75 L31.18 216.75 L0 198.75 Z" class="st1"/>
		</g>
		<g id="shape194-13" v:mID="194" v:groupContext="shape" transform="translate(112.5,-18)">
			<title>Sheet.194</title>
			<path d="M0 198.75 L0 162.75 L31.18 144.75 L63 162.75 L63 198.75 L31.18 216.75 L0 198.75 Z" class="st1"/>
		</g>
		<g id="shape195-15" v:mID="195" v:groupContext="shape" transform="translate(-152.192,7.96189) rotate(-60.2551)">
			<title>Sheet.195</title>
			<path d="M0 216.75 L18.14 216.75" class="st2"/>
		</g>
		<g id="shape196-18" v:mID="196" v:groupContext="shape" transform="translate(18,-90)">
			<title>Sheet.196</title>
			<desc>5 4</desc>
			<v:textBlock v:margins="rect(4,4,4,4)"/>
			<v:textRect cx="31.5" cy="198.75" width="63" height="36"/>
			<rect x="0" y="180.75" width="63" height="36" class="st3"/>
			<text x="18.31" y="204.15" class="st4" v:langID="1033"><v:paragraph v:horizAlign="1"/><v:tabList/>5<tspan class="st5">  </tspan><tspan
						class="st5">4</tspan></text>		</g>
		<g id="shape197-23" v:mID="197" v:groupContext="shape" transform="translate(112.5,-36)">
			<title>Sheet.197</title>
			<desc>1</desc>
			<v:textBlock v:margins="rect(4,4,4,4)"/>
			<v:textRect cx="31.5" cy="198.75" width="63" height="36"/>
			<rect x="0" y="180.75" width="63" height="36" class="st3"/>
			<text x="26.94" y="204.15" class="st6" v:langID="1033"><v:paragraph v:horizAlign="1"/><v:tabList/>1</text>		</g>
		<g id="shape198-26" v:mID="198" v:groupContext="shape" transform="translate(112.5,-144)">
			<title>Sheet.198</title>
			<desc>4</desc>
			<v:textBlock v:margins="rect(4,4,4,4)"/>
			<v:textRect cx="31.5" cy="198.75" width="63" height="36"/>
			<rect x="0" y="180.75" width="63" height="36" class="st3"/>
			<text x="26.94" y="204.15" class="st6" v:langID="1033"><v:paragraph v:horizAlign="1"/><v:tabList/>4</text>		</g>
		<g id="shape199-29" v:mID="199" v:groupContext="shape" transform="translate(81,-90)">
			<title>Sheet.199</title>
			<rect x="0" y="180.75" width="63" height="36" class="st3"/>
		</g>
		<g id="shape200-31" v:mID="200" v:groupContext="shape" transform="translate(49.5,-144)">
			<title>Sheet.200</title>
			<desc>1</desc>
			<v:textBlock v:margins="rect(4,4,4,4)"/>
			<v:textRect cx="31.5" cy="198.75" width="63" height="36"/>
			<rect x="0" y="180.75" width="63" height="36" class="st3"/>
			<text x="26.94" y="204.15" class="st6" v:langID="1033"><v:paragraph v:horizAlign="1"/><v:tabList/>1</text>		</g>
		<g id="shape201-34" v:mID="201" v:groupContext="shape" transform="translate(144,-90)">
			<title>Sheet.201</title>
			<desc>2</desc>
			<v:textBlock v:margins="rect(4,4,4,4)"/>
			<v:textRect cx="31.5" cy="198.75" width="63" height="36"/>
			<rect x="0" y="180.75" width="63" height="36" class="st3"/>
			<text x="26.94" y="204.15" class="st6" v:langID="1033"><v:paragraph v:horizAlign="1"/><v:tabList/>2</text>		</g>
		<g id="shape202-37" v:mID="202" v:groupContext="shape" transform="translate(81,-90)">
			<title>Sheet.202</title>
			<desc>2</desc>
			<v:textBlock v:margins="rect(4,4,4,4)"/>
			<v:textRect cx="31.5" cy="198.75" width="63" height="36"/>
			<rect x="0" y="180.75" width="63" height="36" class="st3"/>
			<text x="26.94" y="204.15" class="st6" v:langID="1033"><v:paragraph v:horizAlign="1"/><v:tabList/>2</text>		</g>
		<g id="shape203-40" v:mID="203" v:groupContext="shape" transform="translate(49.5,-36)">
			<title>Sheet.203</title>
			<desc>2</desc>
			<v:textBlock v:margins="rect(4,4,4,4)"/>
			<v:textRect cx="31.5" cy="198.75" width="63" height="36"/>
			<rect x="0" y="180.75" width="63" height="36" class="st3"/>
			<text x="26.94" y="204.15" class="st6" v:langID="1033"><v:paragraph v:horizAlign="1"/><v:tabList/>2</text>		</g>
	</g>
</svg>
