<?xml version="1.0" encoding="UTF-8" standalone="no"?>
<!DOCTYPE svg PUBLIC "-//W3C//DTD SVG 1.1//EN" "http://www.w3.org/Graphics/SVG/1.1/DTD/svg11.dtd">
<!-- Generated by Microsoft Visio, SVG Export example_1_hex.svg Page-1 -->
<svg xmlns="http://www.w3.org/2000/svg" xmlns:xlink="http://www.w3.org/1999/xlink" xmlns:ev="http://www.w3.org/2001/xml-events"
		xmlns:v="http://schemas.microsoft.com/visio/2003/SVGExtensions/" width="3.13542in" height="3.01042in"
		viewBox="0 0 225.75 216.75" xml:space="preserve" color-interpolation-filters="sRGB" class="st10">
	<v:documentProperties v:langID="1033" v:viewMarkup="false">
		<v:userDefs>
			<v:ud v:nameU="msvNoAutoConnect" v:val="VT0(1):26"/>
		</v:userDefs>
	</v:documentProperties>

	<style type="text/css">
	<![CDATA[
		.st1 {fill:#d8d8d8;stroke:#000000;stroke-linecap:round;stroke-linejoin:round;stroke-width:0.75}
		.st2 {stroke:#ff0000;stroke-linecap:round;stroke-linejoin:round;stroke-width:1}
		.st3 {fill:none;stroke:#000000;stroke-linecap:round;stroke-linejoin:round;stroke-width:0.75}
		.st4 {fill:#ffffff;stroke:none;stroke-linecap:butt;stroke-width:7.2}
		.st5 {fill:#000000;font-family:Calibri;font-size:1.5em}
		.st6 {fill:#ffffff;stroke:none;stroke-linecap:butt}
		.st7 {fill:none;stroke:none;stroke-linecap:round;stroke-linejoin:round;stroke-width:0.75}
		.st8 {fill:#ff0000;font-family:Calibri;font-size:1.5em}
		.st9 {fill:#000000;font-size:1em}
		.st10 {fill:none;fill-rule:evenodd;font-size:12px;overflow:visible;stroke-linecap:square;stroke-miterlimit:3}
	]]>
	</style>
	<rect width="100%" height="100%" fill="white" />
	<g v:mID="0" v:index="1" v:groupContext="foregroundPage">
		<title>Page-1</title>
		<v:pageProperties v:drawingScale="1" v:pageScale="1" v:drawingUnits="19" v:shadowOffsetX="9" v:shadowOffsetY="-9"/>
		<v:layer v:name="Connector" v:index="0"/>
		<g id="shape155-1" v:mID="155" v:groupContext="shape" transform="translate(18.375,-72.375)">
			<title>Sheet.155</title>
			<path d="M0 198.75 L0 162.75 L31.18 144.75 L63 162.75 L63 198.75 L31.18 216.75 L0 198.75 Z" class="st1"/>
		</g>
		<g id="shape156-3" v:mID="156" v:groupContext="shape" transform="translate(-151.817,7.58689) rotate(-60.2551)">
			<title>Sheet.156</title>
			<path d="M0 216.75 L18.14 216.75" class="st2"/>
		</g>
		<g id="shape157-6" v:mID="157" v:groupContext="shape" transform="translate(81.375,-72.375)">
			<title>Sheet.157</title>
			<desc>0</desc>
			<v:textBlock v:margins="rect(4,4,4,4)"/>
			<v:textRect cx="31.5" cy="180.75" width="63" height="72"/>
			<path d="M0 198.75 L0 162.75 L31.18 144.75 L63 162.75 L63 198.75 L31.18 216.75 L0 198.75 Z" class="st3"/>
			<rect v:rectContext="textBkgnd" x="26.9385" y="169.95" width="9.12305" height="21.5999" class="st4"/>
			<text x="26.94" y="186.15" class="st5" v:langID="1033"><v:paragraph v:horizAlign="1"/><v:tabList/>0</text>		</g>
		<g id="shape158-10" v:mID="158" v:groupContext="shape" transform="translate(144.375,-72.375)">
			<title>Sheet.158</title>
			<desc>0</desc>
			<v:textBlock v:margins="rect(4,4,4,4)"/>
			<v:textRect cx="31.5" cy="180.75" width="63" height="72"/>
			<path d="M0 198.75 L0 162.75 L31.18 144.75 L63 162.75 L63 198.75 L31.18 216.75 L0 198.75 Z" class="st3"/>
			<rect v:rectContext="textBkgnd" x="26.9385" y="169.95" width="9.12305" height="21.5999" class="st4"/>
			<text x="26.94" y="186.15" class="st5" v:langID="1033"><v:paragraph v:horizAlign="1"/><v:tabList/>0</text>		</g>
		<g id="shape159-14" v:mID="159" v:groupContext="shape" transform="translate(49.875,-126.375)">
			<title>Sheet.159</title>
			<desc>0</desc>
			<v:textBlock v:margins="rect(4,4,4,4)"/>
			<v:textRect cx="31.5" cy="180.75" width="63" height="72"/>
			<path d="M0 198.75 L0 162.75 L31.18 144.75 L63 162.75 L63 198.75 L31.18 216.75 L0 198.75 Z" class="st3"/>
			<rect v:rectContext="textBkgnd" x="26.9385" y="169.95" width="9.12305" height="21.5999" class="st6"/>
			<text x="26.94" y="186.15" class="st5" v:langID="1033"><v:paragraph v:horizAlign="1"/><v:tabList/>0</text>		</g>
		<g id="shape160-18" v:mID="160" v:groupContext="shape" transform="translate(112.875,-126.375)">
			<title>Sheet.160</title>
			<desc>0</desc>
			<v:textBlock v:margins="rect(4,4,4,4)"/>
			<v:textRect cx="31.5" cy="180.75" width="63" height="72"/>
			<path d="M0 198.75 L0 162.75 L31.18 144.75 L63 162.75 L63 198.75 L31.18 216.75 L0 198.75 Z" class="st3"/>
			<rect v:rectContext="textBkgnd" x="26.9385" y="169.95" width="9.12305" height="21.5999" class="st4"/>
			<text x="26.94" y="186.15" class="st5" v:langID="1033"><v:paragraph v:horizAlign="1"/><v:tabList/>0</text>		</g>
		<g id="shape161-22" v:mID="161" v:groupContext="shape" transform="translate(49.875,-18.375)">
			<title>Sheet.161</title>
			<desc>0</desc>
			<v:textBlock v:margins="rect(4,4,4,4)"/>
			<v:textRect cx="31.5" cy="180.75" width="63" height="72"/>
			<path d="M0 198.75 L0 162.75 L31.18 144.75 L63 162.75 L63 198.75 L31.18 216.75 L0 198.75 Z" class="st3"/>
			<rect v:rectContext="textBkgnd" x="26.9385" y="169.95" width="9.12305" height="21.5999" class="st4"/>
			<text x="26.94" y="186.15" class="st5" v:langID="1033"><v:paragraph v:horizAlign="1"/><v:tabList/>0</text>		</g>
		<g id="shape162-26" v:mID="162" v:groupContext="shape" transform="translate(112.875,-18.375)">
			<title>Sheet.162</title>
			<desc>0</desc>
			<v:textBlock v:margins="rect(4,4,4,4)"/>
			<v:textRect cx="31.5" cy="180.75" width="63" height="72"/>
			<path d="M0 198.75 L0 162.75 L31.18 144.75 L63 162.75 L63 198.75 L31.18 216.75 L0 198.75 Z" class="st3"/>
			<rect v:rectContext="textBkgnd" x="26.9385" y="169.95" width="9.12305" height="21.5999" class="st4"/>
			<text x="26.94" y="186.15" class="st5" v:langID="1033"><v:paragraph v:horizAlign="1"/><v:tabList/>0</text>		</g>
		<g id="shape163-30" v:mID="163" v:groupContext="shape" transform="translate(18.375,-90.375)">
			<title>Sheet.163</title>
			<desc>5 1</desc>
			<v:textBlock v:margins="rect(4,4,4,4)"/>
			<v:textRect cx="31.5" cy="198.75" width="63" height="36"/>
			<rect x="0" y="180.75" width="63" height="36" class="st7"/>
			<text x="18.31" y="204.15" class="st8" v:langID="1033"><v:paragraph v:horizAlign="1"/><v:tabList/>5<tspan class="st9">  </tspan><tspan
						class="st9">1</tspan></text>		</g>
	</g>
</svg>
