<?xml version="1.0" encoding="UTF-8" standalone="no"?>
<!DOCTYPE svg PUBLIC "-//W3C//DTD SVG 1.1//EN" "http://www.w3.org/Graphics/SVG/1.1/DTD/svg11.dtd">
<!-- Generated by Microsoft Visio, SVG Export example_3_hex.svg Page-1 -->
<svg xmlns="http://www.w3.org/2000/svg" xmlns:xlink="http://www.w3.org/1999/xlink" xmlns:ev="http://www.w3.org/2001/xml-events"
		xmlns:v="http://schemas.microsoft.com/visio/2003/SVGExtensions/" width="3.13542in" height="3.01042in"
		viewBox="0 0 225.75 216.75" xml:space="preserve" color-interpolation-filters="sRGB" class="st10">
	<v:documentProperties v:langID="1033" v:viewMarkup="false">
		<v:userDefs>
			<v:ud v:nameU="msvNoAutoConnect" v:val="VT0(1):26"/>
		</v:userDefs>
	</v:documentProperties>

	<style type="text/css">
	<![CDATA[
		.st1 {fill:#d8d8d8;stroke:#000000;stroke-linecap:round;stroke-linejoin:round;stroke-width:0.75}
		.st2 {fill:none;stroke:#000000;stroke-linecap:round;stroke-linejoin:round;stroke-width:0.75}
		.st3 {fill:#ffffff;stroke:none;stroke-linecap:butt}
		.st4 {fill:#000000;font-family:Calibri;font-size:1.5em}
		.st5 {fill:#ffffff;stroke:none;stroke-linecap:butt;stroke-width:7.2}
		.st6 {stroke:#ff0000;stroke-linecap:round;stroke-linejoin:round;stroke-width:1}
		.st7 {fill:none;stroke:none;stroke-linecap:round;stroke-linejoin:round;stroke-width:0.75}
		.st8 {fill:#ff0000;font-family:Calibri;font-size:1.5em}
		.st9 {fill:#000000;font-size:1em}
		.st10 {fill:none;fill-rule:evenodd;font-size:12px;overflow:visible;stroke-linecap:square;stroke-miterlimit:3}
	]]>
	</style>
	<rect width="100%" height="100%" fill="white" />
	<g v:mID="0" v:index="1" v:groupContext="foregroundPage">
		<title>Page-1</title>
		<v:pageProperties v:drawingScale="1" v:pageScale="1" v:drawingUnits="19" v:shadowOffsetX="9" v:shadowOffsetY="-9"/>
		<v:layer v:name="Connector" v:index="0"/>
		<g id="shape175-1" v:mID="175" v:groupContext="shape" transform="translate(18.75,-72)">
			<title>Sheet.175</title>
			<path d="M0 198.75 L0 162.75 L31.18 144.75 L63 162.75 L63 198.75 L31.18 216.75 L0 198.75 Z" class="st1"/>
		</g>
		<g id="shape176-3" v:mID="176" v:groupContext="shape" transform="translate(81.75,-72)">
			<title>Sheet.176</title>
			<desc>0</desc>
			<v:textBlock v:margins="rect(4,4,4,4)"/>
			<v:textRect cx="31.5" cy="180.75" width="63" height="72"/>
			<path d="M0 198.75 L0 162.75 L31.18 144.75 L63 162.75 L63 198.75 L31.18 216.75 L0 198.75 Z" class="st2"/>
			<rect v:rectContext="textBkgnd" x="26.9385" y="169.95" width="9.12305" height="21.5999" class="st3"/>
			<text x="26.94" y="186.15" class="st4" v:langID="1033"><v:paragraph v:horizAlign="1"/><v:tabList/>0</text>		</g>
		<g id="shape177-7" v:mID="177" v:groupContext="shape" transform="translate(144.75,-72)">
			<title>Sheet.177</title>
			<desc>0</desc>
			<v:textBlock v:margins="rect(4,4,4,4)"/>
			<v:textRect cx="31.5" cy="180.75" width="63" height="72"/>
			<path d="M0 198.75 L0 162.75 L31.18 144.75 L63 162.75 L63 198.75 L31.18 216.75 L0 198.75 Z" class="st2"/>
			<rect v:rectContext="textBkgnd" x="26.9385" y="169.95" width="9.12305" height="21.5999" class="st5"/>
			<text x="26.94" y="186.15" class="st4" v:langID="1033"><v:paragraph v:horizAlign="1"/><v:tabList/>0</text>		</g>
		<g id="shape178-11" v:mID="178" v:groupContext="shape" transform="translate(50.25,-126)">
			<title>Sheet.178</title>
			<desc>0</desc>
			<v:textBlock v:margins="rect(4,4,4,4)"/>
			<v:textRect cx="31.5" cy="180.75" width="63" height="72"/>
			<path d="M0 198.75 L0 162.75 L31.18 144.75 L63 162.75 L63 198.75 L31.18 216.75 L0 198.75 Z" class="st2"/>
			<rect v:rectContext="textBkgnd" x="26.9385" y="169.95" width="9.12305" height="21.5999" class="st5"/>
			<text x="26.94" y="186.15" class="st4" v:langID="1033"><v:paragraph v:horizAlign="1"/><v:tabList/>0</text>		</g>
		<g id="shape179-15" v:mID="179" v:groupContext="shape" transform="translate(113.25,-126)">
			<title>Sheet.179</title>
			<path d="M0 198.75 L0 162.75 L31.18 144.75 L63 162.75 L63 198.75 L31.18 216.75 L0 198.75 Z" class="st1"/>
		</g>
		<g id="shape180-17" v:mID="180" v:groupContext="shape" transform="translate(50.25,-18)">
			<title>Sheet.180</title>
			<desc>0</desc>
			<v:textBlock v:margins="rect(4,4,4,4)"/>
			<v:textRect cx="31.5" cy="180.75" width="63" height="72"/>
			<path d="M0 198.75 L0 162.75 L31.18 144.75 L63 162.75 L63 198.75 L31.18 216.75 L0 198.75 Z" class="st2"/>
			<rect v:rectContext="textBkgnd" x="26.9385" y="169.95" width="9.12305" height="21.5999" class="st5"/>
			<text x="26.94" y="186.15" class="st4" v:langID="1033"><v:paragraph v:horizAlign="1"/><v:tabList/>0</text>		</g>
		<g id="shape181-21" v:mID="181" v:groupContext="shape" transform="translate(113.25,-18)">
			<title>Sheet.181</title>
			<path d="M0 198.75 L0 162.75 L31.18 144.75 L63 162.75 L63 198.75 L31.18 216.75 L0 198.75 Z" class="st1"/>
		</g>
		<g id="shape182-23" v:mID="182" v:groupContext="shape" transform="translate(-151.442,7.96189) rotate(-60.2551)">
			<title>Sheet.182</title>
			<path d="M0 216.75 L18.14 216.75" class="st6"/>
		</g>
		<g id="shape183-26" v:mID="183" v:groupContext="shape" transform="translate(18.75,-90)">
			<title>Sheet.183</title>
			<desc>5 2</desc>
			<v:textBlock v:margins="rect(4,4,4,4)"/>
			<v:textRect cx="31.5" cy="198.75" width="63" height="36"/>
			<rect x="0" y="180.75" width="63" height="36" class="st7"/>
			<text x="18.31" y="204.15" class="st8" v:langID="1033"><v:paragraph v:horizAlign="1"/><v:tabList/>5<tspan class="st9">  </tspan><tspan
						class="st9">2</tspan></text>		</g>
		<g id="shape184-31" v:mID="184" v:groupContext="shape" transform="translate(113.25,-36)">
			<title>Sheet.184</title>
			<desc>1</desc>
			<v:textBlock v:margins="rect(4,4,4,4)"/>
			<v:textRect cx="31.5" cy="198.75" width="63" height="36"/>
			<rect x="0" y="180.75" width="63" height="36" class="st7"/>
			<text x="26.94" y="204.15" class="st4" v:langID="1033"><v:paragraph v:horizAlign="1"/><v:tabList/>1</text>		</g>
		<g id="shape185-34" v:mID="185" v:groupContext="shape" transform="translate(-56.9417,-46.0381) rotate(-60.2551)">
			<title>Sheet.185</title>
			<path d="M0 216.75 L18.14 216.75" class="st6"/>
		</g>
		<g id="shape186-37" v:mID="186" v:groupContext="shape" transform="translate(113.25,-144)">
			<title>Sheet.186</title>
			<desc>4 2</desc>
			<v:textBlock v:margins="rect(4,4,4,4)"/>
			<v:textRect cx="31.5" cy="198.75" width="63" height="36"/>
			<rect x="0" y="180.75" width="63" height="36" class="st7"/>
			<text x="18.31" y="204.15" class="st8" v:langID="1033"><v:paragraph v:horizAlign="1"/><v:tabList/>4<tspan class="st9">  </tspan><tspan
						class="st9">2</tspan></text>		</g>
	</g>
</svg>
