<?xml version="1.0" encoding="UTF-8" standalone="no"?>
<!DOCTYPE svg PUBLIC "-//W3C//DTD SVG 1.1//EN" "http://www.w3.org/Graphics/SVG/1.1/DTD/svg11.dtd">
<!-- Generated by Microsoft Visio, SVG Export example_2_hex.svg Page-1 -->
<svg xmlns="http://www.w3.org/2000/svg" xmlns:xlink="http://www.w3.org/1999/xlink" xmlns:ev="http://www.w3.org/2001/xml-events"
		xmlns:v="http://schemas.microsoft.com/visio/2003/SVGExtensions/" width="3.13542in" height="3.01042in"
		viewBox="0 0 225.75 216.75" xml:space="preserve" color-interpolation-filters="sRGB" class="st9">
	<v:documentProperties v:langID="1033" v:viewMarkup="false">
		<v:userDefs>
			<v:ud v:nameU="msvNoAutoConnect" v:val="VT0(1):26"/>
		</v:userDefs>
	</v:documentProperties>

	<style type="text/css">
	<![CDATA[
		.st1 {fill:#d8d8d8;stroke:#000000;stroke-linecap:round;stroke-linejoin:round;stroke-width:0.75}
		.st2 {fill:none;stroke:#000000;stroke-linecap:round;stroke-linejoin:round;stroke-width:0.75}
		.st3 {fill:#ffffff;stroke:none;stroke-linecap:butt;stroke-width:7.2}
		.st4 {fill:#000000;font-family:Calibri;font-size:1.5em}
		.st5 {stroke:#ff0000;stroke-linecap:round;stroke-linejoin:round;stroke-width:1}
		.st6 {fill:none;stroke:none;stroke-linecap:round;stroke-linejoin:round;stroke-width:0.75}
		.st7 {fill:#ff0000;font-family:Calibri;font-size:1.5em}
		.st8 {fill:#000000;font-size:1em}
		.st9 {fill:none;fill-rule:evenodd;font-size:12px;overflow:visible;stroke-linecap:square;stroke-miterlimit:3}
	]]>
	</style>
	<rect width="100%" height="100%" fill="white" />
	<g v:mID="0" v:index="1" v:groupContext="foregroundPage">
		<title>Page-1</title>
		<v:pageProperties v:drawingScale="1" v:pageScale="1" v:drawingUnits="19" v:shadowOffsetX="9" v:shadowOffsetY="-9"/>
		<v:layer v:name="Connector" v:index="0"/>
		<g id="shape165-1" v:mID="165" v:groupContext="shape" transform="translate(18,-72)">
			<title>Sheet.165</title>
			<path d="M0 198.75 L0 162.75 L31.18 144.75 L63 162.75 L63 198.75 L31.18 216.75 L0 198.75 Z" class="st1"/>
		</g>
		<g id="shape166-3" v:mID="166" v:groupContext="shape" transform="translate(81,-72)">
			<title>Sheet.166</title>
			<desc>0</desc>
			<v:textBlock v:margins="rect(4,4,4,4)"/>
			<v:textRect cx="31.5" cy="180.75" width="63" height="72"/>
			<path d="M0 198.75 L0 162.75 L31.18 144.75 L63 162.75 L63 198.75 L31.18 216.75 L0 198.75 Z" class="st2"/>
			<rect v:rectContext="textBkgnd" x="26.9385" y="169.95" width="9.12305" height="21.5999" class="st3"/>
			<text x="26.94" y="186.15" class="st4" v:langID="1033"><v:paragraph v:horizAlign="1"/><v:tabList/>0</text>		</g>
		<g id="shape167-7" v:mID="167" v:groupContext="shape" transform="translate(144,-72)">
			<title>Sheet.167</title>
			<desc>0</desc>
			<v:textBlock v:margins="rect(4,4,4,4)"/>
			<v:textRect cx="31.5" cy="180.75" width="63" height="72"/>
			<path d="M0 198.75 L0 162.75 L31.18 144.75 L63 162.75 L63 198.75 L31.18 216.75 L0 198.75 Z" class="st2"/>
			<rect v:rectContext="textBkgnd" x="26.9385" y="169.95" width="9.12305" height="21.5999" class="st3"/>
			<text x="26.94" y="186.15" class="st4" v:langID="1033"><v:paragraph v:horizAlign="1"/><v:tabList/>0</text>		</g>
		<g id="shape168-11" v:mID="168" v:groupContext="shape" transform="translate(49.5,-126)">
			<title>Sheet.168</title>
			<desc>0</desc>
			<v:textBlock v:margins="rect(4,4,4,4)"/>
			<v:textRect cx="31.5" cy="180.75" width="63" height="72"/>
			<path d="M0 198.75 L0 162.75 L31.18 144.75 L63 162.75 L63 198.75 L31.18 216.75 L0 198.75 Z" class="st2"/>
			<rect v:rectContext="textBkgnd" x="26.9385" y="169.95" width="9.12305" height="21.5999" class="st3"/>
			<text x="26.94" y="186.15" class="st4" v:langID="1033"><v:paragraph v:horizAlign="1"/><v:tabList/>0</text>		</g>
		<g id="shape169-15" v:mID="169" v:groupContext="shape" transform="translate(112.5,-126)">
			<title>Sheet.169</title>
			<desc>0</desc>
			<v:textBlock v:margins="rect(4,4,4,4)"/>
			<v:textRect cx="31.5" cy="180.75" width="63" height="72"/>
			<path d="M0 198.75 L0 162.75 L31.18 144.75 L63 162.75 L63 198.75 L31.18 216.75 L0 198.75 Z" class="st2"/>
			<rect v:rectContext="textBkgnd" x="26.9385" y="169.95" width="9.12305" height="21.5999" class="st3"/>
			<text x="26.94" y="186.15" class="st4" v:langID="1033"><v:paragraph v:horizAlign="1"/><v:tabList/>0</text>		</g>
		<g id="shape170-19" v:mID="170" v:groupContext="shape" transform="translate(49.5,-18)">
			<title>Sheet.170</title>
			<desc>0</desc>
			<v:textBlock v:margins="rect(4,4,4,4)"/>
			<v:textRect cx="31.5" cy="180.75" width="63" height="72"/>
			<path d="M0 198.75 L0 162.75 L31.18 144.75 L63 162.75 L63 198.75 L31.18 216.75 L0 198.75 Z" class="st2"/>
			<rect v:rectContext="textBkgnd" x="26.9385" y="169.95" width="9.12305" height="21.5999" class="st3"/>
			<text x="26.94" y="186.15" class="st4" v:langID="1033"><v:paragraph v:horizAlign="1"/><v:tabList/>0</text>		</g>
		<g id="shape171-23" v:mID="171" v:groupContext="shape" transform="translate(112.5,-18)">
			<title>Sheet.171</title>
			<path d="M0 198.75 L0 162.75 L31.18 144.75 L63 162.75 L63 198.75 L31.18 216.75 L0 198.75 Z" class="st1"/>
		</g>
		<g id="shape172-25" v:mID="172" v:groupContext="shape" transform="translate(-152.192,7.96189) rotate(-60.2551)">
			<title>Sheet.172</title>
			<path d="M0 216.75 L18.14 216.75" class="st5"/>
		</g>
		<g id="shape173-28" v:mID="173" v:groupContext="shape" transform="translate(18,-90)">
			<title>Sheet.173</title>
			<desc>5 1</desc>
			<v:textBlock v:margins="rect(4,4,4,4)"/>
			<v:textRect cx="31.5" cy="198.75" width="63" height="36"/>
			<rect x="0" y="180.75" width="63" height="36" class="st6"/>
			<text x="18.31" y="204.15" class="st7" v:langID="1033"><v:paragraph v:horizAlign="1"/><v:tabList/>5<tspan class="st8">  </tspan><tspan
						class="st8">1</tspan></text>		</g>
		<g id="shape174-33" v:mID="174" v:groupContext="shape" transform="translate(112.5,-36)">
			<title>Sheet.174</title>
			<desc>1</desc>
			<v:textBlock v:margins="rect(4,4,4,4)"/>
			<v:textRect cx="31.5" cy="198.75" width="63" height="36"/>
			<rect x="0" y="180.75" width="63" height="36" class="st6"/>
			<text x="26.94" y="204.15" class="st4" v:langID="1033"><v:paragraph v:horizAlign="1"/><v:tabList/>1</text>		</g>
	</g>
</svg>
