<?xml version="1.0" encoding="UTF-8" standalone="no"?>
<!DOCTYPE svg PUBLIC "-//W3C//DTD SVG 1.1//EN" "http://www.w3.org/Graphics/SVG/1.1/DTD/svg11.dtd">
<!-- Generated by Microsoft Visio, SVG Export example_7_hex.svg Page-2 -->
<svg xmlns="http://www.w3.org/2000/svg" xmlns:xlink="http://www.w3.org/1999/xlink" xmlns:ev="http://www.w3.org/2001/xml-events"
		xmlns:v="http://schemas.microsoft.com/visio/2003/SVGExtensions/" width="3in" height="3in" viewBox="0 0 216 216"
		xml:space="preserve" color-interpolation-filters="sRGB" class="st9">
	<v:documentProperties v:langID="1033" v:viewMarkup="false">
		<v:userDefs>
			<v:ud v:nameU="msvNoAutoConnect" v:val="VT0(1):26"/>
		</v:userDefs>
	</v:documentProperties>

	<style type="text/css">
	<![CDATA[
		.st1 {fill:#ffffff;stroke:#ffffff;stroke-linecap:round;stroke-linejoin:round;stroke-width:0.75}
		.st2 {fill:#d8d8d8;stroke:#000000;stroke-linecap:round;stroke-linejoin:round;stroke-width:0.75}
		.st3 {stroke:#ff0000;stroke-linecap:round;stroke-linejoin:round;stroke-width:1}
		.st4 {fill:none;stroke:none;stroke-linecap:round;stroke-linejoin:round;stroke-width:0.75}
		.st5 {fill:#ff0000;font-family:Calibri;font-size:1.5em}
		.st6 {fill:#000000;font-size:1em}
		.st7 {fill:#000000;font-family:Calibri;font-size:1.5em}
		.st8 {stroke:#ffc000;stroke-linecap:round;stroke-linejoin:round;stroke-width:0.75}
		.st9 {fill:none;fill-rule:evenodd;font-size:12px;overflow:visible;stroke-linecap:square;stroke-miterlimit:3}
	]]>
	</style>

	<g v:mID="4" v:index="2" v:groupContext="foregroundPage">
		<title>Page-2</title>
		<v:pageProperties v:drawingScale="1" v:pageScale="1" v:drawingUnits="19" v:shadowOffsetX="9" v:shadowOffsetY="-9"/>
		<g id="shape1-1" v:mID="1" v:groupContext="shape">
			<title>Sheet.1</title>
			<rect x="0" y="0" width="216" height="216" class="st1"/>
		</g>
		<g id="shape32-3" v:mID="32" v:groupContext="shape" transform="translate(76.5,-72)">
			<title>Sheet.32</title>
			<path d="M0 198 L0 162 L31.18 144 L63 162 L63 198 L31.18 216 L0 198 Z" class="st2"/>
		</g>
		<g id="shape33-5" v:mID="33" v:groupContext="shape" transform="translate(-93.0405,7.58399) rotate(-60.2551)">
			<title>Sheet.33</title>
			<path d="M0 216 L18.14 216" class="st3"/>
		</g>
		<g id="shape34-8" v:mID="34" v:groupContext="shape" transform="translate(76.5,-90)">
			<title>Sheet.34</title>
			<desc>5 4</desc>
			<v:textBlock v:margins="rect(4,4,4,4)"/>
			<v:textRect cx="31.5" cy="198" width="63" height="36"/>
			<rect x="0" y="180" width="63" height="36" class="st4"/>
			<text x="18.31" y="203.4" class="st5" v:langID="1033"><v:paragraph v:horizAlign="1"/><v:tabList/>5<tspan class="st6">  </tspan><tspan
						class="st6">4</tspan></text>		</g>
		<g id="shape35-13" v:mID="35" v:groupContext="shape" transform="translate(108,-18)">
			<title>Sheet.35</title>
			<path d="M0 198 L0 162 L31.18 144 L63 162 L63 198 L31.18 216 L0 198 Z" class="st2"/>
		</g>
		<g id="shape36-15" v:mID="36" v:groupContext="shape" transform="translate(108,-36)">
			<title>Sheet.36</title>
			<desc>1</desc>
			<v:textBlock v:margins="rect(4,4,4,4)"/>
			<v:textRect cx="31.5" cy="198" width="63" height="36"/>
			<rect x="0" y="180" width="63" height="36" class="st4"/>
			<text x="26.94" y="203.4" class="st7" v:langID="1033"><v:paragraph v:horizAlign="1"/><v:tabList/>1</text>		</g>
		<g id="shape37-18" v:mID="37" v:groupContext="shape" transform="translate(108,-126)">
			<title>Sheet.37</title>
			<path d="M0 198 L0 162 L31.18 144 L63 162 L63 198 L31.18 216 L0 198 Z" class="st2"/>
		</g>
		<g id="shape38-20" v:mID="38" v:groupContext="shape" transform="translate(-61.5405,-46.416) rotate(-60.2551)">
			<title>Sheet.38</title>
			<path d="M0 216 L18.14 216" class="st3"/>
		</g>
		<g id="shape39-23" v:mID="39" v:groupContext="shape" transform="translate(108,-144)">
			<title>Sheet.39</title>
			<desc>4 2</desc>
			<v:textBlock v:margins="rect(4,4,4,4)"/>
			<v:textRect cx="31.5" cy="198" width="63" height="36"/>
			<rect x="0" y="180" width="63" height="36" class="st4"/>
			<text x="18.31" y="203.4" class="st5" v:langID="1033"><v:paragraph v:horizAlign="1"/><v:tabList/>4<tspan class="st6">  </tspan><tspan
						class="st6">2</tspan></text>		</g>
		<g id="shape40-28" v:mID="40" v:groupContext="shape" transform="translate(45,-18)">
			<title>Sheet.40</title>
			<path d="M0 198 L0 162 L31.18 144 L63 162 L63 198 L31.18 216 L0 198 Z" class="st2"/>
		</g>
		<g id="shape41-30" v:mID="41" v:groupContext="shape" transform="translate(45,-36)">
			<title>Sheet.41</title>
			<desc>1</desc>
			<v:textBlock v:margins="rect(4,4,4,4)"/>
			<v:textRect cx="31.5" cy="198" width="63" height="36"/>
			<rect x="0" y="180" width="63" height="36" class="st4"/>
			<text x="26.94" y="203.4" class="st7" v:langID="1033"><v:paragraph v:horizAlign="1"/><v:tabList/>1</text>		</g>
		<g id="shape42-33" v:mID="42" v:groupContext="shape" transform="translate(139.5,-72)">
			<title>Sheet.42</title>
			<path d="M0 198 L0 162 L31.18 144 L63 162 L63 198 L31.18 216 L0 198 Z" class="st2"/>
		</g>
		<g id="shape43-35" v:mID="43" v:groupContext="shape" transform="translate(139.5,-90)">
			<title>Sheet.43</title>
			<desc>2</desc>
			<v:textBlock v:margins="rect(4,4,4,4)"/>
			<v:textRect cx="31.5" cy="198" width="63" height="36"/>
			<rect x="0" y="180" width="63" height="36" class="st4"/>
			<text x="26.94" y="203.4" class="st7" v:langID="1033"><v:paragraph v:horizAlign="1"/><v:tabList/>2</text>		</g>
		<g id="shape44-38" v:mID="44" v:groupContext="shape" transform="translate(13.5,-72)">
			<title>Sheet.44</title>
			<path d="M0 198 L0 162 L31.18 144 L63 162 L63 198 L31.18 216 L0 198 Z" class="st2"/>
		</g>
		<g id="shape45-40" v:mID="45" v:groupContext="shape" transform="translate(13.5,-90)">
			<title>Sheet.45</title>
			<desc>2</desc>
			<v:textBlock v:margins="rect(4,4,4,4)"/>
			<v:textRect cx="31.5" cy="198" width="63" height="36"/>
			<rect x="0" y="180" width="63" height="36" class="st4"/>
			<text x="26.94" y="203.4" class="st7" v:langID="1033"><v:paragraph v:horizAlign="1"/><v:tabList/>2</text>		</g>
		<g id="shape46-43" v:mID="46" v:groupContext="shape" transform="translate(45,-126)">
			<title>Sheet.46</title>
			<path d="M0 198 L0 162 L31.18 144 L63 162 L63 198 L31.18 216 L0 198 Z" class="st2"/>
		</g>
		<g id="shape47-45" v:mID="47" v:groupContext="shape" transform="translate(45,-144)">
			<title>Sheet.47</title>
			<desc>1</desc>
			<v:textBlock v:margins="rect(4,4,4,4)"/>
			<v:textRect cx="31.5" cy="198" width="63" height="36"/>
			<rect x="0" y="180" width="63" height="36" class="st4"/>
			<text x="26.94" y="203.4" class="st7" v:langID="1033"><v:paragraph v:horizAlign="1"/><v:tabList/>1</text>		</g>
		<g id="group31-48" transform="translate(-4.55166E-007,0)" v:mID="31" v:groupContext="group">
			<title>Sheet.31</title>
			<g id="shape12-49" v:mID="12" v:groupContext="shape" transform="translate(4.7167,248.21) rotate(-169.252)">
				<title>Sheet.12</title>
				<path d="M0 216 L45.8 216" class="st8"/>
			</g>
			<g id="shape13-52" v:mID="13" v:groupContext="shape" transform="translate(-127.373,197.356) rotate(-109.29)">
				<title>Sheet.13</title>
				<path d="M0 216 L95.35 216" class="st8"/>
			</g>
			<g id="shape17-55" v:mID="17" v:groupContext="shape" transform="translate(239.257,141.822) rotate(131.04)">
				<title>Sheet.17</title>
				<path d="M0 216 L47.73 216" class="st8"/>
			</g>
			<g id="shape18-58" v:mID="18" v:groupContext="shape" transform="translate(-149.38,55.763) rotate(-48.8141)">
				<title>Sheet.18</title>
				<path d="M0 216 L95.67 216" class="st8"/>
			</g>
			<g id="shape19-61" v:mID="19" v:groupContext="shape" transform="translate(-184.073,287.356) rotate(-109.29)">
				<title>Sheet.19</title>
				<path d="M0 216 L19.07 216" class="st8"/>
			</g>
			<g id="shape20-64" v:mID="20" v:groupContext="shape" transform="translate(40.55,-16.6781) rotate(10.8204)">
				<title>Sheet.20</title>
				<path d="M0 216 L13.42 216" class="st8"/>
			</g>
			<g id="shape14-67" v:mID="14" v:groupContext="shape" transform="translate(130.261,356.185) rotate(-169.216)">
				<title>Sheet.14</title>
				<path d="M0 216 L96.2 216" class="st8"/>
			</g>
			<g id="shape15-70" v:mID="15" v:groupContext="shape" transform="translate(-7.38693,288.169) rotate(-109.519)">
				<title>Sheet.15</title>
				<path d="M0 216 L76.39 216" class="st8"/>
			</g>
			<g id="shape16-73" v:mID="16" v:groupContext="shape" transform="translate(378.7,234.539) rotate(131.128)">
				<title>Sheet.16</title>
				<path d="M0 216 L68.42 216" class="st8"/>
			</g>
		</g>
	</g>
</svg>
