<?xml version="1.0" encoding="UTF-8" standalone="no"?>
<!DOCTYPE svg PUBLIC "-//W3C//DTD SVG 1.1//EN" "http://www.w3.org/Graphics/SVG/1.1/DTD/svg11.dtd">
<!-- Generated by Microsoft Visio, SVG Export example_1_hex.svg Page-2 -->
<svg xmlns="http://www.w3.org/2000/svg" xmlns:xlink="http://www.w3.org/1999/xlink" xmlns:ev="http://www.w3.org/2001/xml-events"
		xmlns:v="http://schemas.microsoft.com/visio/2003/SVGExtensions/" width="3in" height="3in" viewBox="0 0 216 216"
		xml:space="preserve" color-interpolation-filters="sRGB" class="st11">
	<v:documentProperties v:langID="1033" v:viewMarkup="false">
		<v:userDefs>
			<v:ud v:nameU="msvNoAutoConnect" v:val="VT0(1):26"/>
		</v:userDefs>
	</v:documentProperties>

	<style type="text/css">
	<![CDATA[
		.st1 {fill:#ffffff;stroke:#ffffff;stroke-linecap:round;stroke-linejoin:round;stroke-width:0.75}
		.st2 {fill:#d8d8d8;stroke:#000000;stroke-linecap:round;stroke-linejoin:round;stroke-width:0.75}
		.st3 {stroke:#ff0000;stroke-linecap:round;stroke-linejoin:round;stroke-width:1}
		.st4 {fill:none;stroke:#000000;stroke-linecap:round;stroke-linejoin:round;stroke-width:0.75}
		.st5 {fill:#ffffff;stroke:none;stroke-linecap:butt;stroke-width:7.2}
		.st6 {fill:#000000;font-family:Calibri;font-size:1.5em}
		.st7 {fill:none;stroke:none;stroke-linecap:round;stroke-linejoin:round;stroke-width:0.75}
		.st8 {fill:#ff0000;font-family:Calibri;font-size:1.5em}
		.st9 {fill:#000000;font-size:1em}
		.st10 {stroke:#ffc000;stroke-linecap:round;stroke-linejoin:round;stroke-width:0.75}
		.st11 {fill:none;fill-rule:evenodd;font-size:12px;overflow:visible;stroke-linecap:square;stroke-miterlimit:3}
	]]>
	</style>

	<g v:mID="4" v:index="2" v:groupContext="foregroundPage">
		<title>Page-2</title>
		<v:pageProperties v:drawingScale="1" v:pageScale="1" v:drawingUnits="19" v:shadowOffsetX="9" v:shadowOffsetY="-9"/>
		<g id="shape1-1" v:mID="1" v:groupContext="shape">
			<title>Sheet.1</title>
			<rect x="0" y="0" width="216" height="216" class="st1"/>
		</g>
		<g id="shape2-3" v:mID="2" v:groupContext="shape" transform="translate(76.5,-72)">
			<title>Sheet.2</title>
			<path d="M0 198 L0 162 L31.18 144 L63 162 L63 198 L31.18 216 L0 198 Z" class="st2"/>
		</g>
		<g id="shape3-5" v:mID="3" v:groupContext="shape" transform="translate(-93.0405,7.58399) rotate(-60.2551)">
			<title>Sheet.3</title>
			<path d="M0 216 L18.14 216" class="st3"/>
		</g>
		<g id="shape4-8" v:mID="4" v:groupContext="shape" transform="translate(13.5,-72)">
			<title>Sheet.4</title>
			<desc>0</desc>
			<v:textBlock v:margins="rect(4,4,4,4)"/>
			<v:textRect cx="31.5" cy="180" width="63" height="72"/>
			<path d="M0 198 L0 162 L31.18 144 L63 162 L63 198 L31.18 216 L0 198 Z" class="st4"/>
			<rect v:rectContext="textBkgnd" x="26.9385" y="169.2" width="9.12305" height="21.5999" class="st5"/>
			<text x="26.94" y="185.4" class="st6" v:langID="1033"><v:paragraph v:horizAlign="1"/><v:tabList/>0</text>		</g>
		<g id="shape5-12" v:mID="5" v:groupContext="shape" transform="translate(139.5,-72)">
			<title>Sheet.5</title>
			<desc>0</desc>
			<v:textBlock v:margins="rect(4,4,4,4)"/>
			<v:textRect cx="31.5" cy="180" width="63" height="72"/>
			<path d="M0 198 L0 162 L31.18 144 L63 162 L63 198 L31.18 216 L0 198 Z" class="st4"/>
			<rect v:rectContext="textBkgnd" x="26.9385" y="169.2" width="9.12305" height="21.5999" class="st5"/>
			<text x="26.94" y="185.4" class="st6" v:langID="1033"><v:paragraph v:horizAlign="1"/><v:tabList/>0</text>		</g>
		<g id="shape6-16" v:mID="6" v:groupContext="shape" transform="translate(45,-126)">
			<title>Sheet.6</title>
			<desc>0</desc>
			<v:textBlock v:margins="rect(4,4,4,4)"/>
			<v:textRect cx="31.5" cy="180" width="63" height="72"/>
			<path d="M0 198 L0 162 L31.18 144 L63 162 L63 198 L31.18 216 L0 198 Z" class="st4"/>
			<rect v:rectContext="textBkgnd" x="26.9385" y="169.2" width="9.12305" height="21.5999" class="st5"/>
			<text x="26.94" y="185.4" class="st6" v:langID="1033"><v:paragraph v:horizAlign="1"/><v:tabList/>0</text>		</g>
		<g id="shape7-20" v:mID="7" v:groupContext="shape" transform="translate(45,-18)">
			<title>Sheet.7</title>
			<desc>0</desc>
			<v:textBlock v:margins="rect(4,4,4,4)"/>
			<v:textRect cx="31.5" cy="180" width="63" height="72"/>
			<path d="M0 198 L0 162 L31.18 144 L63 162 L63 198 L31.18 216 L0 198 Z" class="st4"/>
			<rect v:rectContext="textBkgnd" x="26.9385" y="169.2" width="9.12305" height="21.5999" class="st5"/>
			<text x="26.94" y="185.4" class="st6" v:langID="1033"><v:paragraph v:horizAlign="1"/><v:tabList/>0</text>		</g>
		<g id="shape8-24" v:mID="8" v:groupContext="shape" transform="translate(76.5,-90)">
			<title>Sheet.8</title>
			<desc>5 1</desc>
			<v:textBlock v:margins="rect(4,4,4,4)"/>
			<v:textRect cx="31.5" cy="198" width="63" height="36"/>
			<rect x="0" y="180" width="63" height="36" class="st7"/>
			<text x="18.31" y="203.4" class="st8" v:langID="1033"><v:paragraph v:horizAlign="1"/><v:tabList/>5<tspan class="st9">  </tspan><tspan
						class="st9">1</tspan></text>		</g>
		<g id="shape11-29" v:mID="11" v:groupContext="shape" transform="translate(108,-126)">
			<title>Sheet.11</title>
			<desc>0</desc>
			<v:textBlock v:margins="rect(4,4,4,4)"/>
			<v:textRect cx="31.5" cy="180" width="63" height="72"/>
			<path d="M0 198 L0 162 L31.18 144 L63 162 L63 198 L31.18 216 L0 198 Z" class="st4"/>
			<rect v:rectContext="textBkgnd" x="26.9385" y="169.2" width="9.12305" height="21.5999" class="st5"/>
			<text x="26.94" y="185.4" class="st6" v:langID="1033"><v:paragraph v:horizAlign="1"/><v:tabList/>0</text>		</g>
		<g id="shape12-33" v:mID="12" v:groupContext="shape" transform="translate(4.7167,248.21) rotate(-169.252)">
			<title>Sheet.12</title>
			<path d="M0 216 L45.8 216" class="st10"/>
		</g>
		<g id="shape13-36" v:mID="13" v:groupContext="shape" transform="translate(-127.373,197.356) rotate(-109.29)">
			<title>Sheet.13</title>
			<path d="M0 216 L95.35 216" class="st10"/>
		</g>
		<g id="shape17-39" v:mID="17" v:groupContext="shape" transform="translate(239.257,141.822) rotate(131.04)">
			<title>Sheet.17</title>
			<path d="M0 216 L47.73 216" class="st10"/>
		</g>
		<g id="shape18-42" v:mID="18" v:groupContext="shape" transform="translate(-149.38,55.763) rotate(-48.8141)">
			<title>Sheet.18</title>
			<path d="M0 216 L95.67 216" class="st10"/>
		</g>
		<g id="shape19-45" v:mID="19" v:groupContext="shape" transform="translate(-184.073,287.356) rotate(-109.29)">
			<title>Sheet.19</title>
			<path d="M0 216 L19.07 216" class="st10"/>
		</g>
		<g id="shape20-48" v:mID="20" v:groupContext="shape" transform="translate(40.55,-16.6781) rotate(10.8204)">
			<title>Sheet.20</title>
			<path d="M0 216 L13.42 216" class="st10"/>
		</g>
		<g id="shape21-51" v:mID="21" v:groupContext="shape" transform="translate(108,-18)">
			<title>Sheet.21</title>
			<desc>0</desc>
			<v:textBlock v:margins="rect(4,4,4,4)"/>
			<v:textRect cx="31.5" cy="180" width="63" height="72"/>
			<path d="M0 198 L0 162 L31.18 144 L63 162 L63 198 L31.18 216 L0 198 Z" class="st4"/>
			<rect v:rectContext="textBkgnd" x="26.9385" y="169.2" width="9.12305" height="21.5999" class="st5"/>
			<text x="26.94" y="185.4" class="st6" v:langID="1033"><v:paragraph v:horizAlign="1"/><v:tabList/>0</text>		</g>
		<g id="shape14-55" v:mID="14" v:groupContext="shape" transform="translate(130.261,356.185) rotate(-169.216)">
			<title>Sheet.14</title>
			<path d="M0 216 L96.2 216" class="st10"/>
		</g>
		<g id="shape15-58" v:mID="15" v:groupContext="shape" transform="translate(-7.38693,288.169) rotate(-109.519)">
			<title>Sheet.15</title>
			<path d="M0 216 L76.39 216" class="st10"/>
		</g>
		<g id="shape16-61" v:mID="16" v:groupContext="shape" transform="translate(378.7,234.539) rotate(131.128)">
			<title>Sheet.16</title>
			<path d="M0 216 L68.42 216" class="st10"/>
		</g>
	</g>
</svg>
