<svg height="3in" style="color-interpolation-filters:sRGB;fill:none;fill-rule:evenodd;font-size:12;stroke-linecap:square;stroke-miterlimit:3" viewBox="0 0 216 216" width="3in" xml:space="preserve" xmlns="http://www.w3.org/2000/svg"><path d="m0 0h216v216h-216z" fill="#fff" stroke="#fff" stroke-linecap="round" stroke-linejoin="round" stroke-width=".75"/><path d="m0 198v-36l31.18-18 31.82 18v36l-31.82 18z" fill="#d8d8d8" stroke="#000" stroke-linecap="round" stroke-linejoin="round" stroke-width=".75" transform="translate(76.5 -72)"/><path d="m0 216h18.14" stroke="#f00" stroke-linecap="round" stroke-linejoin="round" transform="matrix(.49613922 -.86824298 .86824298 .49613922 -93.0405 7.58399)"/><g transform="translate(13.5 -72)"><path d="m0 198v-36l31.18-18 31.82 18v36l-31.82 18z" fill="none" stroke="#000" stroke-linecap="round" stroke-linejoin="round" stroke-width=".75"/><path d="m26.9385 169.2h9.12305v21.5999h-9.12305z" fill="#fff"/><text fill="#000" font-family="Calibri" font-size="1.5em" x="26.94" y="185.4">0</text></g><g transform="translate(139.5 -72)"><path d="m0 198v-36l31.18-18 31.82 18v36l-31.82 18z" fill="none" stroke="#000" stroke-linecap="round" stroke-linejoin="round" stroke-width=".75"/><path d="m26.9385 169.2h9.12305v21.5999h-9.12305z" fill="#fff"/><text fill="#000" font-family="Calibri" font-size="1.5em" x="26.94" y="185.4">0</text></g><g transform="translate(45 -126)"><path d="m0 198v-36l31.18-18 31.82 18v36l-31.82 18z" fill="none" stroke="#000" stroke-linecap="round" stroke-linejoin="round" stroke-width=".75"/><path d="m26.9385 169.2h9.12305v21.5999h-9.12305z" fill="#fff"/><text fill="#000" font-family="Calibri" font-size="1.5em" x="26.94" y="185.4">0</text></g><g transform="translate(45 -18)"><path d="m0 198v-36l31.18-18 31.82 18v36l-31.82 18z" fill="none" stroke="#000" stroke-linecap="round" stroke-linejoin="round" stroke-width=".75"/><path d="m26.9385 169.2h9.12305v21.5999h-9.12305z" fill="#fff"/><text fill="#000" font-family="Calibri" font-size="1.5em" x="26.94" y="185.4">0</text></g><g transform="translate(76.5 -90)"><path d="m0 180h63v36h-63z" fill="none"/><text fill="#f00" font-family="Calibri" font-size="1.5em" x="18.31" y="203.4">5<tspan fill="#000" font-size="1em"></tspan><tspan fill="#000" font-size="1em">1</tspan></text></g><path d="m0 198v-36l31.18-18 31.82 18v36l-31.82 18z" fill="#d8d8d8" stroke="#000" stroke-linecap="round" stroke-linejoin="round" stroke-width=".75" transform="translate(108 -18)"/><g transform="translate(108 -36)"><path d="m0 180h63v36h-63z" fill="none"/><text fill="#000" font-family="Calibri" font-size="1.5em" x="26.94" y="203.4">1</text></g><g transform="translate(108 -126)"><path d="m0 198v-36l31.18-18 31.82 18v36l-31.82 18z" fill="none" stroke="#000" stroke-linecap="round" stroke-linejoin="round" stroke-width=".75"/><path d="m26.9385 169.2h9.12305v21.5999h-9.12305z" fill="#fff"/><text fill="#000" font-family="Calibri" font-size="1.5em" x="26.94" y="185.4">0</text></g><g stroke-linecap="round" stroke-linejoin="round"><path d="m0 216h45.8" stroke="#ffc000" stroke-width=".75" transform="matrix(-.98245691 -.18648974 .18648974 -.98245691 4.7167 248.21)"/><path d="m0 216h95.35" stroke="#ffc000" stroke-width=".75" transform="matrix(-.33034966 -.94385862 .94385862 -.33034966 -127.373 197.356)"/><path d="m0 216h96.2" stroke="#ffc000" stroke-width=".75" transform="matrix(-.98233954 -.187107 .187107 -.98233954 130.261 356.185)"/><path d="m0 216h76.39" stroke="#ffc000" stroke-width=".75" transform="matrix(-.33411943 -.94253074 .94253074 -.33411943 -7.38693 288.169)"/><path d="m0 216h68.42" stroke="#ffc000" stroke-width=".75" transform="matrix(-.65774343 .75324205 -.75324205 -.65774343 378.7 234.539)"/><path d="m0 216h47.73" stroke="#ffc000" stroke-width=".75" transform="matrix(-.65658576 .75425138 -.75425138 -.65658576 239.257 141.822)"/><path d="m0 216h95.67" stroke="#ffc000" stroke-width=".75" transform="matrix(.65850428 -.75257698 .75257698 .65850428 -149.38 55.763)"/><path d="m0 216h19.07" stroke="#ffc000" stroke-width=".75" transform="matrix(-.33034966 -.94385862 .94385862 -.33034966 -184.073 287.356)"/><path d="m0 216h13.42" stroke="#ffc000" stroke-width=".75" transform="matrix(.98222047 .18773104 -.18773104 .98222047 40.55 -16.6781)"/></g></svg>