<?xml version="1.0" encoding="UTF-8" standalone="no"?>
<!DOCTYPE svg PUBLIC "-//W3C//DTD SVG 1.1//EN" "http://www.w3.org/Graphics/SVG/1.1/DTD/svg11.dtd">
<!-- Generated by Microsoft Visio, SVG Export initial_topo_example.svg Page-1 -->
<svg xmlns="http://www.w3.org/2000/svg" xmlns:xlink="http://www.w3.org/1999/xlink" xmlns:ev="http://www.w3.org/2001/xml-events"
		xmlns:v="http://schemas.microsoft.com/visio/2003/SVGExtensions/" width="6.32292in" height="3.01042in"
		viewBox="0 0 455.25 216.75" xml:space="preserve" color-interpolation-filters="sRGB" class="st6">
	<v:documentProperties v:langID="1033" v:viewMarkup="false">
		<v:userDefs>
			<v:ud v:nameU="msvNoAutoConnect" v:val="VT0(1):26"/>
		</v:userDefs>
	</v:documentProperties>

	<style type="text/css">
	<![CDATA[
		.st1 {stroke:#000000;stroke-linecap:round;stroke-linejoin:round;stroke-width:0.75}
		.st2 {fill:#00b050;fill-opacity:0.5;stroke:#00b050;stroke-linecap:round;stroke-linejoin:round;stroke-width:2.5}
		.st3 {fill:none;stroke:none;stroke-linecap:round;stroke-linejoin:round;stroke-width:0.75}
		.st4 {fill:#000000;font-family:Calibri;font-size:1.00001em}
		.st5 {stroke:#00b050;stroke-linecap:round;stroke-linejoin:round;stroke-width:2.5}
		.st6 {fill:none;fill-rule:evenodd;font-size:12px;overflow:visible;stroke-linecap:square;stroke-miterlimit:3}
	]]>
	</style>
	<rect width="100%" height="100%" fill="white" />
	<g v:mID="0" v:index="1" v:groupContext="foregroundPage">
		<title>Page-1</title>
		<v:pageProperties v:drawingScale="1" v:pageScale="1" v:drawingUnits="19" v:shadowOffsetX="9" v:shadowOffsetY="-9"/>
		<g id="group1-1" transform="translate(49.875,-18.375)" v:mID="1" v:groupContext="group">
			<title>Sheet.1</title>
			<g id="shape2-2" v:mID="2" v:groupContext="shape" transform="translate(-216.75,198.75) rotate(-90)">
				<title>Sheet.2</title>
				<path d="M0 216.75 L36 216.75" class="st1"/>
			</g>
			<g id="shape3-5" v:mID="3" v:groupContext="shape" transform="translate(-153.75,198.75) rotate(-90)">
				<title>Sheet.3</title>
				<path d="M0 216.75 L36 216.75" class="st1"/>
			</g>
			<g id="group4-8" transform="translate(6.39488E-014,-54)" v:mID="4" v:groupContext="group">
				<title>Sheet.4</title>
				<g id="shape5-9" v:mID="5" v:groupContext="shape" transform="translate(-108.375,29.039) rotate(-30)">
					<title>Sheet.5</title>
					<path d="M0 216.75 L36 216.75" class="st1"/>
				</g>
				<g id="shape6-12" v:mID="6" v:groupContext="shape" transform="translate(140.198,11.039) rotate(30)">
					<title>Sheet.6</title>
					<path d="M0 216.75 L36 216.75" class="st1"/>
				</g>
			</g>
			<g id="group7-15" transform="translate(63,415.5) rotate(180)" v:mID="7" v:groupContext="group">
				<title>Sheet.7</title>
				<g id="shape8-16" v:mID="8" v:groupContext="shape" transform="translate(-108.375,29.039) rotate(-30)">
					<title>Sheet.8</title>
					<path d="M0 216.75 L36 216.75" class="st1"/>
				</g>
				<g id="shape9-19" v:mID="9" v:groupContext="shape" transform="translate(140.198,11.039) rotate(30)">
					<title>Sheet.9</title>
					<path d="M0 216.75 L36 216.75" class="st1"/>
				</g>
			</g>
		</g>
		<g id="group10-22" transform="translate(18.375,-72.375)" v:mID="10" v:groupContext="group">
			<title>Sheet.10</title>
			<g id="shape11-23" v:mID="11" v:groupContext="shape" transform="translate(-216.75,198.75) rotate(-90)">
				<title>Sheet.11</title>
				<path d="M0 216.75 L36 216.75" class="st1"/>
			</g>
			<g id="shape12-26" v:mID="12" v:groupContext="shape" transform="translate(-153.75,198.75) rotate(-90)">
				<title>Sheet.12</title>
				<path d="M0 216.75 L36 216.75" class="st1"/>
			</g>
			<g id="group13-29" transform="translate(6.39488E-014,-54)" v:mID="13" v:groupContext="group">
				<title>Sheet.13</title>
				<g id="shape14-30" v:mID="14" v:groupContext="shape" transform="translate(-108.375,29.039) rotate(-30)">
					<title>Sheet.14</title>
					<path d="M0 216.75 L36 216.75" class="st1"/>
				</g>
				<g id="shape15-33" v:mID="15" v:groupContext="shape" transform="translate(140.198,11.039) rotate(30)">
					<title>Sheet.15</title>
					<path d="M0 216.75 L36 216.75" class="st1"/>
				</g>
			</g>
			<g id="group16-36" transform="translate(63,415.5) rotate(180)" v:mID="16" v:groupContext="group">
				<title>Sheet.16</title>
				<g id="shape17-37" v:mID="17" v:groupContext="shape" transform="translate(-108.375,29.039) rotate(-30)">
					<title>Sheet.17</title>
					<path d="M0 216.75 L36 216.75" class="st1"/>
				</g>
				<g id="shape18-40" v:mID="18" v:groupContext="shape" transform="translate(140.198,11.039) rotate(30)">
					<title>Sheet.18</title>
					<path d="M0 216.75 L36 216.75" class="st1"/>
				</g>
			</g>
		</g>
		<g id="group19-43" transform="translate(81.375,-72.375)" v:mID="19" v:groupContext="group">
			<title>Sheet.19</title>
			<g id="shape20-44" v:mID="20" v:groupContext="shape" transform="translate(-216.75,198.75) rotate(-90)">
				<title>Sheet.20</title>
				<path d="M0 216.75 L36 216.75" class="st1"/>
			</g>
			<g id="shape21-47" v:mID="21" v:groupContext="shape" transform="translate(-153.75,198.75) rotate(-90)">
				<title>Sheet.21</title>
				<path d="M0 216.75 L36 216.75" class="st1"/>
			</g>
			<g id="group22-50" transform="translate(6.39488E-014,-54)" v:mID="22" v:groupContext="group">
				<title>Sheet.22</title>
				<g id="shape23-51" v:mID="23" v:groupContext="shape" transform="translate(-108.375,29.039) rotate(-30)">
					<title>Sheet.23</title>
					<path d="M0 216.75 L36 216.75" class="st1"/>
				</g>
				<g id="shape24-54" v:mID="24" v:groupContext="shape" transform="translate(140.198,11.039) rotate(30)">
					<title>Sheet.24</title>
					<path d="M0 216.75 L36 216.75" class="st1"/>
				</g>
			</g>
			<g id="group25-57" transform="translate(63,415.5) rotate(180)" v:mID="25" v:groupContext="group">
				<title>Sheet.25</title>
				<g id="shape26-58" v:mID="26" v:groupContext="shape" transform="translate(-108.375,29.039) rotate(-30)">
					<title>Sheet.26</title>
					<path d="M0 216.75 L36 216.75" class="st1"/>
				</g>
				<g id="shape27-61" v:mID="27" v:groupContext="shape" transform="translate(140.198,11.039) rotate(30)">
					<title>Sheet.27</title>
					<path d="M0 216.75 L36 216.75" class="st1"/>
				</g>
			</g>
		</g>
		<g id="group28-64" transform="translate(49.875,-126.375)" v:mID="28" v:groupContext="group">
			<title>Sheet.28</title>
			<g id="shape29-65" v:mID="29" v:groupContext="shape" transform="translate(-216.75,198.75) rotate(-90)">
				<title>Sheet.29</title>
				<path d="M0 216.75 L36 216.75" class="st1"/>
			</g>
			<g id="shape30-68" v:mID="30" v:groupContext="shape" transform="translate(-153.75,198.75) rotate(-90)">
				<title>Sheet.30</title>
				<path d="M0 216.75 L36 216.75" class="st1"/>
			</g>
			<g id="group31-71" transform="translate(6.39488E-014,-54)" v:mID="31" v:groupContext="group">
				<title>Sheet.31</title>
				<g id="shape32-72" v:mID="32" v:groupContext="shape" transform="translate(-108.375,29.039) rotate(-30)">
					<title>Sheet.32</title>
					<path d="M0 216.75 L36 216.75" class="st1"/>
				</g>
				<g id="shape33-75" v:mID="33" v:groupContext="shape" transform="translate(140.198,11.039) rotate(30)">
					<title>Sheet.33</title>
					<path d="M0 216.75 L36 216.75" class="st1"/>
				</g>
			</g>
			<g id="group34-78" transform="translate(63,415.5) rotate(180)" v:mID="34" v:groupContext="group">
				<title>Sheet.34</title>
				<g id="shape35-79" v:mID="35" v:groupContext="shape" transform="translate(-108.375,29.039) rotate(-30)">
					<title>Sheet.35</title>
					<path d="M0 216.75 L36 216.75" class="st1"/>
				</g>
				<g id="shape36-82" v:mID="36" v:groupContext="shape" transform="translate(140.198,11.039) rotate(30)">
					<title>Sheet.36</title>
					<path d="M0 216.75 L36 216.75" class="st1"/>
				</g>
			</g>
		</g>
		<g id="group37-85" transform="translate(112.875,-18.375)" v:mID="37" v:groupContext="group">
			<title>Sheet.37</title>
			<g id="shape38-86" v:mID="38" v:groupContext="shape" transform="translate(-216.75,198.75) rotate(-90)">
				<title>Sheet.38</title>
				<path d="M0 216.75 L36 216.75" class="st1"/>
			</g>
			<g id="shape39-89" v:mID="39" v:groupContext="shape" transform="translate(-153.75,198.75) rotate(-90)">
				<title>Sheet.39</title>
				<path d="M0 216.75 L36 216.75" class="st1"/>
			</g>
			<g id="group40-92" transform="translate(6.39488E-014,-54)" v:mID="40" v:groupContext="group">
				<title>Sheet.40</title>
				<g id="shape41-93" v:mID="41" v:groupContext="shape" transform="translate(-108.375,29.039) rotate(-30)">
					<title>Sheet.41</title>
					<path d="M0 216.75 L36 216.75" class="st1"/>
				</g>
				<g id="shape42-96" v:mID="42" v:groupContext="shape" transform="translate(140.198,11.039) rotate(30)">
					<title>Sheet.42</title>
					<path d="M0 216.75 L36 216.75" class="st1"/>
				</g>
			</g>
			<g id="group43-99" transform="translate(63,415.5) rotate(180)" v:mID="43" v:groupContext="group">
				<title>Sheet.43</title>
				<g id="shape44-100" v:mID="44" v:groupContext="shape" transform="translate(-108.375,29.039) rotate(-30)">
					<title>Sheet.44</title>
					<path d="M0 216.75 L36 216.75" class="st1"/>
				</g>
				<g id="shape45-103" v:mID="45" v:groupContext="shape" transform="translate(140.198,11.039) rotate(30)">
					<title>Sheet.45</title>
					<path d="M0 216.75 L36 216.75" class="st1"/>
				</g>
			</g>
		</g>
		<g id="group46-106" transform="translate(144.375,-72.375)" v:mID="46" v:groupContext="group">
			<title>Sheet.46</title>
			<g id="shape47-107" v:mID="47" v:groupContext="shape" transform="translate(-216.75,198.75) rotate(-90)">
				<title>Sheet.47</title>
				<path d="M0 216.75 L36 216.75" class="st1"/>
			</g>
			<g id="shape48-110" v:mID="48" v:groupContext="shape" transform="translate(-153.75,198.75) rotate(-90)">
				<title>Sheet.48</title>
				<path d="M0 216.75 L36 216.75" class="st1"/>
			</g>
			<g id="group49-113" transform="translate(6.39488E-014,-54)" v:mID="49" v:groupContext="group">
				<title>Sheet.49</title>
				<g id="shape50-114" v:mID="50" v:groupContext="shape" transform="translate(-108.375,29.039) rotate(-30)">
					<title>Sheet.50</title>
					<path d="M0 216.75 L36 216.75" class="st1"/>
				</g>
				<g id="shape51-117" v:mID="51" v:groupContext="shape" transform="translate(140.198,11.039) rotate(30)">
					<title>Sheet.51</title>
					<path d="M0 216.75 L36 216.75" class="st1"/>
				</g>
			</g>
			<g id="group52-120" transform="translate(63,415.5) rotate(180)" v:mID="52" v:groupContext="group">
				<title>Sheet.52</title>
				<g id="shape53-121" v:mID="53" v:groupContext="shape" transform="translate(-108.375,29.039) rotate(-30)">
					<title>Sheet.53</title>
					<path d="M0 216.75 L36 216.75" class="st1"/>
				</g>
				<g id="shape54-124" v:mID="54" v:groupContext="shape" transform="translate(140.198,11.039) rotate(30)">
					<title>Sheet.54</title>
					<path d="M0 216.75 L36 216.75" class="st1"/>
				</g>
			</g>
		</g>
		<g id="group55-127" transform="translate(112.875,-126.375)" v:mID="55" v:groupContext="group">
			<title>Sheet.55</title>
			<g id="shape56-128" v:mID="56" v:groupContext="shape" transform="translate(-216.75,198.75) rotate(-90)">
				<title>Sheet.56</title>
				<path d="M0 216.75 L36 216.75" class="st1"/>
			</g>
			<g id="shape57-131" v:mID="57" v:groupContext="shape" transform="translate(-153.75,198.75) rotate(-90)">
				<title>Sheet.57</title>
				<path d="M0 216.75 L36 216.75" class="st1"/>
			</g>
			<g id="group58-134" transform="translate(6.39488E-014,-54)" v:mID="58" v:groupContext="group">
				<title>Sheet.58</title>
				<g id="shape59-135" v:mID="59" v:groupContext="shape" transform="translate(-108.375,29.039) rotate(-30)">
					<title>Sheet.59</title>
					<path d="M0 216.75 L36 216.75" class="st1"/>
				</g>
				<g id="shape60-138" v:mID="60" v:groupContext="shape" transform="translate(140.198,11.039) rotate(30)">
					<title>Sheet.60</title>
					<path d="M0 216.75 L36 216.75" class="st1"/>
				</g>
			</g>
			<g id="group61-141" transform="translate(63,415.5) rotate(180)" v:mID="61" v:groupContext="group">
				<title>Sheet.61</title>
				<g id="shape62-142" v:mID="62" v:groupContext="shape" transform="translate(-108.375,29.039) rotate(-30)">
					<title>Sheet.62</title>
					<path d="M0 216.75 L36 216.75" class="st1"/>
				</g>
				<g id="shape63-145" v:mID="63" v:groupContext="shape" transform="translate(140.198,11.039) rotate(30)">
					<title>Sheet.63</title>
					<path d="M0 216.75 L36 216.75" class="st1"/>
				</g>
			</g>
		</g>
		<g id="shape64-148" v:mID="64" v:groupContext="shape" transform="translate(69.5625,-40.875)">
			<title>Sheet.64</title>
			<path d="M0 210 L0 196.5 L11.69 189.75 L23.63 196.5 L23.63 210 L11.69 216.75 L0 210 Z" class="st2"/>
		</g>
		<g id="shape65-150" v:mID="65" v:groupContext="shape" transform="translate(69.5625,-40.875)">
			<title>Sheet.65</title>
			<desc>1</desc>
			<v:textBlock v:margins="rect(0,0,0,0)"/>
			<v:textRect cx="11.8125" cy="203.25" width="23.63" height="27"/>
			<rect x="0" y="189.75" width="23.625" height="27" class="st3"/>
			<text x="8.77" y="206.85" class="st4" v:langID="1033"><v:paragraph v:horizAlign="1"/><v:tabList/>1</text>		</g>
		<g id="shape66-153" v:mID="66" v:groupContext="shape" transform="translate(162.375,-94.875)">
			<title>Sheet.66</title>
			<path d="M0 210 L0 196.5 L11.69 189.75 L23.63 196.5 L23.63 210 L11.69 216.75 L0 210 Z" class="st2"/>
		</g>
		<g id="shape67-155" v:mID="67" v:groupContext="shape" transform="translate(162.375,-94.875)">
			<title>Sheet.67</title>
			<desc>1</desc>
			<v:textBlock v:margins="rect(0,0,0,0)"/>
			<v:textRect cx="11.8125" cy="203.25" width="23.63" height="27"/>
			<rect x="0" y="189.75" width="23.625" height="27" class="st3"/>
			<text x="8.77" y="206.85" class="st4" v:langID="1033"><v:paragraph v:horizAlign="1"/><v:tabList/>1</text>		</g>
		<g id="shape68-158" v:mID="68" v:groupContext="shape" transform="translate(135.375,-144.375)">
			<title>Sheet.68</title>
			<path d="M0 210 L0 196.5 L11.69 189.75 L23.63 196.5 L23.63 210 L11.69 216.75 L0 210 Z" class="st2"/>
		</g>
		<g id="shape69-160" v:mID="69" v:groupContext="shape" transform="translate(135.375,-144.375)">
			<title>Sheet.69</title>
			<desc>1</desc>
			<v:textBlock v:margins="rect(0,0,0,0)"/>
			<v:textRect cx="11.8125" cy="203.25" width="23.63" height="27"/>
			<rect x="0" y="189.75" width="23.625" height="27" class="st3"/>
			<text x="8.77" y="206.85" class="st4" v:langID="1033"><v:paragraph v:horizAlign="1"/><v:tabList/>1</text>		</g>
		<g id="shape70-163" v:mID="70" v:groupContext="shape" transform="translate(38.0625,-108.375)">
			<title>Sheet.70</title>
			<path d="M0 210 L0 196.5 L11.69 189.75 L23.63 196.5 L23.63 210 L11.69 216.75 L0 210 Z" class="st2"/>
		</g>
		<g id="shape71-165" v:mID="71" v:groupContext="shape" transform="translate(38.0625,-108.375)">
			<title>Sheet.71</title>
			<desc>1</desc>
			<v:textBlock v:margins="rect(0,0,0,0)"/>
			<v:textRect cx="11.8125" cy="203.25" width="23.63" height="27"/>
			<rect x="0" y="189.75" width="23.625" height="27" class="st3"/>
			<text x="8.77" y="206.85" class="st4" v:langID="1033"><v:paragraph v:horizAlign="1"/><v:tabList/>1</text>		</g>
		<g id="shape72-168" v:mID="72" v:groupContext="shape" transform="translate(101.063,-85.875)">
			<title>Sheet.72</title>
			<path d="M0 210 L0 196.5 L11.69 189.75 L23.63 196.5 L23.63 210 L11.69 216.75 L0 210 Z" class="st2"/>
		</g>
		<g id="shape73-170" v:mID="73" v:groupContext="shape" transform="translate(101.062,-85.875)">
			<title>Sheet.73</title>
			<desc>1</desc>
			<v:textBlock v:margins="rect(0,0,0,0)"/>
			<v:textRect cx="11.8125" cy="203.25" width="23.63" height="27"/>
			<rect x="0" y="189.75" width="23.625" height="27" class="st3"/>
			<text x="8.77" y="206.85" class="st4" v:langID="1033"><v:paragraph v:horizAlign="1"/><v:tabList/>1</text>		</g>
		<g id="shape74-173" v:mID="74" v:groupContext="shape" transform="translate(-16.3101,-31.4334) rotate(-30.3432)">
			<title>Sheet.74</title>
			<path d="M0 216.75 L80.17 216.75" class="st5"/>
		</g>
		<g id="shape75-176" v:mID="75" v:groupContext="shape" transform="translate(-25.4166,197.504) rotate(-117.127)">
			<title>Sheet.75</title>
			<path d="M0 216.75 L32.97 216.75" class="st5"/>
		</g>
		<g id="shape76-179" v:mID="76" v:groupContext="shape" transform="translate(230.52,253.626) rotate(153.962)">
			<title>Sheet.76</title>
			<path d="M0 216.75 L82.01 216.75" class="st5"/>
		</g>
		<g id="shape77-182" v:mID="77" v:groupContext="shape" transform="translate(109.985,-109.676) rotate(12.875)">
			<title>Sheet.77</title>
			<path d="M0 216.75 L40.39 216.75" class="st5"/>
		</g>
		<g id="group78-185" transform="translate(279.375,-18.375)" v:mID="78" v:groupContext="group">
			<title>Sheet.78</title>
			<g id="shape79-186" v:mID="79" v:groupContext="shape" transform="translate(-216.75,198.75) rotate(-90)">
				<title>Sheet.79</title>
				<path d="M0 216.75 L36 216.75" class="st1"/>
			</g>
			<g id="shape80-189" v:mID="80" v:groupContext="shape" transform="translate(-153.75,198.75) rotate(-90)">
				<title>Sheet.80</title>
				<path d="M0 216.75 L36 216.75" class="st1"/>
			</g>
			<g id="group81-192" transform="translate(6.39488E-014,-54)" v:mID="81" v:groupContext="group">
				<title>Sheet.81</title>
				<g id="shape82-193" v:mID="82" v:groupContext="shape" transform="translate(-108.375,29.039) rotate(-30)">
					<title>Sheet.82</title>
					<path d="M0 216.75 L36 216.75" class="st1"/>
				</g>
				<g id="shape83-196" v:mID="83" v:groupContext="shape" transform="translate(140.198,11.039) rotate(30)">
					<title>Sheet.83</title>
					<path d="M0 216.75 L36 216.75" class="st1"/>
				</g>
			</g>
			<g id="group84-199" transform="translate(63,415.5) rotate(180)" v:mID="84" v:groupContext="group">
				<title>Sheet.84</title>
				<g id="shape85-200" v:mID="85" v:groupContext="shape" transform="translate(-108.375,29.039) rotate(-30)">
					<title>Sheet.85</title>
					<path d="M0 216.75 L36 216.75" class="st1"/>
				</g>
				<g id="shape86-203" v:mID="86" v:groupContext="shape" transform="translate(140.198,11.039) rotate(30)">
					<title>Sheet.86</title>
					<path d="M0 216.75 L36 216.75" class="st1"/>
				</g>
			</g>
		</g>
		<g id="group87-206" transform="translate(247.875,-72.375)" v:mID="87" v:groupContext="group">
			<title>Sheet.87</title>
			<g id="shape88-207" v:mID="88" v:groupContext="shape" transform="translate(-216.75,198.75) rotate(-90)">
				<title>Sheet.88</title>
				<path d="M0 216.75 L36 216.75" class="st1"/>
			</g>
			<g id="shape89-210" v:mID="89" v:groupContext="shape" transform="translate(-153.75,198.75) rotate(-90)">
				<title>Sheet.89</title>
				<path d="M0 216.75 L36 216.75" class="st1"/>
			</g>
			<g id="group90-213" transform="translate(6.39488E-014,-54)" v:mID="90" v:groupContext="group">
				<title>Sheet.90</title>
				<g id="shape91-214" v:mID="91" v:groupContext="shape" transform="translate(-108.375,29.039) rotate(-30)">
					<title>Sheet.91</title>
					<path d="M0 216.75 L36 216.75" class="st1"/>
				</g>
				<g id="shape92-217" v:mID="92" v:groupContext="shape" transform="translate(140.198,11.039) rotate(30)">
					<title>Sheet.92</title>
					<path d="M0 216.75 L36 216.75" class="st1"/>
				</g>
			</g>
			<g id="group93-220" transform="translate(63,415.5) rotate(180)" v:mID="93" v:groupContext="group">
				<title>Sheet.93</title>
				<g id="shape94-221" v:mID="94" v:groupContext="shape" transform="translate(-108.375,29.039) rotate(-30)">
					<title>Sheet.94</title>
					<path d="M0 216.75 L36 216.75" class="st1"/>
				</g>
				<g id="shape95-224" v:mID="95" v:groupContext="shape" transform="translate(140.198,11.039) rotate(30)">
					<title>Sheet.95</title>
					<path d="M0 216.75 L36 216.75" class="st1"/>
				</g>
			</g>
		</g>
		<g id="group96-227" transform="translate(310.875,-72.375)" v:mID="96" v:groupContext="group">
			<title>Sheet.96</title>
			<g id="shape97-228" v:mID="97" v:groupContext="shape" transform="translate(-216.75,198.75) rotate(-90)">
				<title>Sheet.97</title>
				<path d="M0 216.75 L36 216.75" class="st1"/>
			</g>
			<g id="shape98-231" v:mID="98" v:groupContext="shape" transform="translate(-153.75,198.75) rotate(-90)">
				<title>Sheet.98</title>
				<path d="M0 216.75 L36 216.75" class="st1"/>
			</g>
			<g id="group99-234" transform="translate(6.39488E-014,-54)" v:mID="99" v:groupContext="group">
				<title>Sheet.99</title>
				<g id="shape100-235" v:mID="100" v:groupContext="shape" transform="translate(-108.375,29.039) rotate(-30)">
					<title>Sheet.100</title>
					<path d="M0 216.75 L36 216.75" class="st1"/>
				</g>
				<g id="shape101-238" v:mID="101" v:groupContext="shape" transform="translate(140.198,11.039) rotate(30)">
					<title>Sheet.101</title>
					<path d="M0 216.75 L36 216.75" class="st1"/>
				</g>
			</g>
			<g id="group102-241" transform="translate(63,415.5) rotate(180)" v:mID="102" v:groupContext="group">
				<title>Sheet.102</title>
				<g id="shape103-242" v:mID="103" v:groupContext="shape" transform="translate(-108.375,29.039) rotate(-30)">
					<title>Sheet.103</title>
					<path d="M0 216.75 L36 216.75" class="st1"/>
				</g>
				<g id="shape104-245" v:mID="104" v:groupContext="shape" transform="translate(140.198,11.039) rotate(30)">
					<title>Sheet.104</title>
					<path d="M0 216.75 L36 216.75" class="st1"/>
				</g>
			</g>
		</g>
		<g id="group105-248" transform="translate(279.375,-126.375)" v:mID="105" v:groupContext="group">
			<title>Sheet.105</title>
			<g id="shape106-249" v:mID="106" v:groupContext="shape" transform="translate(-216.75,198.75) rotate(-90)">
				<title>Sheet.106</title>
				<path d="M0 216.75 L36 216.75" class="st1"/>
			</g>
			<g id="shape107-252" v:mID="107" v:groupContext="shape" transform="translate(-153.75,198.75) rotate(-90)">
				<title>Sheet.107</title>
				<path d="M0 216.75 L36 216.75" class="st1"/>
			</g>
			<g id="group108-255" transform="translate(6.39488E-014,-54)" v:mID="108" v:groupContext="group">
				<title>Sheet.108</title>
				<g id="shape109-256" v:mID="109" v:groupContext="shape" transform="translate(-108.375,29.039) rotate(-30)">
					<title>Sheet.109</title>
					<path d="M0 216.75 L36 216.75" class="st1"/>
				</g>
				<g id="shape110-259" v:mID="110" v:groupContext="shape" transform="translate(140.198,11.039) rotate(30)">
					<title>Sheet.110</title>
					<path d="M0 216.75 L36 216.75" class="st1"/>
				</g>
			</g>
			<g id="group111-262" transform="translate(63,415.5) rotate(180)" v:mID="111" v:groupContext="group">
				<title>Sheet.111</title>
				<g id="shape112-263" v:mID="112" v:groupContext="shape" transform="translate(-108.375,29.039) rotate(-30)">
					<title>Sheet.112</title>
					<path d="M0 216.75 L36 216.75" class="st1"/>
				</g>
				<g id="shape113-266" v:mID="113" v:groupContext="shape" transform="translate(140.198,11.039) rotate(30)">
					<title>Sheet.113</title>
					<path d="M0 216.75 L36 216.75" class="st1"/>
				</g>
			</g>
		</g>
		<g id="group114-269" transform="translate(342.375,-18.375)" v:mID="114" v:groupContext="group">
			<title>Sheet.114</title>
			<g id="shape115-270" v:mID="115" v:groupContext="shape" transform="translate(-216.75,198.75) rotate(-90)">
				<title>Sheet.115</title>
				<path d="M0 216.75 L36 216.75" class="st1"/>
			</g>
			<g id="shape116-273" v:mID="116" v:groupContext="shape" transform="translate(-153.75,198.75) rotate(-90)">
				<title>Sheet.116</title>
				<path d="M0 216.75 L36 216.75" class="st1"/>
			</g>
			<g id="group117-276" transform="translate(6.39488E-014,-54)" v:mID="117" v:groupContext="group">
				<title>Sheet.117</title>
				<g id="shape118-277" v:mID="118" v:groupContext="shape" transform="translate(-108.375,29.039) rotate(-30)">
					<title>Sheet.118</title>
					<path d="M0 216.75 L36 216.75" class="st1"/>
				</g>
				<g id="shape119-280" v:mID="119" v:groupContext="shape" transform="translate(140.198,11.039) rotate(30)">
					<title>Sheet.119</title>
					<path d="M0 216.75 L36 216.75" class="st1"/>
				</g>
			</g>
			<g id="group120-283" transform="translate(63,415.5) rotate(180)" v:mID="120" v:groupContext="group">
				<title>Sheet.120</title>
				<g id="shape121-284" v:mID="121" v:groupContext="shape" transform="translate(-108.375,29.039) rotate(-30)">
					<title>Sheet.121</title>
					<path d="M0 216.75 L36 216.75" class="st1"/>
				</g>
				<g id="shape122-287" v:mID="122" v:groupContext="shape" transform="translate(140.198,11.039) rotate(30)">
					<title>Sheet.122</title>
					<path d="M0 216.75 L36 216.75" class="st1"/>
				</g>
			</g>
		</g>
		<g id="group123-290" transform="translate(373.875,-72.375)" v:mID="123" v:groupContext="group">
			<title>Sheet.123</title>
			<g id="shape124-291" v:mID="124" v:groupContext="shape" transform="translate(-216.75,198.75) rotate(-90)">
				<title>Sheet.124</title>
				<path d="M0 216.75 L36 216.75" class="st1"/>
			</g>
			<g id="shape125-294" v:mID="125" v:groupContext="shape" transform="translate(-153.75,198.75) rotate(-90)">
				<title>Sheet.125</title>
				<path d="M0 216.75 L36 216.75" class="st1"/>
			</g>
			<g id="group126-297" transform="translate(6.39488E-014,-54)" v:mID="126" v:groupContext="group">
				<title>Sheet.126</title>
				<g id="shape127-298" v:mID="127" v:groupContext="shape" transform="translate(-108.375,29.039) rotate(-30)">
					<title>Sheet.127</title>
					<path d="M0 216.75 L36 216.75" class="st1"/>
				</g>
				<g id="shape128-301" v:mID="128" v:groupContext="shape" transform="translate(140.198,11.039) rotate(30)">
					<title>Sheet.128</title>
					<path d="M0 216.75 L36 216.75" class="st1"/>
				</g>
			</g>
			<g id="group129-304" transform="translate(63,415.5) rotate(180)" v:mID="129" v:groupContext="group">
				<title>Sheet.129</title>
				<g id="shape130-305" v:mID="130" v:groupContext="shape" transform="translate(-108.375,29.039) rotate(-30)">
					<title>Sheet.130</title>
					<path d="M0 216.75 L36 216.75" class="st1"/>
				</g>
				<g id="shape131-308" v:mID="131" v:groupContext="shape" transform="translate(140.198,11.039) rotate(30)">
					<title>Sheet.131</title>
					<path d="M0 216.75 L36 216.75" class="st1"/>
				</g>
			</g>
		</g>
		<g id="group132-311" transform="translate(342.375,-126.375)" v:mID="132" v:groupContext="group">
			<title>Sheet.132</title>
			<g id="shape133-312" v:mID="133" v:groupContext="shape" transform="translate(-216.75,198.75) rotate(-90)">
				<title>Sheet.133</title>
				<path d="M0 216.75 L36 216.75" class="st1"/>
			</g>
			<g id="shape134-315" v:mID="134" v:groupContext="shape" transform="translate(-153.75,198.75) rotate(-90)">
				<title>Sheet.134</title>
				<path d="M0 216.75 L36 216.75" class="st1"/>
			</g>
			<g id="group135-318" transform="translate(6.39488E-014,-54)" v:mID="135" v:groupContext="group">
				<title>Sheet.135</title>
				<g id="shape136-319" v:mID="136" v:groupContext="shape" transform="translate(-108.375,29.039) rotate(-30)">
					<title>Sheet.136</title>
					<path d="M0 216.75 L36 216.75" class="st1"/>
				</g>
				<g id="shape137-322" v:mID="137" v:groupContext="shape" transform="translate(140.198,11.039) rotate(30)">
					<title>Sheet.137</title>
					<path d="M0 216.75 L36 216.75" class="st1"/>
				</g>
			</g>
			<g id="group138-325" transform="translate(63,415.5) rotate(180)" v:mID="138" v:groupContext="group">
				<title>Sheet.138</title>
				<g id="shape139-326" v:mID="139" v:groupContext="shape" transform="translate(-108.375,29.039) rotate(-30)">
					<title>Sheet.139</title>
					<path d="M0 216.75 L36 216.75" class="st1"/>
				</g>
				<g id="shape140-329" v:mID="140" v:groupContext="shape" transform="translate(140.198,11.039) rotate(30)">
					<title>Sheet.140</title>
					<path d="M0 216.75 L36 216.75" class="st1"/>
				</g>
			</g>
		</g>
		<g id="shape141-332" v:mID="141" v:groupContext="shape" transform="translate(299.062,-40.875)">
			<title>Sheet.141</title>
			<path d="M0 210 L0 196.5 L11.69 189.75 L23.63 196.5 L23.63 210 L11.69 216.75 L0 210 Z" class="st2"/>
		</g>
		<g id="shape142-334" v:mID="142" v:groupContext="shape" transform="translate(299.062,-40.875)">
			<title>Sheet.142</title>
			<desc>20</desc>
			<v:textBlock v:margins="rect(0,0,0,0)"/>
			<v:textRect cx="11.8125" cy="203.25" width="23.63" height="27"/>
			<rect x="0" y="189.75" width="23.625" height="27" class="st3"/>
			<text x="5.73" y="206.85" class="st4" v:langID="1033"><v:paragraph v:horizAlign="1"/><v:tabList/>20</text>		</g>
		<g id="shape143-337" v:mID="143" v:groupContext="shape" transform="translate(391.875,-94.875)">
			<title>Sheet.143</title>
			<path d="M0 210 L0 196.5 L11.69 189.75 L23.63 196.5 L23.63 210 L11.69 216.75 L0 210 Z" class="st2"/>
		</g>
		<g id="shape144-339" v:mID="144" v:groupContext="shape" transform="translate(391.875,-94.875)">
			<title>Sheet.144</title>
			<desc>20</desc>
			<v:textBlock v:margins="rect(0,0,0,0)"/>
			<v:textRect cx="11.8125" cy="203.25" width="23.63" height="27"/>
			<rect x="0" y="189.75" width="23.625" height="27" class="st3"/>
			<text x="5.73" y="206.85" class="st4" v:langID="1033"><v:paragraph v:horizAlign="1"/><v:tabList/>20</text>		</g>
		<g id="shape145-342" v:mID="145" v:groupContext="shape" transform="translate(364.875,-144.375)">
			<title>Sheet.145</title>
			<path d="M0 210 L0 196.5 L11.69 189.75 L23.63 196.5 L23.63 210 L11.69 216.75 L0 210 Z" class="st2"/>
		</g>
		<g id="shape146-344" v:mID="146" v:groupContext="shape" transform="translate(364.875,-144.375)">
			<title>Sheet.146</title>
			<desc>20</desc>
			<v:textBlock v:margins="rect(0,0,0,0)"/>
			<v:textRect cx="11.8125" cy="203.25" width="23.63" height="27"/>
			<rect x="0" y="189.75" width="23.625" height="27" class="st3"/>
			<text x="5.73" y="206.85" class="st4" v:langID="1033"><v:paragraph v:horizAlign="1"/><v:tabList/>20</text>		</g>
		<g id="shape147-347" v:mID="147" v:groupContext="shape" transform="translate(267.563,-108.375)">
			<title>Sheet.147</title>
			<path d="M0 210 L0 196.5 L11.69 189.75 L23.63 196.5 L23.63 210 L11.69 216.75 L0 210 Z" class="st2"/>
		</g>
		<g id="shape148-349" v:mID="148" v:groupContext="shape" transform="translate(267.563,-108.375)">
			<title>Sheet.148</title>
			<desc>20</desc>
			<v:textBlock v:margins="rect(0,0,0,0)"/>
			<v:textRect cx="11.8125" cy="203.25" width="23.63" height="27"/>
			<rect x="0" y="189.75" width="23.625" height="27" class="st3"/>
			<text x="5.73" y="206.85" class="st4" v:langID="1033"><v:paragraph v:horizAlign="1"/><v:tabList/>20</text>		</g>
		<g id="shape149-352" v:mID="149" v:groupContext="shape" transform="translate(330.563,-85.875)">
			<title>Sheet.149</title>
			<path d="M0 210 L0 196.5 L11.69 189.75 L23.63 196.5 L23.63 210 L11.69 216.75 L0 210 Z" class="st2"/>
		</g>
		<g id="shape150-354" v:mID="150" v:groupContext="shape" transform="translate(330.563,-85.875)">
			<title>Sheet.150</title>
			<desc>20</desc>
			<v:textBlock v:margins="rect(0,0,0,0)"/>
			<v:textRect cx="11.8125" cy="203.25" width="23.63" height="27"/>
			<rect x="0" y="189.75" width="23.625" height="27" class="st3"/>
			<text x="5.73" y="206.85" class="st4" v:langID="1033"><v:paragraph v:horizAlign="1"/><v:tabList/>20</text>		</g>
		<g id="shape151-357" v:mID="151" v:groupContext="shape" transform="translate(213.19,-31.4334) rotate(-30.3432)">
			<title>Sheet.151</title>
			<path d="M0 216.75 L80.17 216.75" class="st5"/>
		</g>
		<g id="shape152-360" v:mID="152" v:groupContext="shape" transform="translate(204.083,197.504) rotate(-117.127)">
			<title>Sheet.152</title>
			<path d="M0 216.75 L32.97 216.75" class="st5"/>
		</g>
		<g id="shape153-363" v:mID="153" v:groupContext="shape" transform="translate(460.02,253.626) rotate(153.962)">
			<title>Sheet.153</title>
			<path d="M0 216.75 L82.01 216.75" class="st5"/>
		</g>
		<g id="shape154-366" v:mID="154" v:groupContext="shape" transform="translate(339.485,-109.676) rotate(12.875)">
			<title>Sheet.154</title>
			<path d="M0 216.75 L40.39 216.75" class="st5"/>
		</g>
	</g>
</svg>
