<svg height="460.8" stroke-linejoin="round" viewBox="0 0 648.72 345.6" width="864.96" xmlns="http://www.w3.org/2000/svg" xmlns:xlink="http://www.w3.org/1999/xlink"><defs stroke-linejoin="round"><clipPath id="a" stroke-linejoin="round"><path d="m53.876984 26.88h579.638641v276.76h-579.638641z"/></clipPath><path id="b" d="m0 0v3.5" stroke="#000" stroke-linejoin="round" stroke-width=".8"/><path id="c" d="m19.1875 8.296875h34.421875v-8.296875h-46.28125v8.296875q5.609375 5.8125 15.296875 15.59375 9.703125 9.796875 12.1875 12.640625 4.734375 5.3125 6.609375 9 1.890625 3.6875 1.890625 7.25 0 5.8125-4.078125 9.46875-4.078125 3.671875-10.625 3.671875-4.640625 0-9.796875-1.609375-5.140625-1.609375-11-4.890625v9.96875q5.953125 2.390625 11.125 3.609375 5.1875 1.21875 9.484375 1.21875 11.328125 0 18.0625-5.671875 6.734375-5.65625 6.734375-15.125 0-4.5-1.6875-8.53125-1.671875-4.015625-6.125-9.484375-1.21875-1.421875-7.765625-8.1875-6.53125-6.765625-18.453125-18.921875z" stroke-linejoin="round"/><path id="d" d="m37.796875 64.3125-24.90625-38.921875h24.90625zm-2.59375 8.59375h12.40625v-47.515625h10.40625v-8.203125h-10.40625v-17.1875h-9.8125v17.1875h-32.90625v9.515625z" stroke-linejoin="round"/><path id="e" d="m12.40625 8.296875h16.109375v55.625l-17.53125-3.515625v8.984375l17.4375 3.515625h9.859375v-64.609375h16.109375v-8.296875h-41.984375z" stroke-linejoin="round"/><path id="f" d="m31.78125 66.40625q-7.609375 0-11.453125-7.5-3.828125-7.484375-3.828125-22.53125 0-14.984375 3.828125-22.484375 3.84375-7.5 11.453125-7.5 7.671875 0 11.5 7.5 3.84375 7.5 3.84375 22.484375 0 15.046875-3.84375 22.53125-3.828125 7.5-11.5 7.5zm0 7.8125q12.265625 0 18.734375-9.703125 6.46875-9.6875 6.46875-28.140625 0-18.40625-6.46875-28.109375-6.46875-9.6875-18.734375-9.6875-12.25 0-18.71875 9.6875-6.46875 9.703125-6.46875 28.109375 0 18.453125 6.46875 28.140625 6.46875 9.703125 18.71875 9.703125z" stroke-linejoin="round"/><path id="g" d="m54.890625 33.015625v-33.015625h-8.984375v32.71875q0 7.765625-3.03125 11.609375-3.03125 3.859375-9.078125 3.859375-7.28125 0-11.484375-4.640625-4.203125-4.625-4.203125-12.640625v-30.90625h-9.03125v54.6875h9.03125v-8.5q3.234375 4.9375 7.59375 7.375 4.375 2.4375 10.09375 2.4375 9.421875 0 14.25-5.828125 4.84375-5.828125 4.84375-17.15625z" stroke-linejoin="round"/><path id="h" d="m8.5 21.578125v33.109375h8.984375v-32.765625q0-7.765625 3.015625-11.65625 3.03125-3.875 9.09375-3.875 7.265625 0 11.484375 4.640625 4.234375 4.640625 4.234375 12.65625v31h8.984375v-54.6875h-8.984375v8.40625q-3.265625-4.984375-7.59375-7.40625-4.3125-2.421875-10.03125-2.421875-9.421875 0-14.3125 5.859375-4.875 5.859375-4.875 17.140625z" stroke-linejoin="round"/><path id="i" d="m48.6875 27.296875q0 9.90625-4.078125 15.546875-4.078125 5.640625-11.203125 5.640625-7.140625 0-11.21875-5.640625-4.078125-5.640625-4.078125-15.546875 0-9.90625 4.078125-15.546875 4.078125-5.640625 11.21875-5.640625 7.125 0 11.203125 5.640625 4.078125 5.640625 4.078125 15.546875zm-30.578125 19.09375q2.84375 4.875 7.15625 7.234375 4.328125 2.375 10.328125 2.375 9.96875 0 16.1875-7.90625 6.234375-7.90625 6.234375-20.796875 0-12.890625-6.234375-20.8125-6.21875-7.90625-16.1875-7.90625-6 0-10.328125 2.375-4.3125 2.375-7.15625 7.25v-8.203125h-9.03125v75.984375h9.03125z" stroke-linejoin="round"/><path id="j" d="m56.203125 29.59375v-4.390625h-41.3125q.59375-9.28125 5.59375-14.140625 5-4.859375 13.9375-4.859375 5.171875 0 10.03125 1.265625 4.859375 1.265625 9.65625 3.8125v-8.5q-4.84375-2.046875-9.921875-3.125-5.078125-1.078125-10.296875-1.078125-13.09375 0-20.734375 7.609375-7.640625 7.625-7.640625 20.625 0 13.421875 7.25 21.296875 7.25 7.890625 19.5625 7.890625 11.03125 0 17.453125-7.109375 6.421875-7.09375 6.421875-19.296875zm-8.984375 2.640625q-.09375 7.359375-4.125 11.75-4.03125 4.40625-10.671875 4.40625-7.515625 0-12.03125-4.25-4.515625-4.25-5.203125-11.96875z" stroke-linejoin="round"/><path id="k" d="m41.109375 46.296875q-1.515625.875-3.296875 1.28125-1.78125.421875-3.921875.421875-7.625 0-11.703125-4.953125-4.078125-4.953125-4.078125-14.234375v-28.8125h-9.03125v54.6875h9.03125v-8.5q2.84375 4.984375 7.375 7.390625 4.546875 2.421875 11.046875 2.421875.921875 0 2.046875-.125 1.125-.109375 2.484375-.359375z" stroke-linejoin="round"/><path id="l" d="m30.609375 48.390625q-7.21875 0-11.421875-5.640625-4.203125-5.640625-4.203125-15.453125 0-9.8125 4.171875-15.453125 4.1875-5.640625 11.453125-5.640625 7.1875 0 11.375 5.65625 4.203125 5.671875 4.203125 15.4375 0 9.71875-4.203125 15.40625-4.1875 5.6875-11.375 5.6875zm0 7.609375q11.71875 0 18.40625-7.625 6.703125-7.609375 6.703125-21.078125 0-13.421875-6.703125-21.078125-6.6875-7.640625-18.40625-7.640625-11.765625 0-18.4375 7.640625-6.65625 7.65625-6.65625 21.078125 0 13.46875 6.65625 21.078125 6.671875 7.625 18.4375 7.625z" stroke-linejoin="round"/><path id="m" d="m4.203125 54.6875h8.984375l11.234375-42.671875 11.171875 42.671875h10.59375l11.234375-42.671875 11.1875 42.671875h8.984375l-14.3125-54.6875h-10.59375l-11.765625 44.828125-11.8125-44.828125h-10.609375z" stroke-linejoin="round"/><path id="n" d="m9.421875 54.6875h8.984375v-54.6875h-8.984375zm0 21.296875h8.984375v-11.390625h-8.984375z" stroke-linejoin="round"/><path id="o" d="m18.3125 70.21875v-15.53125h18.5v-6.984375h-18.5v-29.6875q0-6.6875 1.828125-8.59375 1.828125-1.90625 7.453125-1.90625h9.21875v-7.515625h-9.21875q-10.40625 0-14.359375 3.875-3.953125 3.890625-3.953125 14.140625v29.6875h-6.59375v6.984375h6.59375v15.53125z" stroke-linejoin="round"/><path id="p" d="m44.28125 53.078125v-8.5q-3.796875 1.953125-7.90625 2.921875-4.09375.984375-8.5.984375-6.6875 0-10.03125-2.046875-3.34375-2.046875-3.34375-6.15625 0-3.125 2.390625-4.90625 2.390625-1.78125 9.625-3.390625l3.078125-.6875q9.5625-2.046875 13.59375-5.78125 4.03125-3.734375 4.03125-10.421875 0-7.625-6.03125-12.078125-6.03125-4.4375-16.578125-4.4375-4.390625 0-9.15625.859375-4.765625.859375-10.03125 2.5625v9.28125q4.984375-2.59375 9.8125-3.890625 4.828125-1.28125 9.578125-1.28125 6.34375 0 9.75 2.171875 3.421875 2.171875 3.421875 6.125 0 3.65625-2.46875 5.609375-2.453125 1.953125-10.8125 3.765625l-3.125.734375q-8.34375 1.75-12.0625 5.390625-3.703125 3.640625-3.703125 9.984375 0 7.71875 5.46875 11.90625 5.46875 4.203125 15.53125 4.203125 4.96875 0 9.359375-.734375 4.40625-.71875 8.109375-2.1875z" stroke-linejoin="round"/><path id="q" d="m0 0h-3.5" stroke="#000" stroke-linejoin="round" stroke-width=".8"/><path id="r" d="m-.296875 72.90625h61.671875v-8.3125h-25.875v-64.59375h-9.90625v64.59375h-25.890625z" stroke-linejoin="round"/><path id="s" d="m34.28125 27.484375q-10.890625 0-15.09375-2.484375-4.203125-2.484375-4.203125-8.5 0-4.78125 3.15625-7.59375 3.15625-2.796875 8.5625-2.796875 7.484375 0 12 5.296875 4.515625 5.296875 4.515625 14.078125v2zm17.921875 3.71875v-31.203125h-8.984375v8.296875q-3.078125-4.96875-7.671875-7.34375-4.59375-2.375-11.234375-2.375-8.390625 0-13.359375 4.71875-4.953125 4.71875-4.953125 12.625 0 9.21875 6.171875 13.90625 6.1875 4.6875 18.4375 4.6875h12.609375v.890625q0 6.203125-4.078125 9.59375-4.078125 3.390625-11.453125 3.390625-4.6875 0-9.140625-1.125-4.4375-1.125-8.53125-3.375v8.3125q4.921875 1.90625 9.5625 2.84375 4.640625.953125 9.03125.953125 11.875 0 17.734375-6.15625 5.859375-6.140625 5.859375-18.640625z" stroke-linejoin="round"/><path id="t" d="m45.40625 46.390625v29.59375h8.984375v-75.984375h-8.984375v8.203125q-2.828125-4.875-7.15625-7.25-4.3125-2.375-10.375-2.375-9.90625 0-16.140625 7.90625-6.21875 7.921875-6.21875 20.8125 0 12.890625 6.21875 20.796875 6.234375 7.90625 16.140625 7.90625 6.0625 0 10.375-2.375 4.328125-2.359375 7.15625-7.234375zm-30.609375-19.09375q0-9.90625 4.078125-15.546875 4.078125-5.640625 11.203125-5.640625 7.125 0 11.21875 5.640625 4.109375 5.640625 4.109375 15.546875 0 9.90625-4.109375 15.546875-4.09375 5.640625-11.21875 5.640625-7.125 0-11.203125-5.640625-4.078125-5.640625-4.078125-15.546875z" stroke-linejoin="round"/><path id="u" d="m17.921875 72.90625v-27.109375h-8.296875v27.109375z" stroke-linejoin="round"/><path id="v" d="m0 3c.795609 0 1.55874-.316099 2.12132-.87868.562581-.56258.87868-1.325711.87868-2.12132s-.316099-1.55874-.87868-2.12132c-.56258-.562581-1.325711-.87868-2.12132-.87868s-1.55874.316099-2.12132.87868c-.562581.56258-.87868 1.325711-.87868 2.12132s.316099 1.55874.87868 2.12132c.56258.562581 1.325711.87868 2.12132.87868z" stroke="#f00" stroke-linejoin="round"/><path id="w" d="m44.390625 34.1875q3.171875-1.078125 6.171875-4.59375 3-3.515625 6.03125-9.671875l10.015625-19.921875h-10.609375l-9.3125 18.703125q-3.625 7.328125-7.015625 9.71875-3.390625 2.390625-9.25 2.390625h-10.75v-30.8125h-9.859375v72.90625h22.265625q12.5 0 18.65625-5.234375 6.15625-5.21875 6.15625-15.765625 0-6.890625-3.203125-11.4375-3.203125-4.53125-9.296875-6.28125zm-24.71875 30.609375v-25.875h12.40625q7.125 0 10.765625 3.296875 3.640625 3.296875 3.640625 9.6875 0 6.390625-3.640625 9.640625-3.640625 3.25-10.765625 3.25z" stroke-linejoin="round"/><path id="x" d="m50.984375-16.609375v-6.96875h-51.96875v6.96875z" stroke-linejoin="round"/><path id="y" d="m6.296875 72.90625h10.59375l18.125-27.109375 18.203125 27.109375h10.59375l-23.4375-35.015625 25-37.890625h-10.59375l-20.5 31-20.65625-31h-10.640625l26.015625 38.921875z" stroke-linejoin="round"/></defs><g stroke-linejoin="round"><path d="m0 345.6h648.72v-345.6h-648.72z" fill="#fff"/><g stroke-linejoin="round"><path d="m53.876984 303.64h579.638641v-276.76h-579.638641z" fill="#fff"/><g fill="#ffa500"><path clip-path="url(#a)" d="m56.775178 303.64h32.846189v-13.179048h-32.846189z"/><path clip-path="url(#a)" d="m95.417754 303.64h32.846189v-26.358095h-32.846189z"/><path clip-path="url(#a)" d="m134.06033 303.64h32.846189v-39.537143h-32.846189z"/><path clip-path="url(#a)" d="m172.702906 303.64h32.846189v-52.71619h-32.846189z"/><path clip-path="url(#a)" d="m211.345482 303.64h32.846189v-63.259429h-32.846189z"/><path clip-path="url(#a)" d="m249.988058 303.64h32.846189v-71.694019h-32.846189z"/><path clip-path="url(#a)" d="m288.630634 303.64h32.846189v-78.441691h-32.846189z"/><path clip-path="url(#a)" d="m327.27321 303.64h32.84619v-83.839829h-32.84619z"/><path clip-path="url(#a)" d="m365.915786 303.64h32.84619v-88.15834h-32.84619z"/><path clip-path="url(#a)" d="m404.558362 303.64h32.84619v-91.613148h-32.84619z"/><path clip-path="url(#a)" d="m443.200938 303.64h32.84619v-94.376995h-32.84619z"/><path clip-path="url(#a)" d="m481.843514 303.64h32.84619v-96.588072h-32.84619z"/><path clip-path="url(#a)" d="m520.48609 303.64h32.84619v-98.356934h-32.84619z"/><path clip-path="url(#a)" d="m559.128666 303.64h32.84619v-99.772023h-32.84619z"/><path clip-path="url(#a)" d="m597.771242 303.64h32.84619v-100.904095h-32.84619z"/></g><path clip-path="url(#a)" d="m56.775178 290.460952h32.846189v-52.71619h-32.846189z" fill="#4c4cff"/><path clip-path="url(#a)" d="m95.417754 277.281905h32.846189v-105.432381h-32.846189z" fill="#4c4cff"/><path clip-path="url(#a)" d="m134.06033 264.102857h32.846189v-158.148571h-32.846189z" fill="#4c4cff"/><path clip-path="url(#a)" d="m172.702906 250.92381h32.846189v-210.864762h-32.846189z" fill="#4c4cff"/><path clip-path="url(#a)" d="m211.345482 240.380571h32.846189v-200.321523h-32.846189z" fill="#4c4cff"/><path clip-path="url(#a)" d="m249.988058 231.945981h32.846189v-191.886933h-32.846189z" fill="#4c4cff"/><path clip-path="url(#a)" d="m288.630634 225.198309h32.846189v-185.139261h-32.846189z" fill="#4c4cff"/><path clip-path="url(#a)" d="m327.27321 219.800171h32.84619v-179.741123h-32.84619z" fill="#4c4cff"/><path clip-path="url(#a)" d="m365.915786 215.48166h32.84619v-175.422612h-32.84619z" fill="#4c4cff"/><path clip-path="url(#a)" d="m404.558362 212.026852h32.84619v-171.967804h-32.84619z" fill="#4c4cff"/><path clip-path="url(#a)" d="m443.200938 209.263005h32.84619v-169.203957h-32.84619z" fill="#4c4cff"/><path clip-path="url(#a)" d="m481.843514 207.051928h32.84619v-166.99288h-32.84619z" fill="#4c4cff"/><path clip-path="url(#a)" d="m520.48609 205.283066h32.84619v-165.224018h-32.84619z" fill="#4c4cff"/><path clip-path="url(#a)" d="m559.128666 203.867977h32.84619v-163.808929h-32.84619z" fill="#4c4cff"/><path clip-path="url(#a)" d="m597.771242 202.735905h32.84619v-162.676857h-32.84619z" fill="#4c4cff"/><path clip-path="url(#a)" d="m111.840848 303.64v-276.76" fill="none" stroke="#b0b0b0" stroke-linecap="square" stroke-width=".8"/><use stroke="#000" stroke-width=".8" x="111.841" xlink:href="#b" y="303.64"/><use transform="matrix(.1 0 0 -.1 108.659598 318.238437)" xlink:href="#c"/><path clip-path="url(#a)" d="m189.126001 303.64v-276.76" fill="none" stroke="#b0b0b0" stroke-linecap="square" stroke-width=".8"/><use stroke="#000" stroke-width=".8" x="189.126" xlink:href="#b" y="303.64"/><use transform="matrix(.1 0 0 -.1 185.944751 318.238437)" xlink:href="#d"/><path clip-path="url(#a)" d="m266.411153 303.64v-276.76" fill="none" stroke="#b0b0b0" stroke-linecap="square" stroke-width=".8"/><use stroke="#000" stroke-width=".8" x="266.411" xlink:href="#b" y="303.64"/><path d="m33.015625 40.375q-6.640625 0-10.53125-4.546875-3.875-4.53125-3.875-12.4375 0-7.859375 3.875-12.4375 3.890625-4.5625 10.53125-4.5625 6.640625 0 10.515625 4.5625 3.875 4.578125 3.875 12.4375 0 7.90625-3.875 12.4375-3.875 4.546875-10.515625 4.546875zm19.578125 30.921875v-8.984375q-3.71875 1.75-7.5 2.671875-3.78125.9375-7.5.9375-9.765625 0-14.921875-6.59375-5.140625-6.59375-5.875-19.921875 2.875 4.25 7.21875 6.515625 4.359375 2.265625 9.578125 2.265625 10.984375 0 17.359375-6.671875 6.375-6.65625 6.375-18.125 0-11.234375-6.640625-18.03125-6.640625-6.78125-17.671875-6.78125-12.65625 0-19.34375 9.6875-6.6875 9.703125-6.6875 28.109375 0 17.28125 8.203125 27.5625 8.203125 10.28125 22.015625 10.28125 3.71875 0 7.5-.734375 3.78125-.734375 7.890625-2.1875z" transform="matrix(.1 0 0 -.1 263.229903 318.238437)"/><path clip-path="url(#a)" d="m343.696305 303.64v-276.76" fill="none" stroke="#b0b0b0" stroke-linecap="square" stroke-width=".8"/><use stroke="#000" stroke-width=".8" x="343.696" xlink:href="#b" y="303.64"/><path d="m31.78125 34.625q-7.03125 0-11.0625-3.765625-4.015625-3.765625-4.015625-10.34375 0-6.59375 4.015625-10.359375 4.03125-3.765625 11.0625-3.765625 7.03125 0 11.078125 3.78125 4.0625 3.796875 4.0625 10.34375 0 6.578125-4.03125 10.34375-4.015625 3.765625-11.109375 3.765625zm-9.859375 4.1875q-6.34375 1.5625-9.890625 5.90625-3.53125 4.359375-3.53125 10.609375 0 8.734375 6.21875 13.8125 6.234375 5.078125 17.0625 5.078125 10.890625 0 17.09375-5.078125 6.203125-5.078125 6.203125-13.8125 0-6.25-3.546875-10.609375-3.53125-4.34375-9.828125-5.90625 7.125-1.65625 11.09375-6.5 3.984375-4.828125 3.984375-11.796875 0-10.609375-6.46875-16.28125-6.46875-5.65625-18.53125-5.65625-12.046875 0-18.53125 5.65625-6.46875 5.671875-6.46875 16.28125 0 6.96875 4 11.796875 4.015625 4.84375 11.140625 6.5zm-3.609375 15.578125q0-5.65625 3.53125-8.828125 3.546875-3.171875 9.9375-3.171875 6.359375 0 9.9375 3.171875 3.59375 3.171875 3.59375 8.828125 0 5.671875-3.59375 8.84375-3.578125 3.171875-9.9375 3.171875-6.390625 0-9.9375-3.171875-3.53125-3.171875-3.53125-8.84375z" transform="matrix(.1 0 0 -.1 340.515055 318.238437)"/><path clip-path="url(#a)" d="m420.981457 303.64v-276.76" fill="none" stroke="#b0b0b0" stroke-linecap="square" stroke-width=".8"/><use stroke="#000" stroke-width=".8" x="420.981" xlink:href="#b" y="303.64"/><g transform="matrix(.1 0 0 -.1 414.618957 318.238437)"><use xlink:href="#e"/><use x="63.623" xlink:href="#f"/></g><path clip-path="url(#a)" d="m498.266609 303.64v-276.76" fill="none" stroke="#b0b0b0" stroke-linecap="square" stroke-width=".8"/><use stroke="#000" stroke-width=".8" x="498.267" xlink:href="#b" y="303.64"/><g transform="matrix(.1 0 0 -.1 491.904109 318.238437)"><use xlink:href="#e"/><use x="63.623" xlink:href="#c"/></g><path clip-path="url(#a)" d="m575.551761 303.64v-276.76" fill="none" stroke="#b0b0b0" stroke-linecap="square" stroke-width=".8"/><use stroke="#000" stroke-width=".8" x="575.552" xlink:href="#b" y="303.64"/><g transform="matrix(.1 0 0 -.1 569.189261 318.238437)"><use xlink:href="#e"/><use x="63.623" xlink:href="#d"/></g><g transform="matrix(.1 0 0 -.1 291.610367 331.916562)"><use xlink:href="#g"/><use x="63.379" xlink:href="#h"/><path d="m52 44.1875q3.375 6.0625 8.0625 8.9375 4.6875 2.875 11.03125 2.875 8.546875 0 13.1875-5.984375 4.640625-5.96875 4.640625-17v-33.015625h-9.03125v32.71875q0 7.859375-2.796875 11.65625-2.78125 3.8125-8.484375 3.8125-6.984375 0-11.046875-4.640625-4.046875-4.625-4.046875-12.640625v-30.90625h-9.03125v32.71875q0 7.90625-2.78125 11.6875-2.78125 3.78125-8.59375 3.78125-6.890625 0-10.953125-4.65625-4.046875-4.65625-4.046875-12.625v-30.90625h-9.03125v54.6875h9.03125v-8.5q3.078125 5.03125 7.375 7.421875 4.296875 2.390625 10.203125 2.390625 5.96875 0 10.140625-3.03125 4.171875-3.015625 6.171875-8.78125z" transform="translate(126.757812)"/><use x="224.17" xlink:href="#i"/><use x="287.646" xlink:href="#j"/><use x="349.17" xlink:href="#k"/><use x="422.07" xlink:href="#l"/><path d="m37.109375 75.984375v-7.484375h-8.59375q-4.828125 0-6.71875-1.953125-1.875-1.953125-1.875-7.03125v-4.828125h14.796875v-6.984375h-14.796875v-47.703125h-9.03125v47.703125h-8.59375v6.984375h8.59375v3.8125q0 9.125 4.25 13.296875 4.25 4.1875 13.46875 4.1875z" transform="translate(483.251953)"/><use x="550.244" xlink:href="#m"/><use x="632.031" xlink:href="#n"/><use x="659.814" xlink:href="#o"/><use x="699.023" xlink:href="#g"/><use x="762.402" xlink:href="#j"/><use x="823.926" xlink:href="#p"/><use x="876.025" xlink:href="#p"/><use x="928.125" xlink:href="#j"/><use x="989.648" xlink:href="#p"/></g><path clip-path="url(#a)" d="m53.876984 303.64h579.638641" fill="none" stroke="#b0b0b0" stroke-linecap="square" stroke-width=".8"/><use stroke="#000" stroke-width=".8" x="53.877" xlink:href="#q" y="303.64"/><use transform="matrix(.1 0 0 -.1 40.514484 307.439219)" xlink:href="#f"/><path clip-path="url(#a)" d="m53.876984 250.92381h579.638641" fill="none" stroke="#b0b0b0" stroke-linecap="square" stroke-width=".8"/><use stroke="#000" stroke-width=".8" x="53.877" xlink:href="#q" y="250.924"/><use transform="matrix(.1 0 0 -.1 40.514484 254.723028)" xlink:href="#e"/><path clip-path="url(#a)" d="m53.876984 198.207619h579.638641" fill="none" stroke="#b0b0b0" stroke-linecap="square" stroke-width=".8"/><use stroke="#000" stroke-width=".8" x="53.877" xlink:href="#q" y="198.208"/><use transform="matrix(.1 0 0 -.1 40.514484 202.006838)" xlink:href="#c"/><path clip-path="url(#a)" d="m53.876984 145.491429h579.638641" fill="none" stroke="#b0b0b0" stroke-linecap="square" stroke-width=".8"/><use stroke="#000" stroke-width=".8" x="53.877" xlink:href="#q" y="145.491"/><path d="m40.578125 39.3125q7.078125-1.515625 11.046875-6.3125 3.984375-4.78125 3.984375-11.8125 0-10.78125-7.421875-16.703125-7.421875-5.90625-21.09375-5.90625-4.578125 0-9.4375.90625-4.859375.90625-10.03125 2.71875v9.515625q4.09375-2.390625 8.96875-3.609375 4.890625-1.21875 10.21875-1.21875 9.265625 0 14.125 3.65625 4.859375 3.65625 4.859375 10.640625 0 6.453125-4.515625 10.078125-4.515625 3.640625-12.5625 3.640625h-8.5v8.109375h8.890625q7.265625 0 11.125 2.90625 3.859375 2.90625 3.859375 8.375 0 5.609375-3.984375 8.609375-3.96875 3.015625-11.390625 3.015625-4.0625 0-8.703125-.890625-4.640625-.875-10.203125-2.71875v8.78125q5.625 1.5625 10.53125 2.34375 4.90625.78125 9.25.78125 11.234375 0 17.765625-5.109375 6.546875-5.09375 6.546875-13.78125 0-6.0625-3.46875-10.234375-3.46875-4.171875-9.859375-5.78125z" transform="matrix(.1 0 0 -.1 40.514484 149.290647)"/><path clip-path="url(#a)" d="m53.876984 92.775238h579.638641" fill="none" stroke="#b0b0b0" stroke-linecap="square" stroke-width=".8"/><use stroke="#000" stroke-width=".8" x="53.877" xlink:href="#q" y="92.775"/><use transform="matrix(.1 0 0 -.1 40.514484 96.574457)" xlink:href="#d"/><path clip-path="url(#a)" d="m53.876984 40.059048h579.638641" fill="none" stroke="#b0b0b0" stroke-linecap="square" stroke-width=".8"/><use stroke="#000" stroke-width=".8" x="53.877" xlink:href="#q" y="40.059"/><path d="m10.796875 72.90625h38.71875v-8.3125h-29.6875v-17.859375q2.140625.734375 4.28125 1.09375 2.15625.359375 4.3125.359375 12.203125 0 19.328125-6.6875 7.140625-6.6875 7.140625-18.109375 0-11.765625-7.328125-18.296875-7.328125-6.515625-20.65625-6.515625-4.59375 0-9.359375.78125-4.75.78125-9.828125 2.34375v9.921875q4.390625-2.390625 9.078125-3.5625 4.6875-1.171875 9.90625-1.171875 8.453125 0 13.375 4.4375 4.9375 4.4375 4.9375 12.0625 0 7.609375-4.9375 12.046875-4.921875 4.453125-13.375 4.453125-3.953125 0-7.890625-.875-3.921875-.875-8.015625-2.734375z" transform="matrix(.1 0 0 -.1 40.514484 43.858266)"/><g transform="matrix(0 -.1 -.1 0 34.434797 212.469375)"><use xlink:href="#r"/><use x="44.084" xlink:href="#l"/><use x="105.266" xlink:href="#o"/><use x="144.475" xlink:href="#s"/><path d="m9.421875 75.984375h8.984375v-75.984375h-8.984375z" transform="translate(205.753906)"/><use x="265.324" xlink:href="#k"/><use x="304.188" xlink:href="#j"/><use x="365.711" xlink:href="#m"/><use x="447.498" xlink:href="#s"/><use x="508.777" xlink:href="#k"/><use x="548.141" xlink:href="#t"/><use x="643.404" xlink:href="#u"/><use x="670.895" xlink:href="#h"/><use x="734.273" xlink:href="#g"/><use x="797.652" xlink:href="#n"/><use x="825.436" xlink:href="#o"/><use x="864.645" xlink:href="#p"/><use x="916.744" xlink:href="#u"/></g><g stroke="#f00"><path clip-path="url(#a)" d="m73.198272 250.92381h38.642576 38.642576 38.642577l38.642576 12.651885 38.642576 8.083149 38.642576 5.53269 38.642576 3.980826 38.642576 2.976239 38.642576 2.294621 38.642576 1.814602 38.642576 1.466105 38.642576 1.206533 38.642576 1.008902 38.642576.855514" fill="none" stroke-linecap="square" stroke-width="1.5"/><g clip-path="url(#a)" fill="#f00"><use x="73.198" xlink:href="#v" y="250.924"/><use x="111.841" xlink:href="#v" y="250.924"/><use x="150.483" xlink:href="#v" y="250.924"/><use x="189.126" xlink:href="#v" y="250.924"/><use x="227.769" xlink:href="#v" y="263.576"/><use x="266.411" xlink:href="#v" y="271.659"/><use x="305.054" xlink:href="#v" y="277.192"/><use x="343.696" xlink:href="#v" y="281.172"/><use x="382.339" xlink:href="#v" y="284.149"/><use x="420.981" xlink:href="#v" y="286.443"/><use x="459.624" xlink:href="#v" y="288.258"/><use x="498.267" xlink:href="#v" y="289.724"/><use x="536.909" xlink:href="#v" y="290.93"/><use x="575.552" xlink:href="#v" y="291.939"/><use x="614.194" xlink:href="#v" y="292.795"/></g></g></g><g fill="none" stroke="#000" stroke-linecap="square" stroke-linejoin="miter" stroke-width=".8"><path d="m53.876984 303.64v-276.76"/><path d="m633.515625 303.64v-276.76"/><path d="m53.876984 303.64h579.638641"/><path d="m53.876984 26.88h579.638641"/></g><g stroke-linejoin="round" transform="matrix(.12 0 0 -.12 216.425992 20.88)"><use xlink:href="#w"/><use x="64.982" xlink:href="#j"/><use x="126.506" xlink:href="#m"/><use x="208.293" xlink:href="#s"/><use x="269.572" xlink:href="#k"/><use x="308.936" xlink:href="#t"/><use x="404.199" xlink:href="#t"/><use x="467.676" xlink:href="#n"/><use x="495.459" xlink:href="#p"/><use x="547.559" xlink:href="#o"/><use x="586.768" xlink:href="#k"/><use x="627.881" xlink:href="#n"/><use x="655.664" xlink:href="#i"/><use x="719.141" xlink:href="#h"/><use x="782.52" xlink:href="#o"/><use x="821.729" xlink:href="#n"/><use x="849.512" xlink:href="#l"/><use x="910.693" xlink:href="#g"/><path d="m11.71875 12.40625h10.296875v-8.40625l-8-15.625h-6.296875l4 15.625z" transform="translate(974.072266)"/><use x="1037.646" xlink:href="#t"/><use x="1101.123" xlink:href="#j"/><use x="1162.646" xlink:href="#p"/><use x="1214.746" xlink:href="#n"/><use x="1242.529" xlink:href="#k"/><use x="1281.393" xlink:href="#j"/><use x="1342.916" xlink:href="#t"/><use x="1438.18" xlink:href="#k"/><use x="1477.043" xlink:href="#j"/><use x="1538.566" xlink:href="#t"/><use x="1602.043" xlink:href="#h"/><use x="1665.422" xlink:href="#g"/><use x="1728.801" xlink:href="#t"/><use x="1792.277" xlink:href="#s"/><use x="1853.557" xlink:href="#g"/><path d="m48.78125 52.59375v-8.40625q-3.8125 2.109375-7.640625 3.15625-3.828125 1.046875-7.734375 1.046875-8.75 0-13.59375-5.546875-4.828125-5.53125-4.828125-15.546875 0-10.015625 4.828125-15.5625 4.84375-5.53125 13.59375-5.53125 3.90625 0 7.734375 1.046875 3.828125 1.046875 7.640625 3.15625v-8.3125q-3.765625-1.75-7.796875-2.625-4.015625-.890625-8.5625-.890625-12.359375 0-19.640625 7.765625-7.265625 7.765625-7.265625 20.953125 0 13.375 7.34375 21.03125 7.359375 7.671875 20.15625 7.671875 4.140625 0 8.09375-.859375 3.953125-.84375 7.671875-2.546875z" transform="translate(1916.935547)"/><path d="m32.171875-5.078125q-3.796875-9.765625-7.421875-12.734375-3.609375-2.984375-9.65625-2.984375h-7.1875v7.515625h5.28125q3.703125 0 5.75 1.765625 2.0625 1.75 4.546875 8.296875l1.609375 4.09375-22.109375 53.8125h9.515625l17.09375-42.765625 17.09375 42.765625h9.515625z" transform="translate(1971.916016)"/><path d="m11.71875 12.40625h10.296875v-12.40625h-10.296875zm0 39.296875h10.296875v-12.390625h-10.296875z" transform="translate(2023.845703)"/><use x="2057.537" xlink:href="#d"/></g><g stroke-linejoin="round"><path d="m60.876984 79.7925h98.2q2 0 2-2v-43.9125q0-2-2-2h-98.2q-2 0-2 2v43.9125q0 2 2 2z" fill="#fff" opacity=".8" stroke="#ccc" stroke-linejoin="miter"/><g stroke-linejoin="round"><path d="m62.876984 39.978437h20" fill="none" stroke="#f00" stroke-linecap="square" stroke-width="1.5"/><use fill="#f00" stroke="#f00" x="72.877" xlink:href="#v" y="39.978"/><g transform="matrix(.1 0 0 -.1 90.876984 43.478437)"><use xlink:href="#w"/><use x="64.982" xlink:href="#j"/><use x="126.506" xlink:href="#m"/><use x="208.293" xlink:href="#s"/><use x="269.572" xlink:href="#k"/><use x="308.936" xlink:href="#t"/><use x="372.412" xlink:href="#x"/><use x="422.412" xlink:href="#w"/><use x="491.895" xlink:href="#y"/></g><path d="m62.876984 58.434687h20v-7h-20z" fill="#ffa500"/><g transform="matrix(.1 0 0 -.1 90.876984 58.434687)"><use xlink:href="#w"/><use x="64.982" xlink:href="#j"/><use x="126.506" xlink:href="#m"/><use x="208.293" xlink:href="#s"/><use x="269.572" xlink:href="#k"/><use x="308.936" xlink:href="#t"/><use x="372.412" xlink:href="#x"/><use x="422.412" xlink:href="#r"/><use x="483.496" xlink:href="#y"/></g><path d="m62.876984 73.3925h20v-7h-20z" fill="#4c4cff"/><g transform="matrix(.1 0 0 -.1 90.876984 73.3925)"><path d="m21.140625 8.296875h35.640625v-8.296875h-46.96875v8.296875l23.390625 30.46875-23.390625 25.828125v8.3125h46.09375v-8.3125h-34.765625l23.390625-25.625z" transform="translate(0 .015625)"/><use transform="translate(94.970703 .015625)" xlink:href="#w"/><use transform="translate(164.453125 .015625)" xlink:href="#j"/><use transform="translate(225.976562 .015625)" xlink:href="#m"/><use transform="translate(307.763672 .015625)" xlink:href="#s"/><use transform="translate(369.042969 .015625)" xlink:href="#k"/><use transform="translate(410.15625 .015625)" xlink:href="#t"/><use transform="translate(473.632812 .015625)" xlink:href="#x"/><use transform="translate(523.632812 .015625)" xlink:href="#w"/><use transform="translate(593.115234 .015625)" xlink:href="#y"/></g></g></g></g></svg>