<?xml version="1.0" encoding="UTF-8" standalone="no"?>
<!DOCTYPE svg PUBLIC "-//W3C//DTD SVG 1.1//EN" "http://www.w3.org/Graphics/SVG/1.1/DTD/svg11.dtd">
<!-- Generated by Microsoft Visio, SVG Export TopologyExamples.svg Page-1 -->
<svg xmlns="http://www.w3.org/2000/svg" xmlns:xlink="http://www.w3.org/1999/xlink" xmlns:ev="http://www.w3.org/2001/xml-events"
		xmlns:v="http://schemas.microsoft.com/visio/2003/SVGExtensions/" width="8.2212in" height="4.2212in"
		viewBox="0 0 591.926 303.926" xml:space="preserve" color-interpolation-filters="sRGB" class="st11">
	<v:documentProperties v:langID="1033" v:viewMarkup="false">
		<v:userDefs>
			<v:ud v:nameU="msvNoAutoConnect" v:val="VT0(1):26"/>
		</v:userDefs>
	</v:documentProperties>

	<style type="text/css">
	<![CDATA[
		.st1 {fill:#ffffff;stroke:none;stroke-linecap:round;stroke-linejoin:round;stroke-width:0.75}
		.st2 {fill:#92d050;stroke:#000000;stroke-linecap:round;stroke-linejoin:round;stroke-width:0.75}
		.st3 {fill:#000000;font-family:Calibri;font-size:1.00001em}
		.st4 {marker-end:url(#mrkr5-26);marker-start:url(#mrkr5-24);stroke:#000000;stroke-linecap:round;stroke-linejoin:round;stroke-width:0.75}
		.st5 {fill:#000000;fill-opacity:1;stroke:#000000;stroke-opacity:1;stroke-width:0.22935779816514}
		.st6 {stroke:#000000;stroke-linecap:round;stroke-linejoin:round;stroke-width:0.75}
		.st7 {fill:none;stroke:none;stroke-linecap:round;stroke-linejoin:round;stroke-width:0.75}
		.st8 {marker-end:url(#mrkr5-26);stroke:#000000;stroke-linecap:round;stroke-linejoin:round;stroke-width:0.75}
		.st9 {font-size:1em}
		.st10 {fill:#000000;font-family:Calibri;font-size:1.33333em;font-weight:bold}
		.st11 {fill:none;fill-rule:evenodd;font-size:12px;overflow:visible;stroke-linecap:square;stroke-miterlimit:3}
	]]>
	</style>

	<defs id="Markers">
		<g id="lend5">
			<path d="M 2 1 L 0 0 L 1.98117 -0.993387 C 1.67173 -0.364515 1.67301 0.372641 1.98465 1.00043 " style="stroke:none"/>
		</g>
		<marker id="mrkr5-24" class="st5" v:arrowType="5" v:arrowSize="2" v:setback="7.15" refX="7.15" orient="auto"
				markerUnits="strokeWidth" overflow="visible">
			<use xlink:href="#lend5" transform="scale(4.36) "/>
		</marker>
		<marker id="mrkr5-26" class="st5" v:arrowType="5" v:arrowSize="2" v:setback="7.63" refX="-7.63" orient="auto"
				markerUnits="strokeWidth" overflow="visible">
			<use xlink:href="#lend5" transform="scale(-4.36,-4.36) "/>
		</marker>
	</defs>
	<g v:mID="0" v:index="1" v:groupContext="foregroundPage">
		<title>Page-1</title>
		<v:pageProperties v:drawingScale="1" v:pageScale="1" v:drawingUnits="19" v:shadowOffsetX="9" v:shadowOffsetY="-9"/>
		<g id="shape141-1" v:mID="141" v:groupContext="shape" transform="translate(1.125,-1.125)">
			<title>Sheet.141</title>
			<rect x="0" y="2.4263" width="589.5" height="301.5" class="st1"/>
		</g>
		<g id="shape5-3" v:mID="5" v:groupContext="shape" transform="translate(420.75,-122.5)">
			<title>Sheet.5</title>
			<desc>A</desc>
			<v:textBlock v:margins="rect(4,4,4,4)"/>
			<v:textRect cx="9" cy="294.926" width="18" height="18"/>
			<ellipse cx="9" cy="294.926" rx="9" ry="9" class="st2"/>
			<text x="5.53" y="298.53" class="st3" v:langID="1033"><v:paragraph v:horizAlign="1"/><v:tabList/>A</text>		</g>
		<g id="shape6-6" v:mID="6" v:groupContext="shape" transform="translate(477,-165.25)">
			<title>Sheet.6</title>
			<desc>E</desc>
			<v:textBlock v:margins="rect(4,4,4,4)"/>
			<v:textRect cx="9" cy="294.926" width="18" height="18"/>
			<ellipse cx="9" cy="294.926" rx="9" ry="9" class="st2"/>
			<text x="6.07" y="298.53" class="st3" v:langID="1033"><v:paragraph v:horizAlign="1"/><v:tabList/>E</text>		</g>
		<g id="shape7-9" v:mID="7" v:groupContext="shape" transform="translate(533.25,-122.5)">
			<title>Sheet.7</title>
			<desc>D</desc>
			<v:textBlock v:margins="rect(4,4,4,4)"/>
			<v:textRect cx="9" cy="294.926" width="18" height="18"/>
			<ellipse cx="9" cy="294.926" rx="9" ry="9" class="st2"/>
			<text x="5.31" y="298.53" class="st3" v:langID="1033"><v:paragraph v:horizAlign="1"/><v:tabList/>D</text>		</g>
		<g id="shape8-12" v:mID="8" v:groupContext="shape" transform="translate(506.25,-66.25)">
			<title>Sheet.8</title>
			<desc>C</desc>
			<v:textBlock v:margins="rect(4,4,4,4)"/>
			<v:textRect cx="9" cy="294.926" width="18" height="18"/>
			<ellipse cx="9" cy="294.926" rx="9" ry="9" class="st2"/>
			<text x="5.8" y="298.53" class="st3" v:langID="1033"><v:paragraph v:horizAlign="1"/><v:tabList/>C</text>		</g>
		<g id="shape9-15" v:mID="9" v:groupContext="shape" transform="translate(450,-66.25)">
			<title>Sheet.9</title>
			<desc>B</desc>
			<v:textBlock v:margins="rect(4,4,4,4)"/>
			<v:textRect cx="9" cy="294.926" width="18" height="18"/>
			<ellipse cx="9" cy="294.926" rx="9" ry="9" class="st2"/>
			<text x="5.74" y="298.53" class="st3" v:langID="1033"><v:paragraph v:horizAlign="1"/><v:tabList/>B</text>		</g>
		<g id="shape10-18" v:mID="10" v:groupContext="shape" transform="translate(438.75,-131.5)">
			<title>Sheet.10</title>
			<path d="M5.36 303.93 L5.72 303.93 L88.78 303.93" class="st4"/>
		</g>
		<g id="shape11-27" v:mID="11" v:groupContext="shape" transform="translate(260.171,-79.3416) rotate(-35.5728)">
			<title>Sheet.11</title>
			<path d="M5.36 303.93 L5.72 303.93 L48.35 303.93" class="st4"/>
		</g>
		<g id="shape12-34" v:mID="12" v:groupContext="shape" transform="translate(704.073,37.8541) rotate(62.411)">
			<title>Sheet.12</title>
			<path d="M5.36 303.93 L5.72 303.93 L41.19 303.93" class="st4"/>
		</g>
		<g id="shape14-41" v:mID="14" v:groupContext="shape" transform="translate(603.566,-78.2356) rotate(33.1173)">
			<title>Sheet.14</title>
			<path d="M5.36 303.93 L5.72 303.93 L78.17 303.93" class="st4"/>
		</g>
		<g id="shape15-48" v:mID="15" v:groupContext="shape" transform="translate(467.92,-76.4473)">
			<title>Sheet.15</title>
			<path d="M5.36 303.93 L5.72 303.93 L32.69 303.93" class="st4"/>
		</g>
		<g id="shape16-55" v:mID="16" v:groupContext="shape" transform="translate(243.924,91.2109) rotate(-64.8268)">
			<title>Sheet.16</title>
			<path d="M5.36 303.93 L5.72 303.93 L38.69 303.93" class="st4"/>
		</g>
		<g id="shape17-62" v:mID="17" v:groupContext="shape" transform="translate(378.631,424.015) rotate(-148.509)">
			<title>Sheet.17</title>
			<path d="M5.36 303.93 L5.72 303.93 L48.66 303.93" class="st4"/>
		</g>
		<g id="shape18-69" v:mID="18" v:groupContext="shape" transform="translate(774.322,41.6225) rotate(71.3788)">
			<title>Sheet.18</title>
			<path d="M5.36 303.93 L5.72 303.93 L79.79 303.93" class="st4"/>
		</g>
		<g id="shape19-76" v:mID="19" v:groupContext="shape" transform="translate(701.501,429.175) rotate(146.56)">
			<title>Sheet.19</title>
			<path d="M5.36 303.93 L5.72 303.93 L78.25 303.93" class="st4"/>
		</g>
		<g id="shape20-83" v:mID="20" v:groupContext="shape" transform="translate(775.875,220.41) rotate(105.71)">
			<title>Sheet.20</title>
			<path d="M5.36 303.93 L5.72 303.93 L79.14 303.93" class="st4"/>
		</g>
		<g id="shape31-90" v:mID="31" v:groupContext="shape" transform="translate(249.75,-124.75)">
			<title>Sheet.31</title>
			<desc>F</desc>
			<v:textBlock v:margins="rect(4,4,4,4)"/>
			<v:textRect cx="9" cy="294.926" width="18" height="18"/>
			<ellipse cx="9" cy="294.926" rx="9" ry="9" class="st2"/>
			<text x="6.24" y="298.53" class="st3" v:langID="1033"><v:paragraph v:horizAlign="1"/><v:tabList/>F</text>		</g>
		<g id="shape32-93" v:mID="32" v:groupContext="shape" transform="translate(303.75,-156.25)">
			<title>Sheet.32</title>
			<desc>E</desc>
			<v:textBlock v:margins="rect(4,4,4,4)"/>
			<v:textRect cx="9" cy="294.926" width="18" height="18"/>
			<ellipse cx="9" cy="294.926" rx="9" ry="9" class="st2"/>
			<text x="6.07" y="298.53" class="st3" v:langID="1033"><v:paragraph v:horizAlign="1"/><v:tabList/>E</text>		</g>
		<g id="shape33-96" v:mID="33" v:groupContext="shape" transform="translate(357.75,-124.75)">
			<title>Sheet.33</title>
			<desc>D</desc>
			<v:textBlock v:margins="rect(4,4,4,4)"/>
			<v:textRect cx="9" cy="294.926" width="18" height="18"/>
			<ellipse cx="9" cy="294.926" rx="9" ry="9" class="st2"/>
			<text x="5.31" y="298.53" class="st3" v:langID="1033"><v:paragraph v:horizAlign="1"/><v:tabList/>D</text>		</g>
		<g id="shape34-99" v:mID="34" v:groupContext="shape" transform="translate(328.5,-70.75)">
			<title>Sheet.34</title>
			<desc>C</desc>
			<v:textBlock v:margins="rect(4,4,4,4)"/>
			<v:textRect cx="9" cy="294.926" width="18" height="18"/>
			<ellipse cx="9" cy="294.926" rx="9" ry="9" class="st2"/>
			<text x="5.8" y="298.53" class="st3" v:langID="1033"><v:paragraph v:horizAlign="1"/><v:tabList/>C</text>		</g>
		<g id="shape35-102" v:mID="35" v:groupContext="shape" transform="translate(276.75,-75.25)">
			<title>Sheet.35</title>
			<desc>B</desc>
			<v:textBlock v:margins="rect(4,4,4,4)"/>
			<v:textRect cx="9" cy="294.926" width="18" height="18"/>
			<ellipse cx="9" cy="294.926" rx="9" ry="9" class="st2"/>
			<text x="5.74" y="298.53" class="st3" v:langID="1033"><v:paragraph v:horizAlign="1"/><v:tabList/>B</text>		</g>
		<g id="shape46-105" v:mID="46" v:groupContext="shape" transform="translate(303.75,-111.25)">
			<title>Sheet.46</title>
			<desc>A</desc>
			<v:textBlock v:margins="rect(4,4,4,4)"/>
			<v:textRect cx="9" cy="294.926" width="18" height="18"/>
			<ellipse cx="9" cy="294.926" rx="9" ry="9" class="st2"/>
			<text x="5.53" y="298.53" class="st3" v:langID="1033"><v:paragraph v:horizAlign="1"/><v:tabList/>A</text>		</g>
		<g id="shape47-108" v:mID="47" v:groupContext="shape" transform="translate(251.265,-113.924) rotate(-13.3701)">
			<title>Sheet.47</title>
			<path d="M5.36 303.93 L5.72 303.93 L31.97 303.93" class="st4"/>
		</g>
		<g id="shape48-115" v:mID="48" v:groupContext="shape" transform="translate(8.8237,174.809) rotate(-90)">
			<title>Sheet.48</title>
			<path d="M5.36 303.93 L5.72 303.93 L21.41 303.93" class="st4"/>
		</g>
		<g id="shape49-122" v:mID="49" v:groupContext="shape" transform="translate(237.515,475.851) rotate(-167.21)">
			<title>Sheet.49</title>
			<path d="M5.36 303.93 L5.72 303.93 L32.31 303.93" class="st4"/>
		</g>
		<g id="shape50-129" v:mID="50" v:groupContext="shape" transform="translate(522.792,406.155) rotate(135)">
			<title>Sheet.50</title>
			<path d="M5.36 303.93 L5.72 303.93 L22.21 303.93" class="st4"/>
		</g>
		<g id="shape51-136" v:mID="51" v:groupContext="shape" transform="translate(576.694,31.4142) rotate(58.3324)">
			<title>Sheet.51</title>
			<path d="M5.36 303.93 L5.72 303.93 L23.81 303.93" class="st4"/>
		</g>
		<g id="shape125-143" v:mID="125" v:groupContext="shape" transform="translate(67.5,-246.25)">
			<title>Sheet.125</title>
			<desc>A</desc>
			<v:textBlock v:margins="rect(4,4,4,4)"/>
			<v:textRect cx="9" cy="294.926" width="18" height="18"/>
			<ellipse cx="9" cy="294.926" rx="9" ry="9" class="st2"/>
			<text x="5.53" y="298.53" class="st3" v:langID="1033"><v:paragraph v:horizAlign="1"/><v:tabList/>A</text>		</g>
		<g id="shape126-146" v:mID="126" v:groupContext="shape" transform="translate(121.5,-246.25)">
			<title>Sheet.126</title>
			<desc>B</desc>
			<v:textBlock v:margins="rect(4,4,4,4)"/>
			<v:textRect cx="9" cy="294.926" width="18" height="18"/>
			<ellipse cx="9" cy="294.926" rx="9" ry="9" class="st2"/>
			<text x="5.74" y="298.53" class="st3" v:langID="1033"><v:paragraph v:horizAlign="1"/><v:tabList/>B</text>		</g>
		<g id="shape127-149" v:mID="127" v:groupContext="shape" transform="translate(85.5,-255.25)">
			<title>Sheet.127</title>
			<path d="M5.36 303.93 L5.72 303.93 L30.28 303.93" class="st4"/>
		</g>
		<g id="group128-156" transform="translate(31.5,-39.25)" v:mID="128" v:groupContext="group">
			<title>Sheet.128</title>
			<g id="group123-157" transform="translate(9,-9)" v:mID="123" v:groupContext="group">
				<title>Sheet.123</title>
				<g id="group108-158" v:mID="108" v:groupContext="group">
					<title>Sheet.108</title>
					<g id="group104-159" v:mID="104" v:groupContext="group">
						<title>Sheet.104</title>
						<g id="shape102-160" v:mID="102" v:groupContext="shape" transform="translate(375.926,159.926) rotate(90)">
							<title>Sheet.102</title>
							<path d="M0 303.93 L144 303.93" class="st6"/>
						</g>
						<g id="shape103-163" v:mID="103" v:groupContext="shape" transform="translate(0,-72)">
							<title>Sheet.103</title>
							<path d="M0 303.93 L144 303.93" class="st6"/>
						</g>
					</g>
					<g id="group105-166" transform="translate(-142.908,118.841) rotate(-45)" v:mID="105" v:groupContext="group">
						<title>Sheet.105</title>
						<g id="shape106-167" v:mID="106" v:groupContext="shape" transform="translate(375.926,159.926) rotate(90)">
							<title>Sheet.106</title>
							<path d="M0 303.93 L144 303.93" class="st6"/>
						</g>
						<g id="shape107-170" v:mID="107" v:groupContext="shape" transform="translate(0,-72)">
							<title>Sheet.107</title>
							<path d="M0 303.93 L144 303.93" class="st6"/>
						</g>
					</g>
				</g>
				<g id="group109-173" transform="translate(-106.114,67.0722) rotate(-30)" v:mID="109" v:groupContext="group">
					<title>Sheet.109</title>
					<g id="group110-174" v:mID="110" v:groupContext="group">
						<title>Sheet.110</title>
						<g id="shape111-175" v:mID="111" v:groupContext="shape" transform="translate(375.926,159.926) rotate(90)">
							<title>Sheet.111</title>
							<path d="M0 303.93 L144 303.93" class="st6"/>
						</g>
						<g id="shape112-178" v:mID="112" v:groupContext="shape" transform="translate(0,-72)">
							<title>Sheet.112</title>
							<path d="M0 303.93 L144 303.93" class="st6"/>
						</g>
					</g>
					<g id="group113-181" transform="translate(-142.908,118.841) rotate(-45)" v:mID="113" v:groupContext="group">
						<title>Sheet.113</title>
						<g id="shape114-182" v:mID="114" v:groupContext="shape" transform="translate(375.926,159.926) rotate(90)">
							<title>Sheet.114</title>
							<path d="M0 303.93 L144 303.93" class="st6"/>
						</g>
						<g id="shape115-185" v:mID="115" v:groupContext="shape" transform="translate(0,-72)">
							<title>Sheet.115</title>
							<path d="M0 303.93 L144 303.93" class="st6"/>
						</g>
					</g>
				</g>
				<g id="group116-188" transform="translate(125.813,-4.92777) rotate(30)" v:mID="116" v:groupContext="group">
					<title>Sheet.116</title>
					<g id="group117-189" v:mID="117" v:groupContext="group">
						<title>Sheet.117</title>
						<g id="shape118-190" v:mID="118" v:groupContext="shape" transform="translate(375.926,159.926) rotate(90)">
							<title>Sheet.118</title>
							<path d="M0 303.93 L144 303.93" class="st6"/>
						</g>
						<g id="shape119-193" v:mID="119" v:groupContext="shape" transform="translate(0,-72)">
							<title>Sheet.119</title>
							<path d="M0 303.93 L144 303.93" class="st6"/>
						</g>
					</g>
					<g id="group120-196" transform="translate(-142.908,118.841) rotate(-45)" v:mID="120" v:groupContext="group">
						<title>Sheet.120</title>
						<g id="shape121-197" v:mID="121" v:groupContext="shape" transform="translate(375.926,159.926) rotate(90)">
							<title>Sheet.121</title>
							<path d="M0 303.93 L144 303.93" class="st6"/>
						</g>
						<g id="shape122-200" v:mID="122" v:groupContext="shape" transform="translate(0,-72)">
							<title>Sheet.122</title>
							<path d="M0 303.93 L144 303.93" class="st6"/>
						</g>
					</g>
				</g>
			</g>
			<g id="group74-203" v:mID="74" v:groupContext="group">
				<title>Sheet.74</title>
				<g id="group59-204" v:mID="59" v:groupContext="group">
					<title>Sheet.59</title>
					<g id="group54-205" transform="translate(0,-72)" v:mID="54" v:groupContext="group">
						<title>Sheet.54</title>
						<g id="shape52-206" v:mID="52" v:groupContext="shape">
							<title>Sheet.52</title>
							<ellipse cx="9" cy="294.926" rx="9" ry="9" class="st2"/>
						</g>
						<g id="shape53-208" v:mID="53" v:groupContext="shape" transform="translate(144,0)">
							<title>Sheet.53</title>
							<ellipse cx="9" cy="294.926" rx="9" ry="9" class="st2"/>
						</g>
					</g>
					<g id="group55-210" transform="translate(-213.926,303.926) rotate(-90)" v:mID="55" v:groupContext="group">
						<title>Sheet.55</title>
						<g id="shape56-211" v:mID="56" v:groupContext="shape">
							<title>Sheet.56</title>
							<ellipse cx="9" cy="294.926" rx="9" ry="9" class="st2"/>
						</g>
						<g id="shape57-213" v:mID="57" v:groupContext="shape" transform="translate(144,0)">
							<title>Sheet.57</title>
							<ellipse cx="9" cy="294.926" rx="9" ry="9" class="st2"/>
						</g>
					</g>
				</g>
				<g id="group60-215" transform="translate(-100.611,70.3665) rotate(-30)" v:mID="60" v:groupContext="group">
					<title>Sheet.60</title>
					<g id="group61-216" transform="translate(0,-72)" v:mID="61" v:groupContext="group">
						<title>Sheet.61</title>
						<g id="shape62-217" v:mID="62" v:groupContext="shape">
							<title>Sheet.62</title>
							<ellipse cx="9" cy="294.926" rx="9" ry="9" class="st2"/>
						</g>
						<g id="shape63-219" v:mID="63" v:groupContext="shape" transform="translate(144,0)">
							<title>Sheet.63</title>
							<ellipse cx="9" cy="294.926" rx="9" ry="9" class="st2"/>
						</g>
					</g>
					<g id="group64-221" transform="translate(-213.926,303.926) rotate(-90)" v:mID="64" v:groupContext="group">
						<title>Sheet.64</title>
						<g id="shape65-222" v:mID="65" v:groupContext="shape">
							<title>Sheet.65</title>
							<ellipse cx="9" cy="294.926" rx="9" ry="9" class="st2"/>
						</g>
						<g id="shape66-224" v:mID="66" v:groupContext="shape" transform="translate(144,0)">
							<title>Sheet.66</title>
							<ellipse cx="9" cy="294.926" rx="9" ry="9" class="st2"/>
						</g>
					</g>
				</g>
				<g id="group67-226" transform="translate(122.315,-10.6335) rotate(30)" v:mID="67" v:groupContext="group">
					<title>Sheet.67</title>
					<g id="group68-227" transform="translate(0,-72)" v:mID="68" v:groupContext="group">
						<title>Sheet.68</title>
						<g id="shape69-228" v:mID="69" v:groupContext="shape">
							<title>Sheet.69</title>
							<ellipse cx="9" cy="294.926" rx="9" ry="9" class="st2"/>
						</g>
						<g id="shape70-230" v:mID="70" v:groupContext="shape" transform="translate(144,0)">
							<title>Sheet.70</title>
							<ellipse cx="9" cy="294.926" rx="9" ry="9" class="st2"/>
						</g>
					</g>
					<g id="group71-232" transform="translate(-213.926,303.926) rotate(-90)" v:mID="71" v:groupContext="group">
						<title>Sheet.71</title>
						<g id="shape72-233" v:mID="72" v:groupContext="shape">
							<title>Sheet.72</title>
							<ellipse cx="9" cy="294.926" rx="9" ry="9" class="st2"/>
						</g>
						<g id="shape73-235" v:mID="73" v:groupContext="shape" transform="translate(144,0)">
							<title>Sheet.73</title>
							<ellipse cx="9" cy="294.926" rx="9" ry="9" class="st2"/>
						</g>
					</g>
				</g>
			</g>
			<g id="group75-237" transform="translate(-54.9376,28.5604) rotate(-15)" v:mID="75" v:groupContext="group">
				<title>Sheet.75</title>
				<g id="group76-238" v:mID="76" v:groupContext="group">
					<title>Sheet.76</title>
					<g id="group77-239" transform="translate(0,-72)" v:mID="77" v:groupContext="group">
						<title>Sheet.77</title>
						<g id="shape78-240" v:mID="78" v:groupContext="shape">
							<title>Sheet.78</title>
							<ellipse cx="9" cy="294.926" rx="9" ry="9" class="st2"/>
						</g>
						<g id="shape79-242" v:mID="79" v:groupContext="shape" transform="translate(144,0)">
							<title>Sheet.79</title>
							<ellipse cx="9" cy="294.926" rx="9" ry="9" class="st2"/>
						</g>
					</g>
					<g id="group80-244" transform="translate(-213.926,303.926) rotate(-90)" v:mID="80" v:groupContext="group">
						<title>Sheet.80</title>
						<g id="shape81-245" v:mID="81" v:groupContext="shape">
							<title>Sheet.81</title>
							<ellipse cx="9" cy="294.926" rx="9" ry="9" class="st2"/>
						</g>
						<g id="shape82-247" v:mID="82" v:groupContext="shape" transform="translate(144,0)">
							<title>Sheet.82</title>
							<ellipse cx="9" cy="294.926" rx="9" ry="9" class="st2"/>
						</g>
					</g>
				</g>
				<g id="group83-249" transform="translate(-100.611,70.3665) rotate(-30)" v:mID="83" v:groupContext="group">
					<title>Sheet.83</title>
					<g id="group84-250" transform="translate(0,-72)" v:mID="84" v:groupContext="group">
						<title>Sheet.84</title>
						<g id="shape85-251" v:mID="85" v:groupContext="shape">
							<title>Sheet.85</title>
							<ellipse cx="9" cy="294.926" rx="9" ry="9" class="st2"/>
						</g>
						<g id="shape86-253" v:mID="86" v:groupContext="shape" transform="translate(144,0)">
							<title>Sheet.86</title>
							<ellipse cx="9" cy="294.926" rx="9" ry="9" class="st2"/>
						</g>
					</g>
					<g id="group87-255" transform="translate(-213.926,303.926) rotate(-90)" v:mID="87" v:groupContext="group">
						<title>Sheet.87</title>
						<g id="shape88-256" v:mID="88" v:groupContext="shape">
							<title>Sheet.88</title>
							<ellipse cx="9" cy="294.926" rx="9" ry="9" class="st2"/>
						</g>
						<g id="shape89-258" v:mID="89" v:groupContext="shape" transform="translate(144,0)">
							<title>Sheet.89</title>
							<ellipse cx="9" cy="294.926" rx="9" ry="9" class="st2"/>
						</g>
					</g>
				</g>
				<g id="group90-260" transform="translate(122.315,-10.6335) rotate(30)" v:mID="90" v:groupContext="group">
					<title>Sheet.90</title>
					<g id="group91-261" transform="translate(0,-72)" v:mID="91" v:groupContext="group">
						<title>Sheet.91</title>
						<g id="shape92-262" v:mID="92" v:groupContext="shape">
							<title>Sheet.92</title>
							<ellipse cx="9" cy="294.926" rx="9" ry="9" class="st2"/>
						</g>
						<g id="shape93-264" v:mID="93" v:groupContext="shape" transform="translate(144,0)">
							<title>Sheet.93</title>
							<ellipse cx="9" cy="294.926" rx="9" ry="9" class="st2"/>
						</g>
					</g>
					<g id="group94-266" transform="translate(-213.926,303.926) rotate(-90)" v:mID="94" v:groupContext="group">
						<title>Sheet.94</title>
						<g id="shape95-267" v:mID="95" v:groupContext="shape">
							<title>Sheet.95</title>
							<ellipse cx="9" cy="294.926" rx="9" ry="9" class="st2"/>
						</g>
						<g id="shape96-269" v:mID="96" v:groupContext="shape" transform="translate(144,0)">
							<title>Sheet.96</title>
							<ellipse cx="9" cy="294.926" rx="9" ry="9" class="st2"/>
						</g>
					</g>
				</g>
			</g>
			<g id="shape124-271" v:mID="124" v:groupContext="shape" transform="translate(34.2,-34.2)">
				<title>Sheet.124</title>
				<ellipse cx="46.8" cy="257.126" rx="46.8" ry="46.8" class="st1"/>
			</g>
			<g id="shape97-273" v:mID="97" v:groupContext="shape" transform="translate(-180.577,68.8291) rotate(-45)">
				<title>Sheet.97</title>
				<desc>Fully connected</desc>
				<v:textBlock v:margins="rect(4,4,4,4)"/>
				<v:textRect cx="76" cy="293.926" width="152" height="20"/>
				<rect x="0" y="283.926" width="152" height="20" class="st7"/>
				<text x="37.59" y="297.53" class="st3" v:langID="1033"><v:paragraph v:horizAlign="1"/><v:tabList/>Fully connected</text>			</g>
		</g>
		<g id="group132-276" transform="translate(184.5,-246.25)" v:mID="132" v:groupContext="group">
			<title>Sheet.132</title>
			<g id="shape21-277" v:mID="21" v:groupContext="shape">
				<title>Sheet.21</title>
				<desc>A</desc>
				<v:textBlock v:margins="rect(4,4,4,4)"/>
				<v:textRect cx="9" cy="294.926" width="18" height="18"/>
				<ellipse cx="9" cy="294.926" rx="9" ry="9" class="st2"/>
				<text x="5.53" y="298.53" class="st3" v:langID="1033"><v:paragraph v:horizAlign="1"/><v:tabList/>A</text>			</g>
			<g id="shape22-280" v:mID="22" v:groupContext="shape" transform="translate(45,0)">
				<title>Sheet.22</title>
				<desc>B</desc>
				<v:textBlock v:margins="rect(4,4,4,4)"/>
				<v:textRect cx="9" cy="294.926" width="18" height="18"/>
				<ellipse cx="9" cy="294.926" rx="9" ry="9" class="st2"/>
				<text x="5.74" y="298.53" class="st3" v:langID="1033"><v:paragraph v:horizAlign="1"/><v:tabList/>B</text>			</g>
			<g id="shape24-283" v:mID="24" v:groupContext="shape" transform="translate(18,-9)">
				<title>Sheet.24</title>
				<path d="M0 303.93 L21.28 303.93" class="st8"/>
			</g>
			<g id="shape25-288" v:mID="25" v:groupContext="shape" transform="translate(90,0)">
				<title>Sheet.25</title>
				<desc>C</desc>
				<v:textBlock v:margins="rect(4,4,4,4)"/>
				<v:textRect cx="9" cy="294.926" width="18" height="18"/>
				<ellipse cx="9" cy="294.926" rx="9" ry="9" class="st2"/>
				<text x="5.8" y="298.53" class="st3" v:langID="1033"><v:paragraph v:horizAlign="1"/><v:tabList/>C</text>			</g>
			<g id="shape27-291" v:mID="27" v:groupContext="shape" transform="translate(135,0)">
				<title>Sheet.27</title>
				<desc>D</desc>
				<v:textBlock v:margins="rect(4,4,4,4)"/>
				<v:textRect cx="9" cy="294.926" width="18" height="18"/>
				<ellipse cx="9" cy="294.926" rx="9" ry="9" class="st2"/>
				<text x="5.31" y="298.53" class="st3" v:langID="1033"><v:paragraph v:horizAlign="1"/><v:tabList/>D</text>			</g>
			<g id="shape29-294" v:mID="29" v:groupContext="shape" transform="translate(180,0)">
				<title>Sheet.29</title>
				<desc>E</desc>
				<v:textBlock v:margins="rect(4,4,4,4)"/>
				<v:textRect cx="9" cy="294.926" width="18" height="18"/>
				<ellipse cx="9" cy="294.926" rx="9" ry="9" class="st2"/>
				<text x="6.07" y="298.53" class="st3" v:langID="1033"><v:paragraph v:horizAlign="1"/><v:tabList/>E</text>			</g>
			<g id="shape129-297" v:mID="129" v:groupContext="shape" transform="translate(63,-9)">
				<title>Sheet.129</title>
				<path d="M0 303.93 L21.28 303.93" class="st8"/>
			</g>
			<g id="shape130-302" v:mID="130" v:groupContext="shape" transform="translate(108,-9)">
				<title>Sheet.130</title>
				<path d="M0 303.93 L21.28 303.93" class="st8"/>
			</g>
			<g id="shape131-307" v:mID="131" v:groupContext="shape" transform="translate(153,-9)">
				<title>Sheet.131</title>
				<path d="M0 303.93 L21.28 303.93" class="st8"/>
			</g>
		</g>
		<g id="group133-312" transform="translate(418.5,-237.25)" v:mID="133" v:groupContext="group">
			<title>Sheet.133</title>
			<g id="shape23-313" v:mID="23" v:groupContext="shape" transform="translate(36,-18)">
				<title>Sheet.23</title>
				<path d="M5.36 303.93 L5.72 303.93 L57.28 303.93" class="st4"/>
			</g>
			<g id="shape99-320" v:mID="99" v:groupContext="shape">
				<title>Sheet.99</title>
				<desc>A 100x</desc>
				<v:textBlock v:margins="rect(4,4,4,4)"/>
				<v:textRect cx="18" cy="285.926" width="36" height="36"/>
				<ellipse cx="18" cy="285.926" rx="18" ry="18" class="st2"/>
				<text x="14.53" y="282.33" class="st3" v:langID="1033"><v:paragraph v:horizAlign="1"/><v:tabList/>A<v:lf/><tspan
							x="6.28" dy="1.2em" class="st9">100</tspan>x</text>			</g>
			<g id="shape100-324" v:mID="100" v:groupContext="shape" transform="translate(99,0)">
				<title>Sheet.100</title>
				<desc>B 100x</desc>
				<v:textBlock v:margins="rect(4,4,4,4)"/>
				<v:textRect cx="18" cy="285.926" width="36" height="36"/>
				<ellipse cx="18" cy="285.926" rx="18" ry="18" class="st2"/>
				<text x="14.74" y="282.33" class="st3" v:langID="1033"><v:paragraph v:horizAlign="1"/><v:tabList/>B<v:lf/><tspan
							x="6.28" dy="1.2em" class="st9">100</tspan>x</text>			</g>
		</g>
		<g id="shape134-328" v:mID="134" v:groupContext="shape" transform="translate(83.75,-221.75)">
			<title>Sheet.134</title>
			<desc>(a)</desc>
			<v:textBlock v:margins="rect(4,4,4,4)"/>
			<v:textRect cx="18.875" cy="293.926" width="37.75" height="20"/>
			<rect x="0" y="283.926" width="37.75" height="20" class="st7"/>
			<text x="9.94" y="298.73" class="st10" v:langID="1033"><v:paragraph v:horizAlign="1"/><v:tabList/>(a)</text>		</g>
		<g id="shape135-331" v:mID="135" v:groupContext="shape" transform="translate(264.625,-221.75)">
			<title>Sheet.135</title>
			<desc>(b)</desc>
			<v:textBlock v:margins="rect(4,4,4,4)"/>
			<v:textRect cx="18.875" cy="293.926" width="37.75" height="20"/>
			<rect x="0" y="283.926" width="37.75" height="20" class="st7"/>
			<text x="9.6" y="298.73" class="st10" v:langID="1033"><v:paragraph v:horizAlign="1"/><v:tabList/>(b)</text>		</g>
		<g id="shape136-334" v:mID="136" v:groupContext="shape" transform="translate(468,-221.75)">
			<title>Sheet.136</title>
			<desc>(c)</desc>
			<v:textBlock v:margins="rect(4,4,4,4)"/>
			<v:textRect cx="18.875" cy="293.926" width="37.75" height="20"/>
			<rect x="0" y="283.926" width="37.75" height="20" class="st7"/>
			<text x="10.54" y="298.73" class="st10" v:langID="1033"><v:paragraph v:horizAlign="1"/><v:tabList/>(c)</text>		</g>
		<g id="shape137-337" v:mID="137" v:groupContext="shape" transform="translate(164.75,-37.25)">
			<title>Sheet.137</title>
			<desc>(d)</desc>
			<v:textBlock v:margins="rect(4,4,4,4)"/>
			<v:textRect cx="18.875" cy="293.926" width="37.75" height="20"/>
			<rect x="0" y="283.926" width="37.75" height="20" class="st7"/>
			<text x="9.6" y="298.73" class="st10" v:langID="1033"><v:paragraph v:horizAlign="1"/><v:tabList/>(d)</text>		</g>
		<g id="shape138-340" v:mID="138" v:groupContext="shape" transform="translate(293.875,-37.25)">
			<title>Sheet.138</title>
			<desc>(e)</desc>
			<v:textBlock v:margins="rect(4,4,4,4)"/>
			<v:textRect cx="18.875" cy="293.926" width="37.75" height="20"/>
			<rect x="0" y="283.926" width="37.75" height="20" class="st7"/>
			<text x="9.86" y="298.73" class="st10" v:langID="1033"><v:paragraph v:horizAlign="1"/><v:tabList/>(e)</text>		</g>
		<g id="shape139-343" v:mID="139" v:groupContext="shape" transform="translate(468.5,-37.25)">
			<title>Sheet.139</title>
			<desc>(f)</desc>
			<v:textBlock v:margins="rect(4,4,4,4)"/>
			<v:textRect cx="18.875" cy="293.926" width="37.75" height="20"/>
			<rect x="0" y="283.926" width="37.75" height="20" class="st7"/>
			<text x="11.36" y="298.73" class="st10" v:langID="1033"><v:paragraph v:horizAlign="1"/><v:tabList/>(f)</text>		</g>
	</g>
</svg>
