<svg width="2763" height="1181" viewBox="0 0 2763 1181" fill="none" xmlns="http://www.w3.org/2000/svg">
<rect width="2763" height="1181" rx="15" fill="#171B21"/>
<path fill-rule="evenodd" clip-rule="evenodd" d="M770.413 311.424C784.594 311.424 796.089 299.929 796.089 285.748C796.089 271.568 784.594 260.073 770.413 260.073C756.233 260.073 744.738 271.568 744.738 285.748C744.738 299.929 756.233 311.424 770.413 311.424Z" fill="#20DEB0"/>
<path fill-rule="evenodd" clip-rule="evenodd" d="M770.413 415.231C784.593 415.231 796.089 403.735 796.089 389.555C796.089 375.375 784.593 363.879 770.413 363.879C756.233 363.879 744.738 375.375 744.738 389.555C744.738 403.735 756.233 415.231 770.413 415.231Z" fill="#0EAB85"/>
<path fill-rule="evenodd" clip-rule="evenodd" d="M770.413 99.9049C784.593 99.9049 796.089 88.4096 796.089 74.2293C796.089 60.049 784.593 48.5537 770.413 48.5537C756.233 48.5537 744.738 60.049 744.738 74.2293C744.738 88.4096 756.233 99.9049 770.413 99.9049Z" fill="#994CFC"/>
<path fill-rule="evenodd" clip-rule="evenodd" d="M770.413 205.665C784.594 205.665 796.089 194.169 796.089 179.989C796.089 165.809 784.594 154.313 770.413 154.313C756.233 154.313 744.738 165.809 744.738 179.989C744.738 194.169 756.233 205.665 770.413 205.665Z" fill="#474DFF"/>
<path fill-rule="evenodd" clip-rule="evenodd" d="M124.094 90.4852H129.085V45.1318H124.094V90.4852ZM51.113 90.4849H45.752V46.7336H51.113V67.2536H74.0365V46.7336H79.3976V90.4849H74.0365V72.1833H51.113V90.4849ZM102.171 60.1059C110.551 60.1059 116.097 66.3912 116.097 75.0182C116.097 75.5594 116.04 76.213 116.004 76.6372C115.986 76.8409 115.973 76.9918 115.973 77.0518H92.8659C93.5437 82.6593 97.4874 86.295 102.91 86.295C106.669 86.295 109.503 84.5696 111.352 82.228L114.864 85.2474C112.276 88.575 108.209 90.855 102.725 90.855C94.2215 90.855 87.8129 84.6312 87.8129 75.5112C87.8129 66.4529 94.0367 60.1059 102.171 60.1059ZM111.167 72.9231C110.366 67.9934 107.223 64.7275 102.417 64.7275C97.734 64.7275 93.9751 67.8085 93.0508 72.9231H111.167ZM145.601 51.4174C145.601 53.3892 143.999 54.9298 142.027 54.9298C139.994 54.9298 138.453 53.3892 138.453 51.4174C138.453 49.5071 139.994 47.9049 142.027 47.9049C143.999 47.9049 145.601 49.5071 145.601 51.4174ZM144.492 90.4854H139.501V60.4757H144.492V90.4854ZM175.056 60.4755V75.0182C175.056 82.1663 170.927 86.2949 166.182 86.2949C161.376 86.2949 158.85 83.7684 158.85 76.9284V60.4755H153.858V78.3457C153.858 86.9111 158.233 90.8549 165.135 90.8549C169.017 90.8549 172.591 88.9446 174.994 85.4938H175.056V90.4852H180.047V60.4755H175.056ZM214.027 66.0215C216.43 62.201 220.374 60.1059 224.934 60.1059C231.774 60.1059 235.471 64.0496 235.471 72.9231V90.4852H230.48V74.2788C230.48 67.5004 228.2 64.7275 223.455 64.7275C218.834 64.7275 215.075 68.8561 215.075 75.5728V90.4852H210.083V74.2172C210.083 67.5621 207.618 64.7275 202.935 64.7275C198.067 64.7275 194.247 68.8561 194.247 75.5728V90.4852H189.317V60.4756H194.247V65.6518H194.308C196.773 62.0777 200.532 60.1059 204.414 60.1059C209.036 60.1059 212.363 62.0161 213.965 66.0215H214.027ZM262.398 90.4849H267.82V46.7336H262.398V90.4849ZM283.492 65.7134C286.019 62.1394 289.962 60.1059 294.399 60.1059C300.869 60.1059 305.183 64.1113 305.183 72.6766V90.4852H300.192V74.0939C300.192 67.0691 297.234 64.7275 292.859 64.7275C287.19 64.7275 283.431 68.7329 283.431 75.5112V90.4852H278.439V60.4756H283.431V65.7134H283.492ZM327.187 90.855C332.548 90.855 337.046 88.6366 339.573 85.802L336.122 82.7209C334.273 84.7544 331.131 86.295 327.618 86.295C321.579 86.295 317.389 81.9198 317.389 75.5112C317.389 69.1642 321.579 64.7275 327.618 64.7275C331.192 64.7275 334.15 66.2064 335.999 68.4864L339.45 65.4669C336.492 61.9545 331.87 60.1059 327.372 60.1059C318.56 60.1059 312.336 66.4529 312.336 75.5112C312.336 84.6312 318.56 90.855 327.187 90.855ZM352.603 87.404C352.603 89.3143 351.001 90.8548 349.091 90.8548C347.057 90.8548 345.517 89.3143 345.517 87.404C345.517 85.4321 347.057 83.8916 349.091 83.8916C351.001 83.8916 352.603 85.4321 352.603 87.404ZM406.189 90.4849H412.228L406.066 83.152C408.839 79.2082 409.948 74.2785 409.948 70.0883L405.08 70.2115C405.08 73.1077 404.341 76.3736 402.739 79.1466L384.93 57.8872C385.361 54.005 387.949 50.8624 393.002 50.8624C397.378 50.924 399.781 53.3888 401.075 56.2234L405.388 54.5596C403.663 50.6159 399.658 46.3024 392.633 46.3024C385.423 46.3024 380.247 51.4786 379.631 58.6883L384.93 65.0353C380.062 67.685 376.611 72.4299 376.611 77.9758C376.611 85.7401 382.773 90.8547 390.538 90.8547C395.837 90.8547 399.719 89.1909 402.677 86.2947L406.189 90.4849ZM381.849 77.7293C381.849 74.0936 384.129 70.5196 388.011 68.671L399.781 82.7823V82.8439C397.624 84.8158 394.728 86.0482 391.031 86.0482C385.546 86.0482 381.849 82.5358 381.849 77.7293ZM442.214 90.4849H436.791V46.7336H442.214V90.4849ZM468.793 60.1059C464.356 60.1059 460.412 62.1394 457.886 65.7134H457.824V60.4756H452.833V90.4852H457.824V75.5112C457.824 68.7329 461.583 64.7275 467.252 64.7275C471.627 64.7275 474.585 67.0691 474.585 74.0939V90.4852H479.576V72.6766C479.576 64.1113 475.263 60.1059 468.793 60.1059ZM499.198 84.1381L508.256 60.4755H513.679L501.478 90.4851H496.671L484.409 60.4755H489.77L499.013 84.1381H499.198ZM544.681 75.0182C544.681 66.3912 539.135 60.1059 530.755 60.1059C522.621 60.1059 516.397 66.4529 516.397 75.5112C516.397 84.6312 522.806 90.855 531.309 90.855C536.794 90.855 540.861 88.575 543.449 85.2474L539.936 82.228C538.088 84.5696 535.253 86.295 531.494 86.295C526.072 86.295 522.128 82.6593 521.45 77.0518H544.558C544.558 76.9918 544.571 76.8409 544.588 76.6372C544.625 76.213 544.681 75.5594 544.681 75.0182ZM531.001 64.7275C535.808 64.7275 538.95 67.9934 539.751 72.9231H521.635C522.559 67.8085 526.318 64.7275 531.001 64.7275ZM594.427 89.0061C592.764 89.9304 590.67 90.8548 587.156 90.8548C581.795 90.8548 579.332 87.5888 579.332 81.5499V64.7889H575.511V60.4754H579.332V50.2462L584.321 49.6916V60.4754H594.306V64.7889H584.321V80.8105C584.321 84.3845 585.186 86.1715 588.02 86.1715C589.807 86.1715 591.656 85.4321 593.073 84.631L594.427 89.0061ZM561.863 90.855C569.073 90.855 572.585 86.9728 572.585 82.2896C572.642 76.8724 569.132 75.5375 563.667 73.4582L563.662 73.4565L563.639 73.4478L563.634 73.4459C563.142 73.2584 562.633 73.0648 562.11 72.8615C558.905 71.6291 556.44 70.5199 556.44 68.1783C556.44 66.0215 558.782 64.6658 561.062 64.6658C563.588 64.6658 566.361 65.4669 569.011 67.7469L571.599 63.8031C568.272 61.0918 564.882 60.1059 561.308 60.1059C555.578 60.1059 551.387 63.5567 551.387 68.1783C551.387 73.6626 555.516 75.6961 560.384 77.4215L560.742 77.5424C564.91 78.9492 567.532 79.8344 567.532 82.3512C567.532 84.5079 565.437 86.3566 561.863 86.3566C557.611 86.3566 555.023 84.9393 552.681 82.7825L550.093 86.5414C553.051 89.1912 556.933 90.855 561.863 90.855ZM630.794 75.5112C630.794 84.6312 624.2 90.855 615.388 90.855C606.022 90.855 599.86 84.1382 599.86 75.5112C599.86 66.8842 606.022 60.1059 615.388 60.1059C624.2 60.1059 630.794 66.3912 630.794 75.5112ZM604.913 75.5112C604.913 81.4885 609.165 86.295 615.388 86.295C621.181 86.295 625.741 81.8582 625.741 75.5112C625.741 69.1026 621.181 64.7275 615.388 64.7275C609.103 64.7275 604.913 69.5339 604.913 75.5112ZM653.33 60.1059C649.263 60.1059 645.751 62.201 643.532 65.775H643.471V60.4756H638.479V90.4852H643.471V76.0042C643.471 69.9653 646.921 65.5902 652.591 65.5902C653.084 65.5902 653.885 65.6518 654.562 65.7134V60.1675C654.254 60.1059 653.823 60.1059 653.33 60.1059ZM680.408 82.2896C680.408 86.9728 676.896 90.855 669.686 90.855C664.756 90.855 660.874 89.1912 657.916 86.5414L660.505 82.7825C662.846 84.9393 665.434 86.3566 669.686 86.3566C673.26 86.3566 675.355 84.5079 675.355 82.3512C675.355 79.8344 672.733 78.9492 668.565 77.5424L668.207 77.4215C663.339 75.6961 659.21 73.6626 659.21 68.1783C659.21 63.5567 663.401 60.1059 669.132 60.1059C672.706 60.1059 676.095 61.0918 679.422 63.8031L676.834 67.7469C674.185 65.4669 671.412 64.6658 668.885 64.6658C666.605 64.6658 664.263 66.0215 664.263 68.1783C664.263 70.5199 666.728 71.6291 669.933 72.8615C670.467 73.0692 670.987 73.2668 671.49 73.4582C676.956 75.5375 680.465 76.8724 680.408 82.2896Z" fill="white"/>
<path fill-rule="evenodd" clip-rule="evenodd" d="M530.508 389.438V384.508H548.563V401.824C544.496 405.274 538.273 407.37 531.556 407.37C518.985 407.37 509.68 398.804 509.68 385.248C509.68 372.307 518.184 362.879 531.371 362.879C537.287 362.879 543.387 364.913 548.07 369.781L544.25 373.047C540.737 369.719 536.424 367.994 531.309 367.994C522.128 367.994 515.288 374.772 515.288 385.248C515.288 395.107 521.758 402.378 531.556 402.378C535.931 402.378 539.936 401.392 543.202 399.051V389.438H530.508ZM228.662 399.113C224.842 403.857 219.296 407.37 211.593 407.37C199.761 407.37 189.779 399.667 189.779 385.371C189.779 372.924 197.543 362.88 211.593 362.88C217.632 362.88 223.917 365.345 228.662 371.26L224.657 374.588C221.329 370.397 216.646 367.994 211.593 367.994C201.61 367.994 195.386 375.204 195.386 385.371C195.386 395.785 202.349 402.255 211.593 402.255C217.262 402.255 221.576 399.544 224.657 395.724L228.662 399.113ZM264.444 392.088C264.444 401.208 257.85 407.432 249.039 407.432C239.672 407.432 233.51 400.715 233.51 392.088C233.51 383.461 239.672 376.683 249.039 376.683C257.85 376.683 264.444 382.968 264.444 392.088ZM238.563 392.088C238.563 398.065 242.815 402.872 249.039 402.872C254.831 402.872 259.391 398.435 259.391 392.088C259.391 385.68 254.831 381.304 249.039 381.304C242.753 381.304 238.563 386.111 238.563 392.088ZM288.086 376.683C283.65 376.683 279.706 378.716 277.18 382.29H277.118V377.053H272.127V407.062H277.118V392.088C277.118 385.31 280.877 381.304 286.546 381.304C290.921 381.304 293.879 383.646 293.879 390.671V407.062H298.87V389.254C298.87 380.688 294.557 376.683 288.086 376.683ZM327.776 398.866C327.776 403.549 324.264 407.432 317.054 407.432C312.124 407.432 308.242 405.768 305.284 403.118L307.872 399.359C310.214 401.516 312.802 402.933 317.054 402.933C320.628 402.933 322.723 401.085 322.723 398.928C322.723 396.411 320.101 395.526 315.933 394.119L315.575 393.998C310.707 392.273 306.578 390.24 306.578 384.755C306.578 380.134 310.768 376.683 316.499 376.683C320.073 376.683 323.462 377.669 326.79 380.38L324.202 384.324C321.552 382.044 318.779 381.243 316.253 381.243C313.973 381.243 311.631 382.599 311.631 384.755C311.631 387.097 314.096 388.206 317.3 389.438C317.835 389.646 318.355 389.844 318.858 390.035C324.323 392.114 327.832 393.449 327.776 398.866ZM361.327 391.595C361.327 382.968 355.781 376.683 347.401 376.683C339.267 376.683 333.043 383.03 333.043 392.088C333.043 401.208 339.452 407.432 347.955 407.432C353.44 407.432 357.507 405.152 360.095 401.824L356.582 398.805C354.734 401.146 351.899 402.872 348.14 402.872C342.718 402.872 338.774 399.236 338.096 393.629H361.204C361.204 393.569 361.217 393.42 361.234 393.218V393.215L361.235 393.214V393.213C361.271 392.789 361.327 392.136 361.327 391.595ZM347.647 381.304C352.454 381.304 355.596 384.57 356.398 389.5H338.281C339.205 384.386 342.964 381.304 347.647 381.304ZM373.944 382.29C376.471 378.716 380.415 376.683 384.851 376.683C391.322 376.683 395.635 380.688 395.635 389.254V407.062H390.644V390.671C390.644 383.646 387.686 381.304 383.311 381.304C377.642 381.304 373.883 385.31 373.883 392.088V407.062H368.891V377.053H373.883V382.29H373.944ZM413.816 407.432C421.026 407.432 424.538 403.549 424.538 398.866C424.594 393.449 421.085 392.114 415.62 390.035C415.117 389.844 414.597 389.646 414.062 389.438C410.858 388.206 408.393 387.097 408.393 384.755C408.393 382.599 410.735 381.243 413.015 381.243C415.541 381.243 418.314 382.044 420.964 384.324L423.552 380.38C420.225 377.669 416.835 376.683 413.261 376.683C407.531 376.683 403.34 380.134 403.34 384.755C403.34 390.24 407.469 392.273 412.337 393.998L412.695 394.119C416.863 395.526 419.485 396.411 419.485 398.928C419.485 401.085 417.39 402.933 413.816 402.933C409.564 402.933 406.976 401.516 404.634 399.359L402.046 403.118C405.004 405.768 408.886 407.432 413.816 407.432ZM452.418 391.595V377.053H457.41V407.062H452.418V402.07H452.357C449.954 405.521 446.38 407.431 442.497 407.431C435.596 407.431 431.221 403.488 431.221 394.923V377.053H436.212V393.505C436.212 400.345 438.738 402.871 443.545 402.871C448.29 402.871 452.418 398.743 452.418 391.595ZM475.798 407.432C483.008 407.432 486.52 403.549 486.52 398.866C486.577 393.449 483.068 392.114 477.602 390.035C477.099 389.844 476.58 389.646 476.045 389.438C472.841 388.206 470.376 387.097 470.376 384.755C470.376 382.599 472.717 381.243 474.997 381.243C477.524 381.243 480.297 382.044 482.946 384.324L485.535 380.38C482.207 377.669 478.818 376.683 475.244 376.683C469.513 376.683 465.323 380.134 465.323 384.755C465.323 390.24 469.451 392.273 474.319 393.998L474.677 394.119C478.845 395.526 481.468 396.411 481.468 398.928C481.468 401.085 479.372 402.933 475.798 402.933C471.547 402.933 468.958 401.516 466.617 399.359L464.029 403.118C466.987 405.768 470.869 407.432 475.798 407.432ZM572.638 376.683C568.571 376.683 565.059 378.778 562.841 382.352H562.779V377.053H557.788V407.062H562.779V392.581C562.779 386.542 566.23 382.167 571.899 382.167C572.392 382.167 573.193 382.229 573.871 382.29V376.744C573.563 376.683 573.131 376.683 572.638 376.683ZM607.935 392.088C607.935 401.208 601.342 407.432 592.53 407.432C583.163 407.432 577.001 400.715 577.001 392.088C577.001 383.461 583.163 376.683 592.53 376.683C601.342 376.683 607.935 382.968 607.935 392.088ZM582.054 392.088C582.054 398.065 586.306 402.872 592.53 402.872C598.322 402.872 602.882 398.435 602.882 392.088C602.882 385.68 598.322 381.304 592.53 381.304C586.244 381.304 582.054 386.111 582.054 392.088ZM636.199 391.595C636.199 398.743 632.071 402.871 627.326 402.871C622.52 402.871 619.993 400.345 619.993 393.505V377.053H615.002V394.923C615.002 403.488 619.377 407.431 626.278 407.431C630.161 407.431 633.735 405.521 636.138 402.07H636.199V407.062H641.191V377.053H636.199V391.595ZM655.513 381.489C658.04 378.347 661.737 376.683 665.742 376.683C674.246 376.683 680.408 383.4 680.408 392.273C680.408 401.454 674 407.432 665.742 407.432C661.491 407.432 657.917 405.644 655.513 402.625H655.39V419.263H650.46V377.053H655.452V381.489H655.513ZM655.267 392.273C655.267 398.62 659.95 402.872 665.25 402.872C671.35 402.872 675.355 398.312 675.355 392.273C675.355 385.618 670.919 381.304 665.188 381.304C659.519 381.304 655.267 386.111 655.267 392.273Z" fill="white"/>
<path fill-rule="evenodd" clip-rule="evenodd" d="M307.919 301.853H302.989V276.156H299.292V271.843H302.989V265.804C302.989 259.334 306.07 256.068 311.369 256.068C314.389 256.068 316.73 256.992 318.394 257.978L317.285 262.292C315.375 261.306 313.649 260.751 312.047 260.751C309.582 260.751 307.919 262.292 307.919 266.235V271.843H316.422V276.156H307.919V301.853ZM170.045 301.853H175.406V285.153H184.465C193.585 285.153 199.87 280.902 199.87 271.658C199.87 263.894 195.619 258.102 185.389 258.102H170.045V301.853ZM175.406 280.224V263.031H184.834C190.689 263.031 194.263 265.989 194.263 271.535C194.263 276.526 191.305 280.224 183.972 280.224H175.406ZM222.189 271.473C218.122 271.473 214.609 273.568 212.391 277.142H212.329V271.843H207.338V301.853H212.329V287.371C212.329 281.333 215.78 276.957 221.449 276.957C221.942 276.957 222.743 277.019 223.421 277.081V271.535C223.113 271.473 222.682 271.473 222.189 271.473ZM257.486 286.879C257.486 295.998 250.892 302.222 242.08 302.222C232.714 302.222 226.552 295.506 226.552 286.879C226.552 278.252 232.714 271.473 242.08 271.473C250.892 271.473 257.486 277.759 257.486 286.879ZM231.605 286.879C231.605 292.856 235.857 297.662 242.08 297.662C247.873 297.662 252.433 293.226 252.433 286.879C252.433 280.47 247.873 276.095 242.08 276.095C235.795 276.095 231.605 280.901 231.605 286.879ZM278.849 302.222C287.66 302.222 294.254 295.998 294.254 286.879C294.254 277.759 287.66 271.473 278.849 271.473C269.482 271.473 263.32 278.252 263.32 286.879C263.32 295.506 269.482 302.222 278.849 302.222ZM278.849 297.662C272.625 297.662 268.373 292.856 268.373 286.879C268.373 280.901 272.563 276.095 278.849 276.095C284.641 276.095 289.201 280.47 289.201 286.879C289.201 293.226 284.641 297.662 278.849 297.662ZM352.987 302.222C361.799 302.222 368.392 295.998 368.392 286.879C368.392 277.759 361.799 271.473 352.987 271.473C343.62 271.473 337.458 278.252 337.458 286.879C337.458 295.506 343.62 302.222 352.987 302.222ZM352.987 297.662C346.763 297.662 342.511 292.856 342.511 286.879C342.511 280.901 346.701 276.095 352.987 276.095C358.779 276.095 363.339 280.47 363.339 286.879C363.339 293.226 358.779 297.662 352.987 297.662ZM382.057 301.853H377.127V276.156H373.43V271.843H377.127V265.804C377.127 259.334 380.208 256.068 385.508 256.068C388.527 256.068 390.869 256.992 392.532 257.978L391.423 262.292C389.513 261.306 387.788 260.751 386.185 260.751C383.721 260.751 382.057 262.292 382.057 266.235V271.843H390.561V276.156H382.057V301.853ZM434.15 302.161C441.852 302.161 447.398 298.649 451.219 293.904L447.214 290.515C444.132 294.335 439.819 297.046 434.15 297.046C424.907 297.046 417.943 290.576 417.943 280.162C417.943 269.995 424.167 262.785 434.15 262.785C439.203 262.785 443.886 265.188 447.214 269.378L451.219 266.051C446.474 260.135 440.189 257.67 434.15 257.67C420.1 257.67 412.336 267.715 412.336 280.162C412.336 294.458 422.318 302.161 434.15 302.161ZM487.001 286.879C487.001 295.998 480.408 302.222 471.596 302.222C462.23 302.222 456.067 295.506 456.067 286.879C456.067 278.252 462.23 271.473 471.596 271.473C480.408 271.473 487.001 277.759 487.001 286.879ZM461.12 286.879C461.12 292.856 465.372 297.662 471.596 297.662C477.388 297.662 481.948 293.226 481.948 286.879C481.948 280.47 477.388 276.095 471.596 276.095C465.311 276.095 461.12 280.901 461.12 286.879ZM514.543 271.844L505.484 295.506H505.299L496.056 271.844H490.695L502.958 301.853H507.764L519.965 271.844H514.543ZM537.041 271.473C545.422 271.473 550.968 277.759 550.968 286.386C550.968 286.927 550.912 287.58 550.875 288.004V288.005L550.874 288.014C550.857 288.213 550.845 288.36 550.845 288.419H527.737C528.414 294.027 532.358 297.662 537.781 297.662C541.54 297.662 544.374 295.937 546.223 293.595L549.735 296.615C547.147 299.942 543.08 302.222 537.596 302.222C529.092 302.222 522.684 295.998 522.684 286.879C522.684 277.82 528.907 271.473 537.041 271.473ZM546.038 284.29C545.237 279.361 542.094 276.095 537.288 276.095C532.605 276.095 528.846 279.176 527.921 284.29H546.038ZM573.383 271.473C569.316 271.473 565.803 273.568 563.585 277.142H563.523V271.843H558.532V301.853H563.523V287.371C563.523 281.333 566.974 276.957 572.643 276.957C573.136 276.957 573.937 277.019 574.615 277.081V271.535C574.307 271.473 573.876 271.473 573.383 271.473ZM602.886 276.341V271.843H607.877V301.853H603.071V297.108H603.009C600.606 300.312 596.908 302.222 592.533 302.222C584.214 302.222 577.806 296.245 577.806 287.063C577.806 278.19 583.968 271.473 592.472 271.473C596.6 271.473 600.298 273.199 602.824 276.341H602.886ZM582.859 287.063C582.859 293.102 586.864 297.662 592.965 297.662C598.387 297.662 603.071 293.41 603.071 287.063C603.071 280.901 598.819 276.095 593.026 276.095C587.357 276.095 582.859 280.408 582.859 287.063ZM639.885 271.843V276.033H639.761C637.173 273.075 633.414 271.473 629.409 271.473C621.275 271.473 615.113 277.943 615.113 286.447C615.113 295.382 621.645 301.298 629.656 301.298C633.969 301.298 637.481 299.573 639.823 296.676H639.946V300.867C639.946 305.735 636.619 309.678 629.84 309.678C625.588 309.678 622.569 308.508 619.057 306.536L617.886 311.157C621.46 313.314 625.588 314.423 630.087 314.423C640.562 314.423 644.814 308.261 644.814 299.573V271.843H639.885ZM630.025 296.615C624.664 296.615 620.227 292.671 620.227 286.262C620.227 280.47 624.294 276.156 630.025 276.156C635.694 276.156 640.07 280.162 640.07 286.201C640.07 292.178 636.064 296.615 630.025 296.615ZM666.482 271.473C674.863 271.473 680.409 277.759 680.409 286.386C680.409 286.927 680.353 287.58 680.316 288.004C680.299 288.208 680.286 288.359 680.286 288.419H657.178C657.855 294.027 661.799 297.662 667.222 297.662C670.981 297.662 673.815 295.937 675.664 293.595L679.176 296.615C676.588 299.942 672.521 302.222 667.037 302.222C658.533 302.222 652.125 295.998 652.125 286.879C652.125 277.82 658.348 271.473 666.482 271.473ZM675.479 284.29C674.678 279.361 671.535 276.095 666.729 276.095C662.046 276.095 658.287 279.176 657.362 284.29H675.479Z" fill="white"/>
<path fill-rule="evenodd" clip-rule="evenodd" d="M616.569 197.147H611.64V171.451H607.942V167.137H611.64V161.098C611.64 154.628 614.721 151.362 620.02 151.362C623.04 151.362 625.381 152.286 627.045 153.272L625.936 157.586C624.026 156.6 622.3 156.045 620.698 156.045C618.233 156.045 616.569 157.586 616.569 161.53V167.137H625.073V171.451H616.569V197.147ZM271.782 197.147L262.909 183.406H262.786L256.5 190.369V197.147H251.57V151.794H256.5V183.529H256.623L271.351 167.138H277.451L266.236 179.585L277.513 197.147H271.782ZM75.1332 153.396V188.274H75.0099L50.2995 153.396H45V197.147H50.3611V162.639H50.4843L75.0099 197.147H80.4943V153.396H75.1332ZM117.213 181.68C117.213 173.053 111.667 166.768 103.287 166.768C95.1531 166.768 88.9294 173.115 88.9294 182.173C88.9294 191.293 95.338 197.517 103.842 197.517C109.326 197.517 113.393 195.237 115.981 191.909L112.468 188.89C110.62 191.231 107.785 192.957 104.027 192.957C98.6039 192.957 94.6601 189.321 93.9823 183.713H117.09C117.09 183.653 117.103 183.503 117.12 183.299C117.157 182.875 117.213 182.221 117.213 181.68ZM103.534 171.389C108.34 171.389 111.482 174.655 112.283 179.585H94.1672C95.0915 174.47 98.8504 171.389 103.534 171.389ZM140.552 195.668C138.888 196.593 136.793 197.517 133.28 197.517C127.919 197.517 125.454 194.251 125.454 188.212V171.451H121.634V167.138H125.454V156.909L130.446 156.354V167.138H140.428V171.451H130.446V187.473C130.446 191.047 131.308 192.834 134.143 192.834C135.93 192.834 137.779 192.094 139.196 191.293L140.552 195.668ZM182.964 167.138L175.323 189.568H175.2L168.237 167.138H163.923L157.083 189.568H156.96L149.319 167.138H144.266L154.68 197.147H159.24L166.08 175.272H166.142L172.92 197.147H177.603L188.017 167.138H182.964ZM221.8 182.173C221.8 191.293 215.206 197.517 206.395 197.517C197.028 197.517 190.866 190.8 190.866 182.173C190.866 173.546 197.028 166.768 206.395 166.768C215.206 166.768 221.8 173.053 221.8 182.173ZM195.919 182.173C195.919 188.15 200.171 192.957 206.395 192.957C212.187 192.957 216.747 188.52 216.747 182.173C216.747 175.764 212.187 171.389 206.395 171.389C200.109 171.389 195.919 176.196 195.919 182.173ZM244.336 166.768C240.269 166.768 236.757 168.863 234.538 172.437H234.477V167.137H229.485V197.147H234.477V182.666C234.477 176.627 237.928 172.252 243.597 172.252C244.09 172.252 244.891 172.313 245.569 172.375V166.829C245.261 166.768 244.829 166.768 244.336 166.768ZM301.414 197.147H314.725C328.651 197.147 337.216 188.212 337.216 175.333C337.216 162.393 328.405 153.396 314.54 153.396H301.414V197.147ZM306.775 192.279V158.264H314.601C324.83 158.264 331.732 165.289 331.732 175.333C331.732 185.193 324.892 192.279 314.355 192.279H306.775ZM368.919 171.636V167.137H373.91V197.147H369.104V192.402H369.042C366.639 195.606 362.942 197.517 358.567 197.517C350.248 197.517 343.839 191.539 343.839 182.358C343.839 173.484 350.001 166.768 358.505 166.768C362.634 166.768 366.331 168.493 368.858 171.636H368.919ZM348.892 182.358C348.892 188.397 352.898 192.957 358.998 192.957C364.421 192.957 369.104 188.705 369.104 182.358C369.104 176.196 364.852 171.389 359.06 171.389C353.391 171.389 348.892 175.703 348.892 182.358ZM391.621 197.517C395.133 197.517 397.228 196.593 398.892 195.668L397.536 191.293C396.119 192.094 394.27 192.834 392.483 192.834C389.649 192.834 388.786 191.047 388.786 187.473V171.451H398.769V167.138H388.786V156.354L383.795 156.909V167.138H379.974V171.451H383.795V188.212C383.795 194.251 386.26 197.517 391.621 197.517ZM427.532 171.636V167.137H432.523V197.147H427.717V192.402H427.655C425.252 195.606 421.554 197.517 417.179 197.517C408.86 197.517 402.452 191.539 402.452 182.358C402.452 173.484 408.614 166.768 417.118 166.768C421.246 166.768 424.944 168.493 427.47 171.636H427.532ZM407.505 182.358C407.505 188.397 411.51 192.957 417.611 192.957C423.033 192.957 427.717 188.705 427.717 182.358C427.717 176.196 423.465 171.389 417.672 171.389C412.003 171.389 407.505 175.703 407.505 182.358ZM468.989 197.147H474.35V158.326H487.537V153.396H455.863V158.326H468.989V197.147ZM493.902 172.437C496.12 168.863 499.633 166.768 503.7 166.768C504.193 166.768 504.624 166.768 504.932 166.829V172.375C504.254 172.313 503.453 172.252 502.96 172.252C497.291 172.252 493.84 176.627 493.84 182.666V197.147H488.849V167.137H493.84V172.437H493.902ZM533.203 167.137V171.636H533.141C530.615 168.493 526.917 166.768 522.789 166.768C514.285 166.768 508.123 173.484 508.123 182.358C508.123 191.539 514.532 197.517 522.85 197.517C527.226 197.517 530.923 195.606 533.326 192.402H533.388V197.147H538.194V167.137H533.203ZM523.282 192.957C517.181 192.957 513.176 188.397 513.176 182.358C513.176 175.703 517.674 171.389 523.343 171.389C529.136 171.389 533.388 176.196 533.388 182.358C533.388 188.705 528.704 192.957 523.282 192.957ZM552.454 172.375C554.981 168.801 558.925 166.768 563.361 166.768C569.832 166.768 574.145 170.773 574.145 179.338V197.147H569.154V180.756C569.154 173.731 566.196 171.389 561.821 171.389C556.152 171.389 552.393 175.395 552.393 182.173V197.147H547.401V167.137H552.393V172.375H552.454ZM592.329 197.517C599.538 197.517 603.051 193.634 603.051 188.951C603.107 183.534 599.598 182.199 594.133 180.12C593.63 179.929 593.11 179.731 592.575 179.523C589.371 178.291 586.906 177.182 586.906 174.84C586.906 172.683 589.248 171.328 591.528 171.328C594.054 171.328 596.827 172.129 599.477 174.409L602.065 170.465C598.737 167.753 595.348 166.768 591.774 166.768C586.043 166.768 581.853 170.218 581.853 174.84C581.853 180.324 585.982 182.358 590.85 184.083L591.208 184.204C595.376 185.611 597.998 186.496 597.998 189.013C597.998 191.17 595.903 193.018 592.329 193.018C588.077 193.018 585.489 191.601 583.147 189.444L580.559 193.203C583.517 195.853 587.399 197.517 592.329 197.517ZM656.762 181.68C656.762 173.053 651.216 166.768 642.835 166.768C634.701 166.768 628.477 173.115 628.477 182.173C628.477 191.293 634.886 197.517 643.39 197.517C648.874 197.517 652.941 195.237 655.529 191.909L652.017 188.89C650.168 191.231 647.333 192.957 643.575 192.957C638.152 192.957 634.208 189.321 633.53 183.713H656.638C656.638 183.653 656.651 183.503 656.669 183.299C656.705 182.875 656.762 182.221 656.762 181.68ZM643.082 171.389C647.888 171.389 651.031 174.655 651.832 179.585H633.715C634.639 174.47 638.398 171.389 643.082 171.389ZM669.379 172.437C671.597 168.863 675.109 166.768 679.176 166.768C679.669 166.768 680.101 166.768 680.409 166.829V172.375C679.731 172.313 678.93 172.252 678.437 172.252C672.768 172.252 669.317 176.627 669.317 182.666V197.147H664.326V167.137H669.317V172.437H669.379Z" fill="white"/>
<path d="M865.789 1033.65C875.173 1033.65 880.552 1025.3 880.552 1013.68C880.552 1000.8 874.315 993.652 865.789 993.652C856.405 993.652 851.026 1002.07 851.026 1013.68C851.026 1026.5 857.263 1033.65 865.789 1033.65ZM865.789 1029.2C860.01 1029.2 855.89 1023.64 855.89 1013.68C855.89 1004.24 859.552 998.121 865.789 998.121C871.625 998.121 875.688 1003.61 875.688 1013.68C875.688 1023.07 872.083 1029.2 865.789 1029.2Z" fill="white"/>
<path fill-rule="evenodd" clip-rule="evenodd" d="M2473.75 1013.68C2473.75 1025.3 2468.38 1033.65 2459 1033.65C2450.47 1033.65 2444.23 1026.5 2444.23 1013.68C2444.23 1002.07 2449.61 993.652 2459 993.652C2467.52 993.652 2473.75 1000.8 2473.75 1013.68ZM2449.09 1013.68C2449.09 1023.64 2453.22 1029.2 2459 1029.2C2465.29 1029.2 2468.89 1023.07 2468.89 1013.68C2468.89 1003.61 2464.83 998.121 2459 998.121C2452.76 998.121 2449.09 1004.24 2449.09 1013.68Z" fill="white"/>
<path d="M1635 1028.91V1028.79L1645.24 1018.43C1650.11 1013.52 1651.93 1009.67 1651.93 1005.22C1651.93 997.944 1646.28 993.652 1640.04 993.652C1633.85 993.652 1629.9 996.799 1627.74 1001.09L1631.28 1003.56C1633.12 1000.01 1636.03 998.175 1639.75 998.175C1644.1 998.175 1647.14 1001.38 1647.14 1005.74C1647.14 1009.62 1644.44 1012.82 1641.13 1016.25L1627.68 1029.99L1627.74 1033.31H1652.45V1028.91H1635Z" fill="white"/>
<path fill-rule="evenodd" clip-rule="evenodd" d="M1585.42 1094.09L1572.96 1114.91H1572.82L1560.3 1094.09H1553.49L1569.89 1120.85V1142.42H1575.82V1120.85L1592.29 1094.09H1585.42ZM1621.68 1125.34C1621.68 1115.81 1615.55 1108.87 1606.29 1108.87C1597.31 1108.87 1590.43 1115.87 1590.43 1125.89C1590.43 1135.95 1597.51 1142.83 1606.91 1142.83C1612.97 1142.83 1617.46 1140.31 1620.32 1136.63L1616.44 1133.29C1614.4 1135.89 1611.26 1137.8 1607.11 1137.8C1601.12 1137.8 1596.76 1133.78 1596.02 1127.59H1621.54C1621.54 1127.52 1621.56 1127.35 1621.58 1127.12C1621.62 1126.65 1621.68 1125.94 1621.68 1125.34ZM1606.57 1113.97C1611.88 1113.97 1615.35 1117.57 1616.23 1123.02H1596.22C1597.24 1117.38 1601.39 1113.97 1606.57 1113.97ZM1655.77 1114.23V1109.27H1661.28V1142.42H1655.97V1137.18H1655.9C1653.25 1140.72 1649.16 1142.83 1644.33 1142.83C1635.14 1142.83 1628.06 1136.23 1628.06 1126.08C1628.06 1116.28 1634.87 1108.87 1644.26 1108.87C1648.82 1108.87 1652.91 1110.76 1655.7 1114.23H1655.77ZM1633.64 1126.08C1633.64 1132.76 1638.07 1137.8 1644.81 1137.8C1650.8 1137.8 1655.97 1133.1 1655.97 1126.08C1655.97 1119.27 1651.27 1113.97 1644.88 1113.97C1638.61 1113.97 1633.64 1118.74 1633.64 1126.08ZM1687.86 1108.87C1683.37 1108.87 1679.49 1111.17 1677.04 1115.13H1676.97V1109.27H1671.45V1142.42H1676.97V1126.42C1676.97 1119.76 1680.78 1114.91 1687.04 1114.91C1687.54 1114.91 1688.34 1114.98 1689.04 1115.04L1689.22 1115.06V1108.93C1688.88 1108.87 1688.4 1108.87 1687.86 1108.87ZM1717.77 1133.38C1717.77 1138.55 1713.89 1142.83 1705.93 1142.83C1700.48 1142.83 1696.19 1140.99 1692.93 1138.06L1695.79 1133.91C1698.37 1136.29 1701.23 1137.87 1705.93 1137.87C1709.88 1137.87 1712.19 1135.82 1712.19 1133.44C1712.19 1130.66 1709.32 1129.69 1704.76 1128.15C1704.6 1128.1 1704.45 1128.05 1704.29 1127.99C1698.92 1126.08 1694.36 1123.84 1694.36 1117.78C1694.36 1112.68 1698.98 1108.87 1705.32 1108.87C1709.26 1108.87 1713.01 1109.95 1716.68 1112.95L1713.83 1117.3C1710.9 1114.78 1707.83 1113.89 1705.04 1113.89C1702.52 1113.89 1699.94 1115.4 1699.94 1117.78C1699.94 1120.36 1702.66 1121.59 1706.2 1122.95C1706.8 1123.18 1707.37 1123.4 1707.93 1123.62C1713.96 1125.91 1717.84 1127.38 1717.77 1133.38Z" fill="white"/>
<path fill-rule="evenodd" clip-rule="evenodd" d="M2696.79 310.162C2693.66 307.951 2691.89 304.501 2691.89 300.619C2691.89 294.957 2695.39 291.183 2702.87 291.183H2718.46V295.551H2704.12C2697.97 295.551 2695.93 298.139 2695.93 301.967C2695.93 306.927 2699.43 310.216 2705.37 310.216H2718.46V314.583H2692.21V310.216H2696.79V310.162ZM2718.78 334.785C2718.78 327.075 2713.34 321.306 2705.37 321.306C2697.38 321.306 2691.89 327.075 2691.89 334.785C2691.89 342.981 2697.82 348.372 2705.37 348.372C2712.91 348.372 2718.78 342.981 2718.78 334.785ZM2714.8 334.785C2714.8 340.231 2710.59 343.951 2705.37 343.951C2700.13 343.951 2695.93 340.285 2695.93 334.785C2695.93 329.717 2699.76 325.727 2705.37 325.727C2710.91 325.727 2714.8 329.717 2714.8 334.785ZM2684.27 354.519C2686.01 354.519 2687.35 355.921 2687.35 357.646C2687.35 359.425 2686.01 360.773 2684.27 360.773C2682.6 360.773 2681.21 359.425 2681.21 357.646C2681.21 355.921 2682.6 354.519 2684.27 354.519ZM2718.46 355.489V359.857H2692.21V355.489H2718.46ZM2718.78 372.116C2718.78 369.043 2717.97 367.21 2717.16 365.754L2713.34 366.94C2714.04 368.18 2714.69 369.798 2714.69 371.361C2714.69 373.841 2713.12 374.596 2710 374.596H2695.98V365.862H2692.21V374.596H2682.77L2683.26 378.963H2692.21V382.306H2695.98V378.963H2710.64C2715.93 378.963 2718.78 376.807 2718.78 372.116ZM2696.14 391.979H2692.21V387.612H2718.46V391.817H2714.31V391.871C2717.11 393.974 2718.78 397.209 2718.78 401.037C2718.78 408.315 2713.56 413.923 2705.52 413.923C2697.75 413.923 2691.89 408.531 2691.89 401.091C2691.89 397.478 2693.39 394.243 2696.14 392.033V391.979ZM2705.52 409.502C2710.81 409.502 2714.8 405.997 2714.8 400.659C2714.8 395.915 2711.08 391.817 2705.52 391.817C2700.13 391.817 2695.93 395.537 2695.93 400.605C2695.93 405.566 2699.7 409.502 2705.52 409.502ZM2718.78 429.153C2718.78 424.462 2716.84 420.526 2714.36 418.316L2711.67 421.335C2713.45 422.952 2714.8 425.702 2714.8 428.775C2714.8 434.059 2710.96 437.725 2705.37 437.725C2699.81 437.725 2695.93 434.059 2695.93 428.775C2695.93 425.648 2697.21 423.06 2699.22 421.443L2696.57 418.423C2693.5 421.011 2691.89 425.055 2691.89 428.991C2691.89 436.701 2697.43 442.147 2705.37 442.147C2713.34 442.147 2718.78 436.701 2718.78 429.153ZM2705.37 447.251C2713.34 447.251 2718.78 453.02 2718.78 460.73C2718.78 468.925 2712.91 474.317 2705.37 474.317C2697.82 474.317 2691.89 468.925 2691.89 460.73C2691.89 453.02 2697.38 447.251 2705.37 447.251ZM2705.37 469.896C2710.59 469.896 2714.8 466.175 2714.8 460.73C2714.8 455.662 2710.91 451.672 2705.37 451.672C2699.76 451.672 2695.93 455.662 2695.93 460.73C2695.93 466.229 2700.13 469.896 2705.37 469.896ZM2718.46 485.801V481.434H2678.78V485.801H2718.46ZM2718.46 494.913V499.28H2678.78V494.913H2718.46ZM2718.46 510.205V505.245L2680.18 519.856V524.547L2718.46 539.051V534.09L2709.14 530.694V513.602L2718.46 510.205ZM2705.03 529.184L2685.89 522.229V522.121L2705.03 515.112V529.184ZM2696.79 578.112C2693.66 575.901 2691.89 572.45 2691.89 568.568C2691.89 562.907 2695.39 559.133 2702.87 559.133H2718.46V563.5H2704.12C2697.97 563.5 2695.93 566.088 2695.93 569.916C2695.93 574.877 2699.43 578.166 2705.37 578.166H2718.46V582.535H2692.21V578.166H2696.79V578.112ZM2704.93 589.146C2697.38 589.146 2691.89 593.999 2691.89 601.342C2691.89 608.454 2697.43 613.897 2705.37 613.897C2713.34 613.897 2718.78 608.287 2718.78 600.854C2718.78 596.053 2716.79 592.497 2713.88 590.225L2711.23 593.306C2713.29 594.923 2714.8 597.401 2714.8 600.687C2714.8 605.437 2711.62 608.89 2706.71 609.48V589.262C2706.66 589.262 2706.52 589.249 2706.34 589.233C2705.97 589.199 2705.4 589.146 2704.93 589.146ZM2695.93 601.124C2695.93 596.913 2698.78 594.166 2703.09 593.46V609.314C2698.63 608.505 2695.93 605.219 2695.93 601.124ZM2718.46 621.342L2706.45 629.109V629.212L2712.53 634.719H2718.46V639.032H2678.78V634.719H2706.55V634.603L2692.21 621.715V616.387L2703.09 626.195L2718.46 616.323V621.342ZM2718.78 659.276C2718.78 651.574 2713.34 645.797 2705.37 645.797C2697.38 645.797 2691.89 651.574 2691.89 659.276C2691.89 667.479 2697.82 672.871 2705.37 672.871C2712.91 672.871 2718.78 667.479 2718.78 659.276ZM2714.8 659.276C2714.8 664.732 2710.59 668.455 2705.37 668.455C2700.13 668.455 2695.93 664.784 2695.93 659.276C2695.93 654.219 2699.76 650.226 2705.37 650.226C2710.91 650.226 2714.8 654.219 2714.8 659.276ZM2718.46 688.468V683.783H2684.49V672.242H2680.18V699.958H2684.49V688.468H2718.46Z" fill="white"/>
<path d="M1671.73 1008.38C1670.23 1008.38 1667.87 1008.78 1665.73 1009.53L1666.37 998.4H1682.74V993.911H1661.81L1660.66 1013.97L1663.49 1014.83C1665.33 1013.22 1667.87 1012.65 1670.46 1012.65C1675.25 1012.65 1679.63 1015.58 1679.63 1020.94C1679.63 1025.78 1675.53 1029.37 1670.4 1029.37C1666.31 1029.37 1663.02 1027.46 1661.24 1024.52L1657.6 1027.28C1660.37 1031.44 1665.27 1033.91 1670.75 1033.91C1678.42 1033.91 1684.53 1028.67 1684.53 1021.01C1684.53 1013.05 1678.76 1008.38 1671.73 1008.38Z" fill="white"/>
<path d="M2425.64 1008.38C2424.14 1008.38 2421.77 1008.78 2419.64 1009.53L2420.27 998.4H2436.65V993.911H2415.71L2414.56 1013.97L2417.39 1014.83C2419.24 1013.22 2421.77 1012.65 2424.36 1012.65C2429.15 1012.65 2433.53 1015.58 2433.53 1020.94C2433.53 1025.78 2429.44 1029.37 2424.31 1029.37C2420.22 1029.37 2416.94 1027.46 2415.14 1024.52L2411.51 1027.28C2414.27 1031.44 2419.17 1033.91 2424.65 1033.91C2432.32 1033.91 2438.43 1028.67 2438.43 1021.01C2438.43 1013.05 2432.67 1008.38 2425.64 1008.38Z" fill="white"/>
<path fill-rule="evenodd" clip-rule="evenodd" d="M2612.37 38.5697L2595.54 76.9999L2591.97 75.4844L2608.8 37L2612.37 38.5697ZM2599.11 47.8795C2599.11 53.7794 2594.78 58.5967 2588.28 58.5967C2582.33 58.5967 2577.51 54.3207 2577.51 47.8795C2577.51 42.088 2581.84 37.3248 2588.28 37.3248C2594.24 37.3248 2599.11 41.4926 2599.11 47.8795ZM2581.35 47.9336C2581.35 52.2638 2584.44 55.1325 2588.33 55.1325C2592.56 55.1325 2595.32 51.8849 2595.32 47.9336C2595.32 43.6577 2592.17 40.843 2588.33 40.843C2584.12 40.843 2581.35 43.9824 2581.35 47.9336ZM2626.55 65.7415C2626.55 71.5872 2622.28 76.4045 2615.72 76.4045C2609.83 76.4045 2604.96 72.1285 2604.96 65.7415C2604.96 59.9499 2609.29 55.1325 2615.72 55.1325C2621.67 55.1325 2626.55 59.4086 2626.55 65.7415ZM2608.8 65.7956C2608.8 70.0716 2611.88 72.9404 2615.72 72.9404C2620 72.9404 2622.76 69.7469 2622.76 65.7956C2622.76 61.4654 2619.62 58.6508 2615.72 58.6508C2611.56 58.6508 2608.8 61.8443 2608.8 65.7956ZM2538.06 57.5144C2538.06 68.5023 2532.97 76.4048 2524.09 76.4048C2516.03 76.4048 2510.13 69.6389 2510.13 57.5144C2510.13 46.5266 2515.22 38.57 2524.09 38.57C2532.16 38.57 2538.06 45.3359 2538.06 57.5144ZM2514.73 57.5144C2514.73 66.9326 2518.62 72.1829 2524.09 72.1829C2530.04 72.1829 2533.46 66.3913 2533.46 57.5144C2533.46 47.9881 2529.62 42.792 2524.09 42.792C2518.2 42.792 2514.73 48.5835 2514.73 57.5144ZM2502.17 76.0801H2497.63V44.4157L2490.21 49.9908L2487.94 46.5808L2498.38 38.8947H2502.17V76.0801ZM2558.09 76.4048C2566.97 76.4048 2572.04 68.5023 2572.04 57.5144C2572.04 45.3359 2566.15 38.57 2558.09 38.57C2549.21 38.57 2544.12 46.5266 2544.12 57.5144C2544.12 69.6389 2550.02 76.4048 2558.09 76.4048ZM2558.09 72.1829C2552.62 72.1829 2548.72 66.9326 2548.72 57.5144C2548.72 48.5835 2552.18 42.792 2558.09 42.792C2563.6 42.792 2567.44 47.9881 2567.44 57.5144C2567.44 66.3913 2564.04 72.1829 2558.09 72.1829Z" fill="white"/>
<path d="M2488.19 255.47V259.934H2507.18L2492.14 294.498L2496.95 295.47L2512.51 258.847V255.47H2488.19Z" fill="white"/>
<path d="M2530.24 269.937C2528.75 269.937 2526.39 270.341 2524.24 271.09L2524.89 259.966H2541.25V255.47H2520.33L2519.18 275.528L2522.01 276.393C2523.85 274.779 2526.39 274.202 2528.98 274.202C2533.75 274.202 2538.15 277.142 2538.15 282.502C2538.15 287.344 2534.04 290.917 2528.92 290.917C2524.82 290.917 2521.54 289.015 2519.76 286.076L2516.12 288.842C2518.89 292.992 2523.79 295.47 2529.27 295.47C2536.92 295.47 2543.05 290.226 2543.05 282.56C2543.05 274.606 2537.28 269.937 2530.24 269.937Z" fill="white"/>
<path d="M2567.33 294L2584.16 255.569L2580.59 254L2563.75 292.484L2567.33 294ZM2560.07 275.596C2566.57 275.596 2570.9 270.779 2570.9 264.879C2570.9 258.492 2566.03 254.325 2560.07 254.325C2553.63 254.325 2549.3 259.088 2549.3 264.879C2549.3 271.32 2554.12 275.596 2560.07 275.596ZM2560.13 272.132C2556.23 272.132 2553.14 269.264 2553.14 264.933C2553.14 260.982 2555.9 257.843 2560.13 257.843C2563.97 257.843 2567.11 260.657 2567.11 264.933C2567.11 268.885 2564.35 272.132 2560.13 272.132ZM2587.51 293.404C2594.06 293.404 2598.34 288.587 2598.34 282.741C2598.34 276.408 2593.47 272.132 2587.51 272.132C2581.07 272.132 2576.74 276.95 2576.74 282.741C2576.74 289.128 2581.61 293.404 2587.51 293.404ZM2587.51 289.94C2583.67 289.94 2580.59 287.071 2580.59 282.795C2580.59 278.844 2583.35 275.651 2587.51 275.651C2591.42 275.651 2594.55 278.465 2594.55 282.795C2594.55 286.747 2591.79 289.94 2587.51 289.94Z" fill="white"/>
<path fill-rule="evenodd" clip-rule="evenodd" d="M2587.66 472.569L2570.83 511L2567.26 509.484L2584.09 471L2587.66 472.569ZM2574.4 481.879C2574.4 487.779 2570.07 492.596 2563.58 492.596C2557.62 492.596 2552.8 488.32 2552.8 481.879C2552.8 476.088 2557.13 471.325 2563.58 471.325C2569.53 471.325 2574.4 475.492 2574.4 481.879ZM2556.64 481.933C2556.64 486.264 2559.74 489.132 2563.63 489.132C2567.85 489.132 2570.61 485.885 2570.61 481.933C2570.61 477.657 2567.47 474.843 2563.63 474.843C2559.41 474.843 2556.64 477.982 2556.64 481.933ZM2601.84 499.741C2601.84 505.587 2597.57 510.404 2591.01 510.404C2585.12 510.404 2580.25 506.128 2580.25 499.741C2580.25 493.95 2584.58 489.132 2591.01 489.132C2596.97 489.132 2601.84 493.408 2601.84 499.741ZM2584.09 499.795C2584.09 504.071 2587.17 506.94 2591.01 506.94C2595.29 506.94 2598.05 503.747 2598.05 499.795C2598.05 495.465 2594.92 492.651 2591.01 492.651C2586.85 492.651 2584.09 495.844 2584.09 499.795ZM2533.38 510.405C2542.26 510.405 2547.34 502.502 2547.34 491.514C2547.34 479.336 2541.45 472.57 2533.38 472.57C2524.5 472.57 2519.41 480.526 2519.41 491.514C2519.41 503.639 2525.32 510.405 2533.38 510.405ZM2533.38 506.183C2527.92 506.183 2524.01 500.932 2524.01 491.514C2524.01 482.583 2527.48 476.792 2533.38 476.792C2538.9 476.792 2542.74 481.988 2542.74 491.514C2542.74 500.391 2539.34 506.183 2533.38 506.183ZM2502 486.48C2500.58 486.48 2498.37 486.859 2496.37 487.563L2496.96 477.116H2512.34V472.894H2492.68L2491.6 491.731L2494.26 492.543C2495.98 491.027 2498.37 490.486 2500.8 490.486C2505.3 490.486 2509.41 493.246 2509.41 498.28C2509.41 502.827 2505.57 506.183 2500.75 506.183C2496.91 506.183 2493.82 504.396 2492.14 501.636L2488.74 504.234C2491.33 508.131 2495.93 510.459 2501.07 510.459C2508.28 510.459 2514.01 505.533 2514.01 498.334C2514.01 490.865 2508.6 486.48 2502 486.48Z" fill="white"/>
<path fill-rule="evenodd" clip-rule="evenodd" d="M2581.54 689.573L2564.71 728.001L2561.14 726.48L2577.97 688.001L2581.54 689.573ZM2568.28 698.877C2568.28 704.779 2563.95 709.599 2557.45 709.599C2551.5 709.599 2546.68 705.32 2546.68 698.877C2546.68 693.091 2551.01 688.323 2557.45 688.323C2563.41 688.323 2568.28 692.498 2568.28 698.877ZM2550.53 698.929C2550.53 703.258 2553.61 706.132 2557.51 706.132C2561.73 706.132 2564.49 702.885 2564.49 698.929C2564.49 694.663 2561.36 691.841 2557.51 691.841C2553.29 691.841 2550.53 694.985 2550.53 698.929ZM2595.73 716.738C2595.73 722.588 2591.45 727.408 2584.9 727.408C2579 727.408 2574.13 723.13 2574.13 716.738C2574.13 710.952 2578.46 706.132 2584.9 706.132C2590.86 706.132 2595.73 710.411 2595.73 716.738ZM2577.97 716.789C2577.97 721.068 2581.05 723.941 2584.9 723.941C2589.17 723.941 2591.94 720.746 2591.94 716.789C2591.94 712.46 2588.79 709.65 2584.9 709.65C2580.73 709.65 2577.97 712.846 2577.97 716.789ZM2495.62 722.911V722.795L2505.31 713.001C2509.92 708.349 2511.64 704.728 2511.64 700.501C2511.64 693.633 2506.28 689.573 2500.39 689.573C2494.54 689.573 2490.8 692.55 2488.76 696.609L2492.11 698.929C2493.83 695.578 2496.6 693.852 2500.12 693.852C2504.23 693.852 2507.09 696.88 2507.09 700.991C2507.09 704.676 2504.55 707.705 2501.41 710.952L2488.69 723.942L2488.76 727.073H2512.13V722.911H2495.62ZM2530.08 703.478C2528.66 703.478 2526.45 703.851 2524.45 704.56L2525.04 694.109H2540.42V689.895H2520.76L2519.68 708.723L2522.34 709.535C2524.06 708.027 2526.45 707.486 2528.88 707.486C2533.38 707.486 2537.49 710.243 2537.49 715.282C2537.49 719.818 2533.65 723.181 2528.83 723.181C2524.99 723.181 2521.9 721.39 2520.22 718.632L2516.82 721.236C2519.41 725.127 2524.01 727.46 2529.15 727.46C2536.36 727.46 2542.09 722.524 2542.09 715.334C2542.09 707.859 2536.68 703.478 2530.08 703.478Z" fill="white"/>
<path fill-rule="evenodd" clip-rule="evenodd" d="M2557.66 906.573L2540.83 945.001L2537.24 943.48L2554.09 905.001L2557.66 906.573ZM2544.4 915.877C2544.4 921.779 2540.07 926.599 2533.57 926.599C2527.62 926.599 2522.8 922.32 2522.8 915.877C2522.8 910.091 2527.13 905.323 2533.57 905.323C2539.53 905.323 2544.4 909.498 2544.4 915.877ZM2526.64 915.929C2526.64 920.258 2529.73 923.132 2533.62 923.132C2537.85 923.132 2540.61 919.885 2540.61 915.929C2540.61 911.663 2537.46 908.841 2533.62 908.841C2529.4 908.841 2526.64 911.985 2526.64 915.929ZM2571.83 933.738C2571.83 939.588 2567.55 944.408 2561.01 944.408C2555.11 944.408 2550.23 940.13 2550.23 933.738C2550.23 927.952 2554.56 923.132 2561.01 923.132C2566.96 923.132 2571.83 927.411 2571.83 933.738ZM2554.09 933.789C2554.09 938.068 2557.17 940.941 2561.01 940.941C2565.29 940.941 2568.04 937.746 2568.04 933.789C2568.04 929.46 2564.91 926.65 2561.01 926.65C2556.85 926.65 2554.09 929.846 2554.09 933.789ZM2517.34 925.517C2517.34 936.496 2512.24 944.408 2503.37 944.408C2495.31 944.408 2489.41 937.63 2489.41 925.517C2489.41 914.524 2494.5 906.573 2503.37 906.573C2511.43 906.573 2517.34 913.339 2517.34 925.517ZM2494.01 925.517C2494.01 934.924 2497.9 940.181 2503.37 940.181C2509.32 940.181 2512.73 934.382 2512.73 925.517C2512.73 915.98 2508.89 910.787 2503.37 910.787C2497.48 910.787 2494.01 916.586 2494.01 925.517Z" fill="white"/>
<path d="M2434.42 45.1318H877.789C871.162 45.1318 865.789 50.5044 865.789 57.1318V923.691C865.789 930.318 871.162 935.691 877.789 935.691H2434.42C2441.05 935.691 2446.42 930.318 2446.42 923.691V57.1318C2446.42 50.5044 2441.05 45.1318 2434.42 45.1318Z" fill="#474DFF"/>
<path d="M865.789 883.846C865.789 880.532 868.475 877.846 871.789 877.846H2440.42C2443.73 877.846 2446.42 880.532 2446.42 883.846V923.691C2446.42 930.318 2441.05 935.691 2434.42 935.691H877.789C871.161 935.691 865.789 930.318 865.789 923.691V883.846Z" fill="#11BA91"/>
<path d="M866.002 57.1318C866.002 50.5044 871.374 45.1318 878.002 45.1318H2434.21C2440.83 45.1318 2446.21 50.5044 2446.21 57.1318V180.683H1498.29L866.002 354.042V57.1318Z" fill="#994CFC"/>
<path d="M866.002 877.847V622.272L1491.32 877.847H866.002Z" fill="#20DEB0"/>
</svg>
