<svg fill="none" height="1181" viewBox="0 0 2763 1181" width="2763" xmlns="http://www.w3.org/2000/svg"><rect fill="#171b21" height="1181" rx="15" width="2763"/><path clip-rule="evenodd" d="m770.413 311.424c14.181 0 25.676-11.495 25.676-25.676 0-14.18-11.495-25.675-25.676-25.675-14.18 0-25.675 11.495-25.675 25.675 0 14.181 11.495 25.676 25.675 25.676z" fill="#20deb0" fill-rule="evenodd"/><path clip-rule="evenodd" d="m770.413 415.231c14.18 0 25.676-11.496 25.676-25.676s-11.496-25.676-25.676-25.676-25.675 11.496-25.675 25.676 11.495 25.676 25.675 25.676z" fill="#0eab85" fill-rule="evenodd"/><path clip-rule="evenodd" d="m770.413 99.9049c14.18 0 25.676-11.4953 25.676-25.6756s-11.496-25.6756-25.676-25.6756-25.675 11.4953-25.675 25.6756 11.495 25.6756 25.675 25.6756z" fill="#994cfc" fill-rule="evenodd"/><path clip-rule="evenodd" d="m770.413 205.665c14.181 0 25.676-11.496 25.676-25.676s-11.495-25.676-25.676-25.676c-14.18 0-25.675 11.496-25.675 25.676s11.495 25.676 25.675 25.676z" fill="#474dff" fill-rule="evenodd"/><g fill="#fff"><path clip-rule="evenodd" d="m124.094 90.4852h4.991v-45.3534h-4.991zm-72.981-.0003h-5.361v-43.7513h5.361v20.52h22.9235v-20.52h5.3611v43.7513h-5.3611v-18.3016h-22.9235zm51.058-30.379c8.38 0 13.926 6.2853 13.926 14.9123 0 .5412-.057 1.1948-.093 1.619-.018.2037-.031.3546-.031.4146h-23.1071c.6778 5.6075 4.6215 9.2432 10.0441 9.2432 3.759 0 6.593-1.7254 8.442-4.067l3.512 3.0194c-2.588 3.3276-6.655 5.6076-12.139 5.6076-8.5035 0-14.9121-6.2238-14.9121-15.3438 0-9.0583 6.2238-15.4053 14.3581-15.4053zm8.996 12.8172c-.801-4.9297-3.944-8.1956-8.75-8.1956-4.683 0-8.4419 3.081-9.3662 8.1956zm34.434-21.5057c0 1.9718-1.602 3.5124-3.574 3.5124-2.033 0-3.574-1.5406-3.574-3.5124 0-1.9103 1.541-3.5125 3.574-3.5125 1.972 0 3.574 1.6022 3.574 3.5125zm-1.109 39.068h-4.991v-30.0097h4.991zm30.564-30.0099v14.5427c0 7.1481-4.129 11.2767-8.874 11.2767-4.806 0-7.332-2.5265-7.332-9.3665v-16.4529h-4.992v17.8702c0 8.5654 4.375 12.5092 11.277 12.5092 3.882 0 7.456-1.9103 9.859-5.3611h.062v4.9914h4.991v-30.0097zm38.971 5.546c2.403-3.8205 6.347-5.9156 10.907-5.9156 6.84 0 10.537 3.9437 10.537 12.8172v17.5621h-4.991v-16.2064c0-6.7784-2.28-9.5513-7.025-9.5513-4.621 0-8.38 4.1286-8.38 10.8453v14.9124h-4.992v-16.268c0-6.6551-2.465-9.4897-7.148-9.4897-4.868 0-8.688 4.1286-8.688 10.8453v14.9124h-4.93v-30.0096h4.93v5.1762h.061c2.465-3.5741 6.224-5.5459 10.106-5.5459 4.622 0 7.949 1.9102 9.551 5.9156zm48.371 24.4634h5.422v-43.7513h-5.422zm21.094-24.7715c2.527-3.574 6.47-5.6075 10.907-5.6075 6.47 0 10.784 4.0054 10.784 12.5707v17.8086h-4.991v-16.3913c0-7.0248-2.958-9.3664-7.333-9.3664-5.669 0-9.428 4.0054-9.428 10.7837v14.974h-4.992v-30.0096h4.992v5.2378zm43.695 25.1416c5.361 0 9.859-2.2184 12.386-5.053l-3.451-3.0811c-1.849 2.0335-4.991 3.5741-8.504 3.5741-6.039 0-10.229-4.3752-10.229-10.7838 0-6.347 4.19-10.7837 10.229-10.7837 3.574 0 6.532 1.4789 8.381 3.7589l3.451-3.0195c-2.958-3.5124-7.58-5.361-12.078-5.361-8.812 0-15.036 6.347-15.036 15.4053 0 9.12 6.224 15.3438 14.851 15.3438zm25.416-3.451c0 1.9103-1.602 3.4508-3.512 3.4508-2.034 0-3.574-1.5405-3.574-3.4508 0-1.9719 1.54-3.5124 3.574-3.5124 1.91 0 3.512 1.5405 3.512 3.5124zm53.586 3.0809h6.039l-6.162-7.3329c2.773-3.9438 3.882-8.8735 3.882-13.0637l-4.868.1232c0 2.8962-.739 6.1621-2.341 8.9351l-17.809-21.2594c.431-3.8822 3.019-7.0248 8.072-7.0248 4.376.0616 6.779 2.5264 8.073 5.361l4.313-1.6638c-1.725-3.9437-5.73-8.2572-12.755-8.2572-7.21 0-12.386 5.1762-13.002 12.3859l5.299 6.347c-4.868 2.6497-8.319 7.3946-8.319 12.9405 0 7.7643 6.162 12.8789 13.927 12.8789 5.299 0 9.181-1.6638 12.139-4.56zm-24.34-12.7556c0-3.6357 2.28-7.2097 6.162-9.0583l11.77 14.1113v.0616c-2.157 1.9719-5.053 3.2043-8.75 3.2043-5.485 0-9.182-3.5124-9.182-8.3189zm60.365 12.7556h-5.423v-43.7513h5.423zm26.579-30.379c-4.437 0-8.381 2.0335-10.907 5.6075h-.062v-5.2378h-4.991v30.0096h4.991v-14.974c0-6.7783 3.759-10.7837 9.428-10.7837 4.375 0 7.333 2.3416 7.333 9.3664v16.3913h4.991v-17.8086c0-8.5653-4.313-12.5707-10.783-12.5707zm30.405 24.0322 9.058-23.6626h5.423l-12.201 30.0096h-4.807l-12.262-30.0096h5.361l9.243 23.6626zm45.483-9.1199c0-8.627-5.546-14.9123-13.926-14.9123-8.134 0-14.358 6.347-14.358 15.4053 0 9.12 6.409 15.3438 14.912 15.3438 5.485 0 9.552-2.28 12.14-5.6076l-3.513-3.0194c-1.848 2.3416-4.683 4.067-8.442 4.067-5.422 0-9.366-3.6357-10.044-9.2432h23.108c0-.06.013-.2109.03-.4146.037-.4242.093-1.0778.093-1.619zm-13.68-10.2907c4.807 0 7.949 3.2659 8.75 8.1956h-18.116c.924-5.1146 4.683-8.1956 9.366-8.1956zm63.426 24.2786c-1.663.9243-3.757 1.8487-7.271 1.8487-5.361 0-7.824-3.266-7.824-9.3049v-16.761h-3.821v-4.3135h3.821v-10.2292l4.989-.5546v10.7838h9.985v4.3135h-9.985v16.0216c0 3.574.865 5.361 3.699 5.361 1.787 0 3.636-.7394 5.053-1.5405zm-32.564 1.8489c7.21 0 10.722-3.8822 10.722-8.5654.057-5.4172-3.453-6.7521-8.918-8.8314l-.005-.0017-.023-.0087-.005-.0019c-.492-.1875-1.001-.3811-1.524-.5844-3.205-1.2324-5.67-2.3416-5.67-4.6832 0-2.1568 2.342-3.5125 4.622-3.5125 2.526 0 5.299.8011 7.949 3.0811l2.588-3.9438c-3.327-2.7113-6.717-3.6972-10.291-3.6972-5.73 0-9.921 3.4508-9.921 8.0724 0 5.4843 4.129 7.5178 8.997 9.2432l.358.1209c4.168 1.4068 6.79 2.292 6.79 4.8088 0 2.1567-2.095 4.0054-5.669 4.0054-4.252 0-6.84-1.4173-9.182-3.5741l-2.588 3.7589c2.958 2.6498 6.84 4.3136 11.77 4.3136zm68.931-15.3438c0 9.12-6.594 15.3438-15.406 15.3438-9.366 0-15.528-6.7168-15.528-15.3438s6.162-15.4053 15.528-15.4053c8.812 0 15.406 6.2853 15.406 15.4053zm-25.881 0c0 5.9773 4.252 10.7838 10.475 10.7838 5.793 0 10.353-4.4368 10.353-10.7838 0-6.4086-4.56-10.7837-10.353-10.7837-6.285 0-10.475 4.8064-10.475 10.7837zm48.417-15.4053c-4.067 0-7.579 2.0951-9.798 5.6691h-.061v-5.2994h-4.992v30.0096h4.992v-14.481c0-6.0389 3.45-10.414 9.12-10.414.493 0 1.294.0616 1.971.1232v-5.5459c-.308-.0616-.739-.0616-1.232-.0616zm27.078 22.1837c0 4.6832-3.512 8.5654-10.722 8.5654-4.93 0-8.812-1.6638-11.77-4.3136l2.589-3.7589c2.341 2.1568 4.929 3.5741 9.181 3.5741 3.574 0 5.669-1.8487 5.669-4.0054 0-2.5168-2.622-3.402-6.79-4.8088l-.358-.1209c-4.868-1.7254-8.997-3.7589-8.997-9.2432 0-4.6216 4.191-8.0724 9.922-8.0724 3.574 0 6.963.9859 10.29 3.6972l-2.588 3.9438c-2.649-2.28-5.422-3.0811-7.949-3.0811-2.28 0-4.622 1.3557-4.622 3.5125 0 2.3416 2.465 3.4508 5.67 4.6832.534.2077 1.054.4053 1.557.5967 5.466 2.0793 8.975 3.4142 8.918 8.8314z" fill-rule="evenodd"/><path clip-rule="evenodd" d="m530.508 389.438v-4.93h18.055v17.316c-4.067 3.45-10.29 5.546-17.007 5.546-12.571 0-21.876-8.566-21.876-22.122 0-12.941 8.504-22.369 21.691-22.369 5.916 0 12.016 2.034 16.699 6.902l-3.82 3.266c-3.513-3.328-7.826-5.053-12.941-5.053-9.181 0-16.021 6.778-16.021 17.254 0 9.859 6.47 17.13 16.268 17.13 4.375 0 8.38-.986 11.646-3.327v-9.613zm-301.846 9.675c-3.82 4.744-9.366 8.257-17.069 8.257-11.832 0-21.814-7.703-21.814-21.999 0-12.447 7.764-22.491 21.814-22.491 6.039 0 12.324 2.465 17.069 8.38l-4.005 3.328c-3.328-4.191-8.011-6.594-13.064-6.594-9.983 0-16.207 7.21-16.207 17.377 0 10.414 6.963 16.884 16.207 16.884 5.669 0 9.983-2.711 13.064-6.531zm35.782-7.025c0 9.12-6.594 15.344-15.405 15.344-9.367 0-15.529-6.717-15.529-15.344s6.162-15.405 15.529-15.405c8.811 0 15.405 6.285 15.405 15.405zm-25.881 0c0 5.977 4.252 10.784 10.476 10.784 5.792 0 10.352-4.437 10.352-10.784 0-6.408-4.56-10.784-10.352-10.784-6.286 0-10.476 4.807-10.476 10.784zm49.523-15.405c-4.436 0-8.38 2.033-10.906 5.607h-.062v-5.237h-4.991v30.009h4.991v-14.974c0-6.778 3.759-10.784 9.428-10.784 4.375 0 7.333 2.342 7.333 9.367v16.391h4.991v-17.808c0-8.566-4.313-12.571-10.784-12.571zm39.69 22.183c0 4.683-3.512 8.566-10.722 8.566-4.93 0-8.812-1.664-11.77-4.314l2.588-3.759c2.342 2.157 4.93 3.574 9.182 3.574 3.574 0 5.669-1.848 5.669-4.005 0-2.517-2.622-3.402-6.79-4.809l-.358-.121c-4.868-1.725-8.997-3.758-8.997-9.243 0-4.621 4.19-8.072 9.921-8.072 3.574 0 6.963.986 10.291 3.697l-2.588 3.944c-2.65-2.28-5.423-3.081-7.949-3.081-2.28 0-4.622 1.356-4.622 3.512 0 2.342 2.465 3.451 5.669 4.683.535.208 1.055.406 1.558.597 5.465 2.079 8.974 3.414 8.918 8.831zm33.551-7.271c0-8.627-5.546-14.912-13.926-14.912-8.134 0-14.358 6.347-14.358 15.405 0 9.12 6.409 15.344 14.912 15.344 5.485 0 9.552-2.28 12.14-5.608l-3.513-3.019c-1.848 2.341-4.683 4.067-8.442 4.067-5.422 0-9.366-3.636-10.044-9.243h23.108c0-.06.013-.209.03-.411v-.003l.001-.001v-.001c.036-.424.092-1.077.092-1.618zm-13.68-10.291c4.807 0 7.949 3.266 8.751 8.196h-18.117c.924-5.114 4.683-8.196 9.366-8.196zm26.297.986c2.527-3.574 6.471-5.607 10.907-5.607 6.471 0 10.784 4.005 10.784 12.571v17.808h-4.991v-16.391c0-7.025-2.958-9.367-7.333-9.367-5.669 0-9.428 4.006-9.428 10.784v14.974h-4.992v-30.009h4.992v5.237zm39.872 25.142c7.21 0 10.722-3.883 10.722-8.566.056-5.417-3.453-6.752-8.918-8.831-.503-.191-1.023-.389-1.558-.597-3.204-1.232-5.669-2.341-5.669-4.683 0-2.156 2.342-3.512 4.622-3.512 2.526 0 5.299.801 7.949 3.081l2.588-3.944c-3.327-2.711-6.717-3.697-10.291-3.697-5.73 0-9.921 3.451-9.921 8.072 0 5.485 4.129 7.518 8.997 9.243l.358.121c4.168 1.407 6.79 2.292 6.79 4.809 0 2.157-2.095 4.005-5.669 4.005-4.252 0-6.84-1.417-9.182-3.574l-2.588 3.759c2.958 2.65 6.84 4.314 11.77 4.314zm38.602-15.837v-14.542h4.992v30.009h-4.992v-4.992h-.061c-2.403 3.451-5.977 5.361-9.86 5.361-6.901 0-11.276-3.943-11.276-12.508v-17.87h4.991v16.452c0 6.84 2.526 9.366 7.333 9.366 4.745 0 8.873-4.128 8.873-11.276zm23.38 15.837c7.21 0 10.722-3.883 10.722-8.566.057-5.417-3.452-6.752-8.918-8.831-.503-.191-1.022-.389-1.557-.597-3.204-1.232-5.669-2.341-5.669-4.683 0-2.156 2.341-3.512 4.621-3.512 2.527 0 5.3.801 7.949 3.081l2.589-3.944c-3.328-2.711-6.717-3.697-10.291-3.697-5.731 0-9.921 3.451-9.921 8.072 0 5.485 4.128 7.518 8.996 9.243l.358.121c4.168 1.407 6.791 2.292 6.791 4.809 0 2.157-2.096 4.005-5.67 4.005-4.251 0-6.84-1.417-9.181-3.574l-2.588 3.759c2.958 2.65 6.84 4.314 11.769 4.314zm96.84-30.749c-4.067 0-7.579 2.095-9.797 5.669h-.062v-5.299h-4.991v30.009h4.991v-14.481c0-6.039 3.451-10.414 9.12-10.414.493 0 1.294.062 1.972.123v-5.546c-.308-.061-.74-.061-1.233-.061zm35.297 15.405c0 9.12-6.593 15.344-15.405 15.344-9.367 0-15.529-6.717-15.529-15.344s6.162-15.405 15.529-15.405c8.812 0 15.405 6.285 15.405 15.405zm-25.881 0c0 5.977 4.252 10.784 10.476 10.784 5.792 0 10.352-4.437 10.352-10.784 0-6.408-4.56-10.784-10.352-10.784-6.286 0-10.476 4.807-10.476 10.784zm54.145-.493c0 7.148-4.128 11.276-8.873 11.276-4.806 0-7.333-2.526-7.333-9.366v-16.452h-4.991v17.87c0 8.565 4.375 12.508 11.276 12.508 3.883 0 7.457-1.91 9.86-5.361h.061v4.992h4.992v-30.009h-4.992zm19.314-10.106c2.527-3.142 6.224-4.806 10.229-4.806 8.504 0 14.666 6.717 14.666 15.59 0 9.181-6.408 15.159-14.666 15.159-4.251 0-7.825-1.788-10.229-4.807h-.123v16.638h-4.93v-42.21h4.992v4.436zm-.246 10.784c0 6.347 4.683 10.599 9.983 10.599 6.1 0 10.105-4.56 10.105-10.599 0-6.655-4.436-10.969-10.167-10.969-5.669 0-9.921 4.807-9.921 10.969z" fill-rule="evenodd"/><path clip-rule="evenodd" d="m307.919 301.853h-4.93v-25.697h-3.697v-4.313h3.697v-6.039c0-6.47 3.081-9.736 8.38-9.736 3.02 0 5.361.924 7.025 1.91l-1.109 4.314c-1.91-.986-3.636-1.541-5.238-1.541-2.465 0-4.128 1.541-4.128 5.484v5.608h8.503v4.313h-8.503zm-137.874 0h5.361v-16.7h9.059c9.12 0 15.405-4.251 15.405-13.495 0-7.764-4.251-13.556-14.481-13.556h-15.344zm5.361-21.629v-17.193h9.428c5.855 0 9.429 2.958 9.429 8.504 0 4.991-2.958 8.689-10.291 8.689zm46.783-8.751c-4.067 0-7.58 2.095-9.798 5.669h-.062v-5.299h-4.991v30.01h4.991v-14.482c0-6.038 3.451-10.414 9.12-10.414.493 0 1.294.062 1.972.124v-5.546c-.308-.062-.739-.062-1.232-.062zm35.297 15.406c0 9.119-6.594 15.343-15.406 15.343-9.366 0-15.528-6.716-15.528-15.343s6.162-15.406 15.528-15.406c8.812 0 15.406 6.286 15.406 15.406zm-25.881 0c0 5.977 4.252 10.783 10.475 10.783 5.793 0 10.353-4.436 10.353-10.783 0-6.409-4.56-10.784-10.353-10.784-6.285 0-10.475 4.806-10.475 10.784zm47.244 15.343c8.811 0 15.405-6.224 15.405-15.343 0-9.12-6.594-15.406-15.405-15.406-9.367 0-15.529 6.779-15.529 15.406s6.162 15.343 15.529 15.343zm0-4.56c-6.224 0-10.476-4.806-10.476-10.783 0-5.978 4.19-10.784 10.476-10.784 5.792 0 10.352 4.375 10.352 10.784 0 6.347-4.56 10.783-10.352 10.783zm74.138 4.56c8.812 0 15.405-6.224 15.405-15.343 0-9.12-6.593-15.406-15.405-15.406-9.367 0-15.529 6.779-15.529 15.406s6.162 15.343 15.529 15.343zm0-4.56c-6.224 0-10.476-4.806-10.476-10.783 0-5.978 4.19-10.784 10.476-10.784 5.792 0 10.352 4.375 10.352 10.784 0 6.347-4.56 10.783-10.352 10.783zm29.07 4.191h-4.93v-25.697h-3.697v-4.313h3.697v-6.039c0-6.47 3.081-9.736 8.381-9.736 3.019 0 5.361.924 7.024 1.91l-1.109 4.314c-1.91-.986-3.635-1.541-5.238-1.541-2.464 0-4.128 1.541-4.128 5.484v5.608h8.504v4.313h-8.504zm52.093.308c7.702 0 13.248-3.512 17.069-8.257l-4.005-3.389c-3.082 3.82-7.395 6.531-13.064 6.531-9.243 0-16.207-6.47-16.207-16.884 0-10.167 6.224-17.377 16.207-17.377 5.053 0 9.736 2.403 13.064 6.593l4.005-3.327c-4.745-5.916-11.03-8.381-17.069-8.381-14.05 0-21.814 10.045-21.814 22.492 0 14.296 9.982 21.999 21.814 21.999zm52.851-15.282c0 9.119-6.593 15.343-15.405 15.343-9.366 0-15.529-6.716-15.529-15.343s6.163-15.406 15.529-15.406c8.812 0 15.405 6.286 15.405 15.406zm-25.881 0c0 5.977 4.252 10.783 10.476 10.783 5.792 0 10.352-4.436 10.352-10.783 0-6.409-4.56-10.784-10.352-10.784-6.285 0-10.476 4.806-10.476 10.784zm53.423-15.035-9.059 23.662h-.185l-9.243-23.662h-5.361l12.263 30.009h4.806l12.201-30.009zm22.498-.371c8.381 0 13.927 6.286 13.927 14.913 0 .541-.056 1.194-.093 1.618v.001l-.001.009c-.017.199-.029.346-.029.405h-23.108c.677 5.608 4.621 9.243 10.044 9.243 3.759 0 6.593-1.725 8.442-4.067l3.512 3.02c-2.588 3.327-6.655 5.607-12.139 5.607-8.504 0-14.912-6.224-14.912-15.343 0-9.059 6.223-15.406 14.357-15.406zm8.997 12.817c-.801-4.929-3.944-8.195-8.75-8.195-4.683 0-8.442 3.081-9.367 8.195zm27.345-12.817c-4.067 0-7.58 2.095-9.798 5.669h-.062v-5.299h-4.991v30.01h4.991v-14.482c0-6.038 3.451-10.414 9.12-10.414.493 0 1.294.062 1.972.124v-5.546c-.308-.062-.739-.062-1.232-.062zm29.503 4.868v-4.498h4.991v30.01h-4.806v-4.745h-.062c-2.403 3.204-6.101 5.114-10.476 5.114-8.319 0-14.727-5.977-14.727-15.159 0-8.873 6.162-15.59 14.666-15.59 4.128 0 7.826 1.726 10.352 4.868zm-20.027 10.722c0 6.039 4.005 10.599 10.106 10.599 5.422 0 10.106-4.252 10.106-10.599 0-6.162-4.252-10.968-10.045-10.968-5.669 0-10.167 4.313-10.167 10.968zm57.026-15.22v4.19h-.124c-2.588-2.958-6.347-4.56-10.352-4.56-8.134 0-14.296 6.47-14.296 14.974 0 8.935 6.532 14.851 14.543 14.851 4.313 0 7.825-1.725 10.167-4.622h.123v4.191c0 4.868-3.327 8.811-10.106 8.811-4.252 0-7.271-1.17-10.783-3.142l-1.171 4.621c3.574 2.157 7.702 3.266 12.201 3.266 10.475 0 14.727-6.162 14.727-14.85v-27.73zm-9.86 24.772c-5.361 0-9.798-3.944-9.798-10.353 0-5.792 4.067-10.106 9.798-10.106 5.669 0 10.045 4.006 10.045 10.045 0 5.977-4.006 10.414-10.045 10.414zm36.457-25.142c8.381 0 13.927 6.286 13.927 14.913 0 .541-.056 1.194-.093 1.618-.017.204-.03.355-.03.415h-23.108c.677 5.608 4.621 9.243 10.044 9.243 3.759 0 6.593-1.725 8.442-4.067l3.512 3.02c-2.588 3.327-6.655 5.607-12.139 5.607-8.504 0-14.912-6.224-14.912-15.343 0-9.059 6.223-15.406 14.357-15.406zm8.997 12.817c-.801-4.929-3.944-8.195-8.75-8.195-4.683 0-8.442 3.081-9.367 8.195z" fill-rule="evenodd"/><path clip-rule="evenodd" d="m616.569 197.147h-4.929v-25.696h-3.698v-4.314h3.698v-6.039c0-6.47 3.081-9.736 8.38-9.736 3.02 0 5.361.924 7.025 1.91l-1.109 4.314c-1.91-.986-3.636-1.541-5.238-1.541-2.465 0-4.129 1.541-4.129 5.485v5.607h8.504v4.314h-8.504zm-344.787 0-8.873-13.741h-.123l-6.286 6.963v6.778h-4.93v-45.353h4.93v31.735h.123l14.728-16.391h6.1l-11.215 12.447 11.277 17.562zm-196.6488-43.751v34.878h-.1233l-24.7104-34.878h-5.2995v43.751h5.3611v-34.508h.1232l24.5256 34.508h5.4844v-43.751zm42.0798 28.284c0-8.627-5.546-14.912-13.926-14.912-8.1339 0-14.3576 6.347-14.3576 15.405 0 9.12 6.4086 15.344 14.9126 15.344 5.484 0 9.551-2.28 12.139-5.608l-3.513-3.019c-1.848 2.341-4.683 4.067-8.441 4.067-5.4231 0-9.3669-3.636-10.0447-9.244h23.1077c0-.06.013-.21.03-.414.037-.424.093-1.078.093-1.619zm-13.679-10.291c4.806 0 7.948 3.266 8.749 8.196h-18.1158c.9243-5.115 4.6832-8.196 9.3668-8.196zm37.018 24.279c-1.664.925-3.759 1.849-7.272 1.849-5.361 0-7.826-3.266-7.826-9.305v-16.761h-3.82v-4.313h3.82v-10.229l4.992-.555v10.784h9.982v4.313h-9.982v16.022c0 3.574.862 5.361 3.697 5.361 1.787 0 3.636-.74 5.053-1.541zm42.412-28.53-7.641 22.43h-.123l-6.963-22.43h-4.314l-6.84 22.43h-.123l-7.641-22.43h-5.053l10.414 30.009h4.56l6.84-21.875h.062l6.778 21.875h4.683l10.414-30.009zm38.836 15.035c0 9.12-6.594 15.344-15.405 15.344-9.367 0-15.529-6.717-15.529-15.344s6.162-15.405 15.529-15.405c8.811 0 15.405 6.285 15.405 15.405zm-25.881 0c0 5.977 4.252 10.784 10.476 10.784 5.792 0 10.352-4.437 10.352-10.784 0-6.409-4.56-10.784-10.352-10.784-6.286 0-10.476 4.807-10.476 10.784zm48.417-15.405c-4.067 0-7.579 2.095-9.798 5.669h-.061v-5.3h-4.992v30.01h4.992v-14.481c0-6.039 3.451-10.414 9.12-10.414.493 0 1.294.061 1.972.123v-5.546c-.308-.061-.74-.061-1.233-.061zm57.078 30.379h13.311c13.926 0 22.491-8.935 22.491-21.814 0-12.94-8.811-21.937-22.676-21.937h-13.126zm5.361-4.868v-34.015h7.826c10.229 0 17.131 7.025 17.131 17.069 0 9.86-6.84 16.946-17.377 16.946zm62.144-20.643v-4.499h4.991v30.01h-4.806v-4.745h-.062c-2.403 3.204-6.1 5.115-10.475 5.115-8.319 0-14.728-5.978-14.728-15.159 0-8.874 6.162-15.59 14.666-15.59 4.129 0 7.826 1.725 10.353 4.868zm-20.027 10.722c0 6.039 4.006 10.599 10.106 10.599 5.423 0 10.106-4.252 10.106-10.599 0-6.162-4.252-10.969-10.044-10.969-5.669 0-10.168 4.314-10.168 10.969zm42.729 15.159c3.512 0 5.607-.924 7.271-1.849l-1.356-4.375c-1.417.801-3.266 1.541-5.053 1.541-2.834 0-3.697-1.787-3.697-5.361v-16.022h9.983v-4.313h-9.983v-10.784l-4.991.555v10.229h-3.821v4.313h3.821v16.761c0 6.039 2.465 9.305 7.826 9.305zm35.911-25.881v-4.499h4.991v30.01h-4.806v-4.745h-.062c-2.403 3.204-6.101 5.115-10.476 5.115-8.319 0-14.727-5.978-14.727-15.159 0-8.874 6.162-15.59 14.666-15.59 4.128 0 7.826 1.725 10.352 4.868zm-20.027 10.722c0 6.039 4.005 10.599 10.106 10.599 5.422 0 10.106-4.252 10.106-10.599 0-6.162-4.252-10.969-10.045-10.969-5.669 0-10.167 4.314-10.167 10.969zm61.484 14.789h5.361v-38.821h13.187v-4.93h-31.674v4.93h13.126zm24.913-24.71c2.218-3.574 5.731-5.669 9.798-5.669.493 0 .924 0 1.232.061v5.546c-.678-.062-1.479-.123-1.972-.123-5.669 0-9.12 4.375-9.12 10.414v14.481h-4.991v-30.01h4.991v5.3zm39.301-5.3v4.499h-.062c-2.526-3.143-6.224-4.868-10.352-4.868-8.504 0-14.666 6.716-14.666 15.59 0 9.181 6.409 15.159 14.727 15.159 4.376 0 8.073-1.911 10.476-5.115h.062v4.745h4.806v-30.01zm-9.921 25.82c-6.101 0-10.106-4.56-10.106-10.599 0-6.655 4.498-10.969 10.167-10.969 5.793 0 10.045 4.807 10.045 10.969 0 6.347-4.684 10.599-10.106 10.599zm29.172-20.582c2.527-3.574 6.471-5.607 10.907-5.607 6.471 0 10.784 4.005 10.784 12.57v17.809h-4.991v-16.391c0-7.025-2.958-9.367-7.333-9.367-5.669 0-9.428 4.006-9.428 10.784v14.974h-4.992v-30.01h4.992v5.238zm39.875 25.142c7.209 0 10.722-3.883 10.722-8.566.056-5.417-3.453-6.752-8.918-8.831-.503-.191-1.023-.389-1.558-.597-3.204-1.232-5.669-2.341-5.669-4.683 0-2.157 2.342-3.512 4.622-3.512 2.526 0 5.299.801 7.949 3.081l2.588-3.944c-3.328-2.712-6.717-3.697-10.291-3.697-5.731 0-9.921 3.45-9.921 8.072 0 5.484 4.129 7.518 8.997 9.243l.358.121c4.168 1.407 6.79 2.292 6.79 4.809 0 2.157-2.095 4.005-5.669 4.005-4.252 0-6.84-1.417-9.182-3.574l-2.588 3.759c2.958 2.65 6.84 4.314 11.77 4.314zm64.433-15.837c0-8.627-5.546-14.912-13.927-14.912-8.134 0-14.358 6.347-14.358 15.405 0 9.12 6.409 15.344 14.913 15.344 5.484 0 9.551-2.28 12.139-5.608l-3.512-3.019c-1.849 2.341-4.684 4.067-8.442 4.067-5.423 0-9.367-3.636-10.045-9.244h23.108c0-.06.013-.21.031-.414.036-.424.093-1.078.093-1.619zm-13.68-10.291c4.806 0 7.949 3.266 8.75 8.196h-18.117c.924-5.115 4.683-8.196 9.367-8.196zm26.297 1.048c2.218-3.574 5.73-5.669 9.797-5.669.493 0 .925 0 1.233.061v5.546c-.678-.062-1.479-.123-1.972-.123-5.669 0-9.12 4.375-9.12 10.414v14.481h-4.991v-30.01h4.991v5.3z" fill-rule="evenodd"/><path d="m865.789 1033.65c9.384 0 14.763-8.35 14.763-19.97 0-12.88-6.237-20.028-14.763-20.028-9.384 0-14.763 8.418-14.763 20.028 0 12.82 6.237 19.97 14.763 19.97zm0-4.45c-5.779 0-9.899-5.56-9.899-15.52 0-9.44 3.662-15.559 9.899-15.559 5.836 0 9.899 5.489 9.899 15.559 0 9.39-3.605 15.52-9.899 15.52z"/><path clip-rule="evenodd" d="m2473.75 1013.68c0 11.62-5.37 19.97-14.75 19.97-8.53 0-14.77-7.15-14.77-19.97 0-11.61 5.38-20.028 14.77-20.028 8.52 0 14.75 7.148 14.75 20.028zm-24.66 0c0 9.96 4.13 15.52 9.91 15.52 6.29 0 9.89-6.13 9.89-15.52 0-10.07-4.06-15.559-9.89-15.559-6.24 0-9.91 6.119-9.91 15.559z" fill-rule="evenodd"/><path d="m1635 1028.91v-.12l10.24-10.36c4.87-4.91 6.69-8.76 6.69-13.21 0-7.276-5.65-11.568-11.89-11.568-6.19 0-10.14 3.147-12.3 7.438l3.54 2.47c1.84-3.55 4.75-5.385 8.47-5.385 4.35 0 7.39 3.205 7.39 7.565 0 3.88-2.7 7.08-6.01 10.51l-13.45 13.74.06 3.32h24.71v-4.4z"/><path clip-rule="evenodd" d="m1585.42 1094.09-12.46 20.82h-.14l-12.52-20.82h-6.81l16.4 26.76v21.57h5.93v-21.57l16.47-26.76zm36.26 31.25c0-9.53-6.13-16.47-15.39-16.47-8.98 0-15.86 7-15.86 17.02 0 10.06 7.08 16.94 16.48 16.94 6.06 0 10.55-2.52 13.41-6.2l-3.88-3.34c-2.04 2.6-5.18 4.51-9.33 4.51-5.99 0-10.35-4.02-11.09-10.21h25.52c0-.07.02-.24.04-.47.04-.47.1-1.18.1-1.78zm-15.11-11.37c5.31 0 8.78 3.6 9.66 9.05h-20.01c1.02-5.64 5.17-9.05 10.35-9.05zm49.2.26v-4.96h5.51v33.15h-5.31v-5.24h-.07c-2.65 3.54-6.74 5.65-11.57 5.65-9.19 0-16.27-6.6-16.27-16.75 0-9.8 6.81-17.21 16.2-17.21 4.56 0 8.65 1.89 11.44 5.36zm-22.13 11.85c0 6.68 4.43 11.72 11.17 11.72 5.99 0 11.16-4.7 11.16-11.72 0-6.81-4.7-12.11-11.09-12.11-6.27 0-11.24 4.77-11.24 12.11zm54.22-17.21c-4.49 0-8.37 2.3-10.82 6.26h-.07v-5.86h-5.52v33.15h5.52v-16c0-6.66 3.81-11.51 10.07-11.51.5 0 1.3.07 2 .13l.18.02v-6.13c-.34-.06-.82-.06-1.36-.06zm29.91 24.51c0 5.17-3.88 9.45-11.84 9.45-5.45 0-9.74-1.84-13-4.77l2.86-4.15c2.58 2.38 5.44 3.96 10.14 3.96 3.95 0 6.26-2.05 6.26-4.43 0-2.78-2.87-3.75-7.43-5.29-.16-.05-.31-.1-.47-.16-5.37-1.91-9.93-4.15-9.93-10.21 0-5.1 4.62-8.91 10.96-8.91 3.94 0 7.69 1.08 11.36 4.08l-2.85 4.35c-2.93-2.52-6-3.41-8.79-3.41-2.52 0-5.1 1.51-5.1 3.89 0 2.58 2.72 3.81 6.26 5.17.6.23 1.17.45 1.73.67 6.03 2.29 9.91 3.76 9.84 9.76z" fill-rule="evenodd"/><path clip-rule="evenodd" d="m2696.79 310.162c-3.13-2.211-4.9-5.661-4.9-9.543 0-5.662 3.5-9.436 10.98-9.436h15.59v4.368h-14.34c-6.15 0-8.19 2.588-8.19 6.416 0 4.96 3.5 8.249 9.44 8.249h13.09v4.367h-26.25v-4.367h4.58zm21.99 24.623c0-7.71-5.44-13.479-13.41-13.479-7.99 0-13.48 5.769-13.48 13.479 0 8.196 5.93 13.587 13.48 13.587 7.54 0 13.41-5.391 13.41-13.587zm-3.98 0c0 5.446-4.21 9.166-9.43 9.166-5.24 0-9.44-3.666-9.44-9.166 0-5.068 3.83-9.058 9.44-9.058 5.54 0 9.43 3.99 9.43 9.058zm-30.53 19.734c1.74 0 3.08 1.402 3.08 3.127 0 1.779-1.34 3.127-3.08 3.127-1.67 0-3.06-1.348-3.06-3.127 0-1.725 1.39-3.127 3.06-3.127zm34.19.97v4.368h-26.25v-4.368zm.32 16.627c0-3.073-.81-4.906-1.62-6.362l-3.82 1.186c.7 1.24 1.35 2.858 1.35 4.421 0 2.48-1.57 3.235-4.69 3.235h-14.02v-8.734h-3.77v8.734h-9.44l.49 4.367h8.95v3.343h3.77v-3.343h14.66c5.29 0 8.14-2.156 8.14-6.847zm-22.64 19.863h-3.93v-4.367h26.25v4.205h-4.15v.054c2.8 2.103 4.47 5.338 4.47 9.166 0 7.278-5.22 12.886-13.26 12.886-7.77 0-13.63-5.392-13.63-12.832 0-3.613 1.5-6.848 4.25-9.058zm9.38 17.523c5.29 0 9.28-3.505 9.28-8.843 0-4.744-3.72-8.842-9.28-8.842-5.39 0-9.59 3.72-9.59 8.788 0 4.961 3.77 8.897 9.59 8.897zm13.26 19.651c0-4.691-1.94-8.627-4.42-10.837l-2.69 3.019c1.78 1.617 3.13 4.367 3.13 7.44 0 5.284-3.84 8.95-9.43 8.95-5.56 0-9.44-3.666-9.44-8.95 0-3.127 1.28-5.715 3.29-7.332l-2.65-3.02c-3.07 2.588-4.68 6.632-4.68 10.568 0 7.71 5.54 13.156 13.48 13.156 7.97 0 13.41-5.446 13.41-12.994zm-13.41 18.098c7.97 0 13.41 5.769 13.41 13.479 0 8.195-5.87 13.587-13.41 13.587-7.55 0-13.48-5.392-13.48-13.587 0-7.71 5.49-13.479 13.48-13.479zm0 22.645c5.22 0 9.43-3.721 9.43-9.166 0-5.068-3.89-9.058-9.43-9.058-5.61 0-9.44 3.99-9.44 9.058 0 5.499 4.2 9.166 9.44 9.166zm13.09 15.905v-4.367h-39.68v4.367zm0 9.112v4.367h-39.68v-4.367zm0 15.292v-4.96l-38.28 14.611v4.691l38.28 14.504v-4.961l-9.32-3.396v-17.092zm-13.43 18.979-19.14-6.955v-.108l19.14-7.009zm-8.24 48.928c-3.13-2.211-4.9-5.662-4.9-9.544 0-5.661 3.5-9.435 10.98-9.435h15.59v4.367h-14.34c-6.15 0-8.19 2.588-8.19 6.416 0 4.961 3.5 8.25 9.44 8.25h13.09v4.369h-26.25v-4.369h4.58zm8.14 11.034c-7.55 0-13.04 4.853-13.04 12.196 0 7.112 5.54 12.555 13.48 12.555 7.97 0 13.41-5.61 13.41-13.043 0-4.801-1.99-8.357-4.9-10.629l-2.65 3.081c2.06 1.617 3.57 4.095 3.57 7.381 0 4.75-3.18 8.203-8.09 8.793v-20.218c-.05 0-.19-.013-.37-.029-.37-.034-.94-.087-1.41-.087zm-9 11.978c0-4.211 2.85-6.958 7.16-7.664v15.854c-4.46-.809-7.16-4.095-7.16-8.19zm22.53 20.218-12.01 7.767v.103l6.08 5.507h5.93v4.313h-39.68v-4.313h27.77v-.116l-14.34-12.888v-5.328l10.88 9.808 15.37-9.872zm.32 37.934c0-7.702-5.44-13.479-13.41-13.479-7.99 0-13.48 5.777-13.48 13.479 0 8.203 5.93 13.595 13.48 13.595 7.54 0 13.41-5.392 13.41-13.595zm-3.98 0c0 5.456-4.21 9.179-9.43 9.179-5.24 0-9.44-3.671-9.44-9.179 0-5.057 3.83-9.05 9.44-9.05 5.54 0 9.43 3.993 9.43 9.05zm3.66 29.192v-4.685h-33.97v-11.541h-4.31v27.716h4.31v-11.49z" fill-rule="evenodd"/><path d="m1671.73 1008.38c-1.5 0-3.86.4-6 1.15l.64-11.13h16.37v-4.489h-20.93l-1.15 20.059 2.83.86c1.84-1.61 4.38-2.18 6.97-2.18 4.79 0 9.17 2.93 9.17 8.29 0 4.84-4.1 8.43-9.23 8.43-4.09 0-7.38-1.91-9.16-4.85l-3.64 2.76c2.77 4.16 7.67 6.63 13.15 6.63 7.67 0 13.78-5.24 13.78-12.9 0-7.96-5.77-12.63-12.8-12.63z"/><path d="m2425.64 1008.38c-1.5 0-3.87.4-6 1.15l.63-11.13h16.38v-4.489h-20.94l-1.15 20.059 2.83.86c1.85-1.61 4.38-2.18 6.97-2.18 4.79 0 9.17 2.93 9.17 8.29 0 4.84-4.09 8.43-9.22 8.43-4.09 0-7.37-1.91-9.17-4.85l-3.63 2.76c2.76 4.16 7.66 6.63 13.14 6.63 7.67 0 13.78-5.24 13.78-12.9 0-7.96-5.76-12.63-12.79-12.63z"/><path clip-rule="evenodd" d="m2612.37 38.5697-16.83 38.4302-3.57-1.5155 16.83-38.4844zm-13.26 9.3098c0 5.8999-4.33 10.7172-10.83 10.7172-5.95 0-10.77-4.276-10.77-10.7172 0-5.7915 4.33-10.5547 10.77-10.5547 5.96 0 10.83 4.1678 10.83 10.5547zm-17.76.0541c0 4.3302 3.09 7.1989 6.98 7.1989 4.23 0 6.99-3.2476 6.99-7.1989 0-4.2759-3.15-7.0906-6.99-7.0906-4.21 0-6.98 3.1394-6.98 7.0906zm45.2 17.8079c0 5.8457-4.27 10.663-10.83 10.663-5.89 0-10.76-4.276-10.76-10.663 0-5.7916 4.33-10.609 10.76-10.609 5.95 0 10.83 4.2761 10.83 10.609zm-17.75.0541c0 4.276 3.08 7.1448 6.92 7.1448 4.28 0 7.04-3.1935 7.04-7.1448 0-4.3302-3.14-7.1448-7.04-7.1448-4.16 0-6.92 3.1935-6.92 7.1448zm-70.74-8.2812c0 10.9879-5.09 18.8904-13.97 18.8904-8.06 0-13.96-6.7659-13.96-18.8904 0-10.9878 5.09-18.9444 13.96-18.9444 8.07 0 13.97 6.7659 13.97 18.9444zm-23.33 0c0 9.4182 3.89 14.6685 9.36 14.6685 5.95 0 9.37-5.7916 9.37-14.6685 0-9.5263-3.84-14.7224-9.37-14.7224-5.89 0-9.36 5.7915-9.36 14.7224zm-12.56 18.5657h-4.54v-31.6644l-7.42 5.5751-2.27-3.41 10.44-7.6861h3.79zm55.92.3247c8.88 0 13.95-7.9025 13.95-18.8904 0-12.1785-5.89-18.9444-13.95-18.9444-8.88 0-13.97 7.9566-13.97 18.9444 0 12.1245 5.9 18.8904 13.97 18.8904zm0-4.2219c-5.47 0-9.37-5.2503-9.37-14.6685 0-8.9309 3.46-14.7224 9.37-14.7224 5.51 0 9.35 5.1961 9.35 14.7224 0 8.8769-3.4 14.6685-9.35 14.6685z" fill-rule="evenodd"/><path d="m2488.19 255.47v4.464h18.99l-15.04 34.564 4.81.972 15.56-36.623v-3.377z"/><path d="m2530.24 269.937c-1.49 0-3.85.404-6 1.153l.65-11.124h16.36v-4.496h-20.92l-1.15 20.058 2.83.865c1.84-1.614 4.38-2.191 6.97-2.191 4.77 0 9.17 2.94 9.17 8.3 0 4.842-4.11 8.415-9.23 8.415-4.1 0-7.38-1.902-9.16-4.841l-3.64 2.766c2.77 4.15 7.67 6.628 13.15 6.628 7.65 0 13.78-5.244 13.78-12.91 0-7.954-5.77-12.623-12.81-12.623z"/><path d="m2567.33 294 16.83-38.431-3.57-1.569-16.84 38.484zm-7.26-18.404c6.5 0 10.83-4.817 10.83-10.717 0-6.387-4.87-10.554-10.83-10.554-6.44 0-10.77 4.763-10.77 10.554 0 6.441 4.82 10.717 10.77 10.717zm.06-3.464c-3.9 0-6.99-2.868-6.99-7.199 0-3.951 2.76-7.09 6.99-7.09 3.84 0 6.98 2.814 6.98 7.09 0 3.952-2.76 7.199-6.98 7.199zm27.38 21.272c6.55 0 10.83-4.817 10.83-10.663 0-6.333-4.87-10.609-10.83-10.609-6.44 0-10.77 4.818-10.77 10.609 0 6.387 4.87 10.663 10.77 10.663zm0-3.464c-3.84 0-6.92-2.869-6.92-7.145 0-3.951 2.76-7.144 6.92-7.144 3.91 0 7.04 2.814 7.04 7.144 0 3.952-2.76 7.145-7.04 7.145z"/><path clip-rule="evenodd" d="m2587.66 472.569-16.83 38.431-3.57-1.516 16.83-38.484zm-13.26 9.31c0 5.9-4.33 10.717-10.82 10.717-5.96 0-10.78-4.276-10.78-10.717 0-5.791 4.33-10.554 10.78-10.554 5.95 0 10.82 4.167 10.82 10.554zm-17.76.054c0 4.331 3.1 7.199 6.99 7.199 4.22 0 6.98-3.247 6.98-7.199 0-4.276-3.14-7.09-6.98-7.09-4.22 0-6.99 3.139-6.99 7.09zm45.2 17.808c0 5.846-4.27 10.663-10.83 10.663-5.89 0-10.76-4.276-10.76-10.663 0-5.791 4.33-10.609 10.76-10.609 5.96 0 10.83 4.276 10.83 10.609zm-17.75.054c0 4.276 3.08 7.145 6.92 7.145 4.28 0 7.04-3.193 7.04-7.145 0-4.33-3.13-7.144-7.04-7.144-4.16 0-6.92 3.193-6.92 7.144zm-50.71 10.61c8.88 0 13.96-7.903 13.96-18.891 0-12.178-5.89-18.944-13.96-18.944-8.88 0-13.97 7.956-13.97 18.944 0 12.125 5.91 18.891 13.97 18.891zm0-4.222c-5.46 0-9.37-5.251-9.37-14.669 0-8.931 3.47-14.722 9.37-14.722 5.52 0 9.36 5.196 9.36 14.722 0 8.877-3.4 14.669-9.36 14.669zm-31.38-19.703c-1.42 0-3.63.379-5.63 1.083l.59-10.447h15.38v-4.222h-19.66l-1.08 18.837 2.66.812c1.72-1.516 4.11-2.057 6.54-2.057 4.5 0 8.61 2.76 8.61 7.794 0 4.547-3.84 7.903-8.66 7.903-3.84 0-6.93-1.787-8.61-4.547l-3.4 2.598c2.59 3.897 7.19 6.225 12.33 6.225 7.21 0 12.94-4.926 12.94-12.125 0-7.469-5.41-11.854-12.01-11.854z" fill-rule="evenodd"/><path clip-rule="evenodd" d="m2581.54 689.573-16.83 38.428-3.57-1.521 16.83-38.479zm-13.26 9.304c0 5.902-4.33 10.722-10.83 10.722-5.95 0-10.77-4.279-10.77-10.722 0-5.786 4.33-10.554 10.77-10.554 5.96 0 10.83 4.175 10.83 10.554zm-17.75.052c0 4.329 3.08 7.203 6.98 7.203 4.22 0 6.98-3.247 6.98-7.203 0-4.266-3.13-7.088-6.98-7.088-4.22 0-6.98 3.144-6.98 7.088zm45.2 17.809c0 5.85-4.28 10.67-10.83 10.67-5.9 0-10.77-4.278-10.77-10.67 0-5.786 4.33-10.606 10.77-10.606 5.96 0 10.83 4.279 10.83 10.606zm-17.76.051c0 4.279 3.08 7.152 6.93 7.152 4.27 0 7.04-3.195 7.04-7.152 0-4.329-3.15-7.139-7.04-7.139-4.17 0-6.93 3.196-6.93 7.139zm-82.35 6.122v-.116l9.69-9.794c4.61-4.652 6.33-8.273 6.33-12.5 0-6.868-5.36-10.928-11.25-10.928-5.85 0-9.59 2.977-11.63 7.036l3.35 2.32c1.72-3.351 4.49-5.077 8.01-5.077 4.11 0 6.97 3.028 6.97 7.139 0 3.685-2.54 6.714-5.68 9.961l-12.72 12.99.07 3.131h23.37v-4.162zm34.46-19.433c-1.42 0-3.63.373-5.63 1.082l.59-10.451h15.38v-4.214h-19.66l-1.08 18.828 2.66.812c1.72-1.508 4.11-2.049 6.54-2.049 4.5 0 8.61 2.757 8.61 7.796 0 4.536-3.84 7.899-8.66 7.899-3.84 0-6.93-1.791-8.61-4.549l-3.4 2.604c2.59 3.891 7.19 6.224 12.33 6.224 7.21 0 12.94-4.936 12.94-12.126 0-7.475-5.41-11.856-12.01-11.856z" fill-rule="evenodd"/><path clip-rule="evenodd" d="m2557.66 906.573-16.83 38.428-3.59-1.521 16.85-38.479zm-13.26 9.304c0 5.902-4.33 10.722-10.83 10.722-5.95 0-10.77-4.279-10.77-10.722 0-5.786 4.33-10.554 10.77-10.554 5.96 0 10.83 4.175 10.83 10.554zm-17.76.052c0 4.329 3.09 7.203 6.98 7.203 4.23 0 6.99-3.247 6.99-7.203 0-4.266-3.15-7.088-6.99-7.088-4.22 0-6.98 3.144-6.98 7.088zm45.19 17.809c0 5.85-4.28 10.67-10.82 10.67-5.9 0-10.78-4.278-10.78-10.67 0-5.786 4.33-10.606 10.78-10.606 5.95 0 10.82 4.279 10.82 10.606zm-17.74.051c0 4.279 3.08 7.152 6.92 7.152 4.28 0 7.03-3.195 7.03-7.152 0-4.329-3.13-7.139-7.03-7.139-4.16 0-6.92 3.196-6.92 7.139zm-36.75-8.272c0 10.979-5.1 18.891-13.97 18.891-8.06 0-13.96-6.778-13.96-18.891 0-10.993 5.09-18.944 13.96-18.944 8.06 0 13.97 6.766 13.97 18.944zm-23.33 0c0 9.407 3.89 14.664 9.36 14.664 5.95 0 9.36-5.799 9.36-14.664 0-9.537-3.84-14.73-9.36-14.73-5.89 0-9.36 5.799-9.36 14.73z" fill-rule="evenodd"/></g><path d="m2434.42 45.1318h-1556.631c-6.627 0-12 5.3726-12 12v866.5592c0 6.627 5.373 12 12 12h1556.631c6.63 0 12-5.373 12-12v-866.5592c0-6.6274-5.37-12-12-12z" fill="#474dff"/><path d="m865.789 883.846c0-3.314 2.686-6 6-6h1568.631c3.31 0 6 2.686 6 6v39.845c0 6.627-5.37 12-12 12h-1556.631c-6.628 0-12-5.373-12-12z" fill="#11ba91"/><path d="m866.002 57.1318c0-6.6274 5.372-12 12-12h1556.208c6.62 0 12 5.3726 12 12v123.5512h-947.92l-632.288 173.359z" fill="#994cfc"/><path d="m866.002 877.847v-255.575l625.318 255.575z" fill="#20deb0"/></svg>