<svg height="4.2212in" style="color-interpolation-filters:sRGB;fill:none;fill-rule:evenodd;font-size:12;stroke-linecap:square;stroke-miterlimit:3" viewBox="0 0 591.926 303.926" width="8.2212in" xmlns="http://www.w3.org/2000/svg" xmlns:xlink="http://www.w3.org/1999/xlink"><defs><g id="a"><path d="m2 1-2-1 1.98117-.993387c-.30944.628872-.30816 1.366028.00348 1.993817"/></g><marker id="b" fill="#000" markerUnits="strokeWidth" orient="auto" overflow="visible" refX="7.15" stroke="#000" stroke-width=".229358"><use transform="scale(4.36)" xlink:href="#a"/></marker><marker id="c" fill="#000" markerUnits="strokeWidth" orient="auto" overflow="visible" refX="-7.63" stroke="#000" stroke-width=".229358"><use transform="scale(-4.36)" xlink:href="#a"/></marker></defs><path d="m1.125 1.3013h589.5v301.5h-589.5z" fill="#fff"/><g transform="translate(420.75 -122.5)"><ellipse cx="9" cy="294.926" fill="#92d050" rx="9" ry="9" stroke="#000" stroke-linecap="round" stroke-linejoin="round" stroke-width=".75"/><text fill="#000" font-family="Calibri" font-size="1.00001em" x="5.53" y="298.53">A</text></g><g transform="translate(477 -165.25)"><ellipse cx="9" cy="294.926" fill="#92d050" rx="9" ry="9" stroke="#000" stroke-linecap="round" stroke-linejoin="round" stroke-width=".75"/><text fill="#000" font-family="Calibri" font-size="1.00001em" x="6.07" y="298.53">E</text></g><g transform="translate(533.25 -122.5)"><ellipse cx="9" cy="294.926" fill="#92d050" rx="9" ry="9" stroke="#000" stroke-linecap="round" stroke-linejoin="round" stroke-width=".75"/><text fill="#000" font-family="Calibri" font-size="1.00001em" x="5.31" y="298.53">D</text></g><g transform="translate(506.25 -66.25)"><ellipse cx="9" cy="294.926" fill="#92d050" rx="9" ry="9" stroke="#000" stroke-linecap="round" stroke-linejoin="round" stroke-width=".75"/><text fill="#000" font-family="Calibri" font-size="1.00001em" x="5.8" y="298.53">C</text></g><g transform="translate(450 -66.25)"><ellipse cx="9" cy="294.926" fill="#92d050" rx="9" ry="9" stroke="#000" stroke-linecap="round" stroke-linejoin="round" stroke-width=".75"/><text fill="#000" font-family="Calibri" font-size="1.00001em" x="5.74" y="298.53">B</text></g><path d="m5.36 303.93h.36 83.06" style="stroke:#000;stroke-linecap:round;stroke-linejoin:round;stroke-width:.75;marker-end:url(#c);marker-start:url(#b)" transform="translate(438.75 -131.5)"/><path d="m5.36 303.93h.36 42.63" style="stroke:#000;stroke-linecap:round;stroke-linejoin:round;stroke-width:.75;marker-end:url(#c);marker-start:url(#b)" transform="matrix(.81337702 -.5817369 .5817369 .81337702 260.171 -79.3416)"/><path d="m5.36 303.93h.36 35.47" style="stroke:#000;stroke-linecap:round;stroke-linejoin:round;stroke-width:.75;marker-end:url(#c);marker-start:url(#b)" transform="matrix(.46312589 .88629251 -.88629251 .46312589 704.073 37.8541)"/><path d="m5.36 303.93h.36 72.45" style="stroke:#000;stroke-linecap:round;stroke-linejoin:round;stroke-width:.75;marker-end:url(#c);marker-start:url(#b)" transform="matrix(.83755379 .54635488 -.54635488 .83755379 603.566 -78.2356)"/><path d="m5.36 303.93h.36 26.97" style="stroke:#000;stroke-linecap:round;stroke-linejoin:round;stroke-width:.75;marker-end:url(#c);marker-start:url(#b)" transform="translate(467.92 -76.4473)"/><path d="m5.36 303.93h.36 32.97" style="stroke:#000;stroke-linecap:round;stroke-linejoin:round;stroke-width:.75;marker-end:url(#c);marker-start:url(#b)" transform="matrix(.42535601 -.90502611 .90502611 .42535601 243.924 91.2109)"/><path d="m5.36 303.93h.36 42.94" style="stroke:#000;stroke-linecap:round;stroke-linejoin:round;stroke-width:.75;marker-end:url(#c);marker-start:url(#b)" transform="matrix(-.85272223 -.52236463 .52236463 -.85272223 378.631 424.015)"/><path d="m5.36 303.93h.36 74.07" style="stroke:#000;stroke-linecap:round;stroke-linejoin:round;stroke-width:.75;marker-end:url(#c);marker-start:url(#b)" transform="matrix(.31930997 .94765033 -.94765033 .31930997 774.322 41.6225)"/><path d="m5.36 303.93h.36 72.53" style="stroke:#000;stroke-linecap:round;stroke-linejoin:round;stroke-width:.75;marker-end:url(#c);marker-start:url(#b)" transform="matrix(-.83446335 .55106344 -.55106344 -.83446335 701.501 429.175)"/><path d="m5.36 303.93h.36 73.42" style="stroke:#000;stroke-linecap:round;stroke-linejoin:round;stroke-width:.75;marker-end:url(#c);marker-start:url(#b)" transform="matrix(-.27076846 .9626445 -.9626445 -.27076846 775.875 220.41)"/><g transform="translate(249.75 -124.75)"><ellipse cx="9" cy="294.926" fill="#92d050" rx="9" ry="9" stroke="#000" stroke-linecap="round" stroke-linejoin="round" stroke-width=".75"/><text fill="#000" font-family="Calibri" font-size="1.00001em" x="6.24" y="298.53">F</text></g><g transform="translate(303.75 -156.25)"><ellipse cx="9" cy="294.926" fill="#92d050" rx="9" ry="9" stroke="#000" stroke-linecap="round" stroke-linejoin="round" stroke-width=".75"/><text fill="#000" font-family="Calibri" font-size="1.00001em" x="6.07" y="298.53">E</text></g><g transform="translate(357.75 -124.75)"><ellipse cx="9" cy="294.926" fill="#92d050" rx="9" ry="9" stroke="#000" stroke-linecap="round" stroke-linejoin="round" stroke-width=".75"/><text fill="#000" font-family="Calibri" font-size="1.00001em" x="5.31" y="298.53">D</text></g><g transform="translate(328.5 -70.75)"><ellipse cx="9" cy="294.926" fill="#92d050" rx="9" ry="9" stroke="#000" stroke-linecap="round" stroke-linejoin="round" stroke-width=".75"/><text fill="#000" font-family="Calibri" font-size="1.00001em" x="5.8" y="298.53">C</text></g><g transform="translate(276.75 -75.25)"><ellipse cx="9" cy="294.926" fill="#92d050" rx="9" ry="9" stroke="#000" stroke-linecap="round" stroke-linejoin="round" stroke-width=".75"/><text fill="#000" font-family="Calibri" font-size="1.00001em" x="5.74" y="298.53">B</text></g><g transform="translate(303.75 -111.25)"><ellipse cx="9" cy="294.926" fill="#92d050" rx="9" ry="9" stroke="#000" stroke-linecap="round" stroke-linejoin="round" stroke-width=".75"/><text fill="#000" font-family="Calibri" font-size="1.00001em" x="5.53" y="298.53">A</text></g><path d="m5.36 303.93h.36 26.25" style="stroke:#000;stroke-linecap:round;stroke-linejoin:round;stroke-width:.75;marker-end:url(#c);marker-start:url(#b)" transform="matrix(.97289668 -.23124023 .23124023 .97289668 251.265 -113.924)"/><path d="m5.36 303.93h.36 15.69" style="stroke:#000;stroke-linecap:round;stroke-linejoin:round;stroke-width:.75;marker-end:url(#c);marker-start:url(#b)" transform="matrix(0 -1 1 0 8.8237 174.809)"/><path d="m5.36 303.93h.36 26.59" style="stroke:#000;stroke-linecap:round;stroke-linejoin:round;stroke-width:.75;marker-end:url(#c);marker-start:url(#b)" transform="matrix(-.97518801 -.2213783 .2213783 -.97518801 237.515 475.851)"/><path d="m5.36 303.93h.36 16.49" style="stroke:#000;stroke-linecap:round;stroke-linejoin:round;stroke-width:.75;marker-end:url(#c);marker-start:url(#b)" transform="matrix(-.70710678 .70710678 -.70710678 -.70710678 522.792 406.155)"/><path d="m5.36 303.93h.36 18.09" style="stroke:#000;stroke-linecap:round;stroke-linejoin:round;stroke-width:.75;marker-end:url(#c);marker-start:url(#b)" transform="matrix(.52499044 .85110812 -.85110812 .52499044 576.694 31.4142)"/><g transform="translate(67.5 -246.25)"><ellipse cx="9" cy="294.926" fill="#92d050" rx="9" ry="9" stroke="#000" stroke-linecap="round" stroke-linejoin="round" stroke-width=".75"/><text fill="#000" font-family="Calibri" font-size="1.00001em" x="5.53" y="298.53">A</text></g><g transform="translate(121.5 -246.25)"><ellipse cx="9" cy="294.926" fill="#92d050" rx="9" ry="9" stroke="#000" stroke-linecap="round" stroke-linejoin="round" stroke-width=".75"/><text fill="#000" font-family="Calibri" font-size="1.00001em" x="5.74" y="298.53">B</text></g><g stroke="#000" stroke-linecap="round" stroke-linejoin="round" stroke-width=".75"><path d="m5.36 303.93h.36 24.56" marker-end="url(#c)" marker-start="url(#b)" transform="translate(85.5 -255.25)"/><path d="m0 303.93h144" transform="matrix(0 1 -1 0 416.426 111.676)"/><path d="m0 303.93h144" transform="translate(40.5 -120.25)"/><path d="m0 303.93h144" transform="matrix(.70710678 .70710678 -.70710678 .70710678 276.49658227656 -82.14406448)"/><path d="m0 303.93h144" transform="matrix(.70710678 -.70710678 .70710678 .70710678 -153.31968816 19.67931184)"/><path d="m0 303.93h144" transform="matrix(.5 .8660254 -.8660254 .5 339.9104645204 -30.6408218796)"/><path d="m0 303.93h144" transform="matrix(.8660254 -.5 .5 .8660254 -101.614 -43.5316288)"/><path d="m0 303.93h144" transform="matrix(.96592582199 .25881904199 -.25881904199 .96592582199 121.81800232469 -128.5292118872)"/><path d="m0 303.93h144" transform="matrix(.25881904199 -.96592582199 .96592582199 .25881904199 -199.50211704664 174.56055353796)"/><path d="m0 303.93h144" transform="matrix(-.5 .8660254 -.8660254 -.5 411.9114645204 273.2852081204)"/><path d="m0 303.93h144" transform="matrix(.8660254 .5 -.5 .8660254 202.313 -115.5315988)"/><path d="m0 303.93h144" transform="matrix(.25881904199 .96592582199 -.96592582199 .25881904199 387.63906680469 35.46740038936)"/><path d="m0 303.93h144" transform="matrix(.96592582199 -.25881904199 .25881904199 .96592582199 -35.50442888664 -91.25910462204)"/><ellipse cx="40.5" cy="183.676" fill="#92d050" rx="9" ry="9"/><ellipse cx="184.5" cy="183.676" fill="#92d050" rx="9" ry="9"/><g fill="#92d050" transform="matrix(0 -1 1 0 -182.426 264.676)"><ellipse cx="9" cy="294.926" rx="9" ry="9"/><ellipse cx="153" cy="294.926" rx="9" ry="9"/></g><ellipse cx="9" cy="294.926" fill="#92d050" rx="9" ry="9" transform="matrix(.8660254 -.5 .5 .8660254 -105.111 -31.2373288)"/><ellipse cx="9" cy="294.926" fill="#92d050" rx="9" ry="9" transform="matrix(.8660254 -.5 .5 .8660254 19.5966576 -103.2373288)"/><g fill="#92d050" transform="matrix(-.5 -.8660254 .8660254 -.5 -102.4133497204 401.2871357204)"><ellipse cx="9" cy="294.926" rx="9" ry="9"/><ellipse cx="153" cy="294.926" rx="9" ry="9"/></g><ellipse cx="9" cy="294.926" fill="#92d050" rx="9" ry="9" transform="matrix(.8660254 .5 -.5 .8660254 189.815 -112.2373288)"/><ellipse cx="9" cy="294.926" fill="#92d050" rx="9" ry="9" transform="matrix(.8660254 .5 -.5 .8660254 314.5226576 -40.2373288)"/><g fill="#92d050" transform="matrix(.5 -.8660254 .8660254 .5 -183.4133497204 106.3611357204)"><ellipse cx="9" cy="294.926" rx="9" ry="9"/><ellipse cx="153" cy="294.926" rx="9" ry="9"/></g><ellipse cx="9" cy="294.926" fill="#92d050" rx="9" ry="9" transform="matrix(.96592583 -.25881905 .25881905 .96592583 -42.0725716 -80.23625976)"/><ellipse cx="9" cy="294.926" fill="#92d050" rx="9" ry="9" transform="matrix(.96592583 -.25881905 .25881905 .96592583 97.02074792 -117.50620296)"/><g fill="#92d050" transform="matrix(-.25881905 -.96592583 .96592583 -.25881905 -151.41241051828 338.24849789888)"><ellipse cx="9" cy="294.926" rx="9" ry="9"/><ellipse cx="153" cy="294.926" rx="9" ry="9"/></g><ellipse cx="9" cy="294.926" fill="#92d050" rx="9" ry="9" transform="matrix(.7071067783 -.7071067863 .7071067863 .7071067783 -153.31986161418 32.40757531893)"/><ellipse cx="9" cy="294.926" fill="#92d050" rx="9" ry="9" transform="matrix(.7071067783 -.7071067863 .7071067863 .7071067783 -51.49648553955 -69.41580190883)"/><g fill="#92d050" transform="matrix(-.7071067863 -.7071067783 .7071067783 -.7071067863 -38.76856051988 449.4959244235)"><ellipse cx="9" cy="294.926" rx="9" ry="9"/><ellipse cx="153" cy="294.926" rx="9" ry="9"/></g><ellipse cx="9" cy="294.926" fill="#92d050" rx="9" ry="9" transform="matrix(.9659258283 .2588190437 -.2588190437 .9659258283 110.5924366744 -122.16488405137)"/><ellipse cx="9" cy="294.926" fill="#92d050" rx="9" ry="9" transform="matrix(.9659258283 .2588190437 -.2588190437 .9659258283 249.68575594903 -84.89494175913)"/><g fill="#92d050" transform="matrix(.2588190437 -.9659258283 .9659258283 .2588190437 -193.34101989018 185.58362613492)"><ellipse cx="9" cy="294.926" rx="9" ry="9"/><ellipse cx="153" cy="294.926" rx="9" ry="9"/></g></g><ellipse cx="112.5" cy="183.676" fill="#fff" rx="46.8" ry="46.8"/><g transform="matrix(.70710678 -.70710678 .70710678 .70710678 -149.077 29.5791)"><path d="m0 283.926h152v20h-152z" fill="none"/><text fill="#000" font-family="Calibri" font-size="1.00001em" x="37.59" y="297.53">Fully connected</text></g><g transform="translate(184.5 -246.25)"><ellipse cx="9" cy="294.926" fill="#92d050" rx="9" ry="9" stroke="#000" stroke-linecap="round" stroke-linejoin="round" stroke-width=".75"/><text fill="#000" font-family="Calibri" font-size="1.00001em" x="5.53" y="298.53">A</text></g><g transform="translate(229.5 -246.25)"><ellipse cx="9" cy="294.926" fill="#92d050" rx="9" ry="9" stroke="#000" stroke-linecap="round" stroke-linejoin="round" stroke-width=".75"/><text fill="#000" font-family="Calibri" font-size="1.00001em" x="5.74" y="298.53">B</text></g><path d="m0 303.93h21.28" marker-end="url(#c)" stroke="#000" stroke-linecap="round" stroke-linejoin="round" stroke-width=".75" transform="translate(202.5 -255.25)"/><g transform="translate(274.5 -246.25)"><ellipse cx="9" cy="294.926" fill="#92d050" rx="9" ry="9" stroke="#000" stroke-linecap="round" stroke-linejoin="round" stroke-width=".75"/><text fill="#000" font-family="Calibri" font-size="1.00001em" x="5.8" y="298.53">C</text></g><g transform="translate(319.5 -246.25)"><ellipse cx="9" cy="294.926" fill="#92d050" rx="9" ry="9" stroke="#000" stroke-linecap="round" stroke-linejoin="round" stroke-width=".75"/><text fill="#000" font-family="Calibri" font-size="1.00001em" x="5.31" y="298.53">D</text></g><g transform="translate(364.5 -246.25)"><ellipse cx="9" cy="294.926" fill="#92d050" rx="9" ry="9" stroke="#000" stroke-linecap="round" stroke-linejoin="round" stroke-width=".75"/><text fill="#000" font-family="Calibri" font-size="1.00001em" x="6.07" y="298.53">E</text></g><path d="m0 303.93h21.28" marker-end="url(#c)" stroke="#000" stroke-linecap="round" stroke-linejoin="round" stroke-width=".75" transform="translate(247.5 -255.25)"/><path d="m0 303.93h21.28" marker-end="url(#c)" stroke="#000" stroke-linecap="round" stroke-linejoin="round" stroke-width=".75" transform="translate(292.5 -255.25)"/><path d="m0 303.93h21.28" marker-end="url(#c)" stroke="#000" stroke-linecap="round" stroke-linejoin="round" stroke-width=".75" transform="translate(337.5 -255.25)"/><path d="m5.36 303.93h.36 51.56" style="stroke:#000;stroke-linecap:round;stroke-linejoin:round;stroke-width:.75;marker-end:url(#c);marker-start:url(#b)" transform="translate(454.5 -255.25)"/><g transform="translate(418.5 -237.25)"><ellipse cx="18" cy="285.926" fill="#92d050" rx="18" ry="18" stroke="#000" stroke-linecap="round" stroke-linejoin="round" stroke-width=".75"/><text fill="#000" font-family="Calibri" font-size="1.00001em" x="14.53" y="282.33">A<tspan dy="1.2em" font-size="1em" x="6.28">100</tspan>x</text></g><g transform="translate(517.5 -237.25)"><ellipse cx="18" cy="285.926" fill="#92d050" rx="18" ry="18" stroke="#000" stroke-linecap="round" stroke-linejoin="round" stroke-width=".75"/><text fill="#000" font-family="Calibri" font-size="1.00001em" x="14.74" y="282.33">B<tspan dy="1.2em" font-size="1em" x="6.28">100</tspan>x</text></g><g transform="translate(83.75 -221.75)"><path d="m0 283.926h37.75v20h-37.75z" fill="none"/><text fill="#000" font-family="Calibri" font-size="1.33333em" font-weight="bold" x="9.94" y="298.73">(a)</text></g><g transform="translate(264.625 -221.75)"><path d="m0 283.926h37.75v20h-37.75z" fill="none"/><text fill="#000" font-family="Calibri" font-size="1.33333em" font-weight="bold" x="9.6" y="298.73">(b)</text></g><g transform="translate(468 -221.75)"><path d="m0 283.926h37.75v20h-37.75z" fill="none"/><text fill="#000" font-family="Calibri" font-size="1.33333em" font-weight="bold" x="10.54" y="298.73">(c)</text></g><g transform="translate(164.75 -37.25)"><path d="m0 283.926h37.75v20h-37.75z" fill="none"/><text fill="#000" font-family="Calibri" font-size="1.33333em" font-weight="bold" x="9.6" y="298.73">(d)</text></g><g transform="translate(293.875 -37.25)"><path d="m0 283.926h37.75v20h-37.75z" fill="none"/><text fill="#000" font-family="Calibri" font-size="1.33333em" font-weight="bold" x="9.86" y="298.73">(e)</text></g><g transform="translate(468.5 -37.25)"><path d="m0 283.926h37.75v20h-37.75z" fill="none"/><text fill="#000" font-family="Calibri" font-size="1.33333em" font-weight="bold" x="11.36" y="298.73">(f)</text></g></svg>