<?xml version="1.0" encoding="UTF-8" standalone="no"?>
<!DOCTYPE svg PUBLIC "-//W3C//DTD SVG 1.1//EN"
 "http://www.w3.org/Graphics/SVG/1.1/DTD/svg11.dtd">
<!-- Generated by graphviz version 2.40.1 (20161225.0304)
 -->
<!-- Title: KeyTree Pages: 1 -->
<svg width="450pt" height="256pt"
 viewBox="0.00 0.00 449.87 256.49" xmlns="http://www.w3.org/2000/svg" xmlns:xlink="http://www.w3.org/1999/xlink">
<g id="graph0" class="graph" transform="scale(1 1) rotate(0) translate(4 252.4939)">
<title>KeyTree</title>
<polygon fill="#ffffff" stroke="transparent" points="-4,4 -4,-252.4939 445.8736,-252.4939 445.8736,4 -4,4"/>
<!-- root -->
<g id="node1" class="node">
<title>root</title>
<ellipse fill="none" stroke="#000000" cx="288.4368" cy="-219.0782" rx="49.5634" ry="29.3315"/>
<text text-anchor="middle" x="288.4368" y="-223.2782" font-family="Times,serif" font-size="14.00" fill="#000000">Root Key</text>
<text text-anchor="middle" x="288.4368" y="-206.4782" font-family="Times,serif" font-size="14.00" fill="#000000">00...</text>
</g>
<!-- key_1 -->
<g id="node2" class="node">
<title>key_1</title>
<ellipse fill="none" stroke="#000000" cx="183.4368" cy="-124.2469" rx="38.5747" ry="29.3315"/>
<text text-anchor="middle" x="183.4368" y="-128.4469" font-family="Times,serif" font-size="14.00" fill="#000000">Key 1</text>
<text text-anchor="middle" x="183.4368" y="-111.6469" font-family="Times,serif" font-size="14.00" fill="#000000">0100...</text>
</g>
<!-- root&#45;&gt;key_1 -->
<g id="edge1" class="edge">
<title>root&#45;&gt;key_1</title>
<path fill="none" stroke="#000000" d="M261.1234,-194.41C247.3832,-182.0004 230.6266,-166.8666 216.198,-153.8354"/>
<polygon fill="#000000" stroke="#000000" points="218.2228,-150.9479 208.4556,-146.8428 213.531,-156.1428 218.2228,-150.9479"/>
</g>
<!-- key_2 -->
<g id="node3" class="node">
<title>key_2</title>
<ellipse fill="none" stroke="#000000" cx="288.4368" cy="-124.2469" rx="38.5747" ry="29.3315"/>
<text text-anchor="middle" x="288.4368" y="-128.4469" font-family="Times,serif" font-size="14.00" fill="#000000">Key 2</text>
<text text-anchor="middle" x="288.4368" y="-111.6469" font-family="Times,serif" font-size="14.00" fill="#000000">1000...</text>
</g>
<!-- root&#45;&gt;key_2 -->
<g id="edge2" class="edge">
<title>root&#45;&gt;key_2</title>
<path fill="none" stroke="#000000" d="M288.4368,-189.5928C288.4368,-181.4754 288.4368,-172.5358 288.4368,-163.9436"/>
<polygon fill="#000000" stroke="#000000" points="291.9369,-163.714 288.4368,-153.7141 284.9369,-163.7141 291.9369,-163.714"/>
</g>
<!-- key_3 -->
<g id="node4" class="node">
<title>key_3</title>
<ellipse fill="none" stroke="#000000" cx="388.4368" cy="-124.2469" rx="38.5747" ry="29.3315"/>
<text text-anchor="middle" x="388.4368" y="-128.4469" font-family="Times,serif" font-size="14.00" fill="#000000">Key 3</text>
<text text-anchor="middle" x="388.4368" y="-111.6469" font-family="Times,serif" font-size="14.00" fill="#000000">1100...</text>
</g>
<!-- root&#45;&gt;key_3 -->
<g id="edge3" class="edge">
<title>root&#45;&gt;key_3</title>
<path fill="none" stroke="#000000" d="M314.9724,-193.9141C327.7419,-181.8047 343.1521,-167.191 356.5541,-154.4817"/>
<polygon fill="#000000" stroke="#000000" points="359.33,-156.6728 364.1778,-147.2521 354.5133,-151.5935 359.33,-156.6728"/>
</g>
<!-- key_1_1 -->
<g id="node5" class="node">
<title>key_1_1</title>
<ellipse fill="none" stroke="#000000" cx="48.4368" cy="-29.4156" rx="48.3737" ry="29.3315"/>
<text text-anchor="middle" x="48.4368" y="-33.6156" font-family="Times,serif" font-size="14.00" fill="#000000">Key 1.1</text>
<text text-anchor="middle" x="48.4368" y="-16.8156" font-family="Times,serif" font-size="14.00" fill="#000000">010100...</text>
</g>
<!-- key_1&#45;&gt;key_1_1 -->
<g id="edge4" class="edge">
<title>key_1&#45;&gt;key_1_1</title>
<path fill="none" stroke="#000000" d="M154.8068,-104.1356C135.5382,-90.6003 109.8592,-72.562 88.5593,-57.5998"/>
<polygon fill="#000000" stroke="#000000" points="90.5285,-54.7059 80.3337,-51.8218 86.5048,-60.4339 90.5285,-54.7059"/>
</g>
<!-- key_1_2 -->
<g id="node6" class="node">
<title>key_1_2</title>
<ellipse fill="none" stroke="#000000" cx="163.4368" cy="-29.4156" rx="48.3737" ry="29.3315"/>
<text text-anchor="middle" x="163.4368" y="-33.6156" font-family="Times,serif" font-size="14.00" fill="#000000">Key 1.2</text>
<text text-anchor="middle" x="163.4368" y="-16.8156" font-family="Times,serif" font-size="14.00" fill="#000000">011000...</text>
</g>
<!-- key_1&#45;&gt;key_1_2 -->
<g id="edge5" class="edge">
<title>key_1&#45;&gt;key_1_2</title>
<path fill="none" stroke="#000000" d="M177.273,-95.0206C175.5241,-86.7282 173.5907,-77.5609 171.7375,-68.7739"/>
<polygon fill="#000000" stroke="#000000" points="175.1031,-67.7712 169.6147,-58.7087 168.2538,-69.2157 175.1031,-67.7712"/>
</g>
<!-- key_1_3 -->
<g id="node7" class="node">
<title>key_1_3</title>
<ellipse fill="none" stroke="#000000" cx="278.4368" cy="-29.4156" rx="48.3737" ry="29.3315"/>
<text text-anchor="middle" x="278.4368" y="-33.6156" font-family="Times,serif" font-size="14.00" fill="#000000">Key 1.3</text>
<text text-anchor="middle" x="278.4368" y="-16.8156" font-family="Times,serif" font-size="14.00" fill="#000000">011100...</text>
</g>
<!-- key_1&#45;&gt;key_1_3 -->
<g id="edge6" class="edge">
<title>key_1&#45;&gt;key_1_3</title>
<path fill="none" stroke="#000000" d="M206.92,-100.8055C218.6784,-89.068 233.1013,-74.6706 245.9072,-61.8874"/>
<polygon fill="#000000" stroke="#000000" points="248.6233,-64.1216 253.228,-54.5797 243.6779,-59.1674 248.6233,-64.1216"/>
</g>
<!-- key_3_1 -->
<g id="node8" class="node">
<title>key_3_1</title>
<ellipse fill="none" stroke="#000000" cx="393.4368" cy="-29.4156" rx="48.3737" ry="29.3315"/>
<text text-anchor="middle" x="393.4368" y="-33.6156" font-family="Times,serif" font-size="14.00" fill="#000000">Key 3.1</text>
<text text-anchor="middle" x="393.4368" y="-16.8156" font-family="Times,serif" font-size="14.00" fill="#000000">110100...</text>
</g>
<!-- key_3&#45;&gt;key_3_1 -->
<g id="edge7" class="edge">
<title>key_3&#45;&gt;key_3_1</title>
<path fill="none" stroke="#000000" d="M389.9914,-94.7615C390.4194,-86.6441 390.8908,-77.7045 391.3438,-69.1123"/>
<polygon fill="#000000" stroke="#000000" points="394.8517,-69.0532 391.8832,-58.8828 387.8614,-68.6846 394.8517,-69.0532"/>
</g>
</g>
</svg>